<svg xmlns="http://www.w3.org/2000/svg" width="250" height="250"><path fill="#e1bb34" fill-rule="evenodd" d="M78.286 93.917c.052-2.178.156-4.304.208-6.482.051-.415.051-.83.103-1.245l.156-6.223c.052-.934.052-1.815.104-2.749.052-1.296.156-2.593.052-3.89-.052-.466-.52-.88-.831-1.347-.052-.104-.052-.208-.104-.312-.156-.466-.26-.985-.416-1.452-.052-.103-.103-.155-.103-.259-.052-.156-.104-.311-.104-.467-.052-.103-.104-.155-.104-.26-.676-2.229-1.61-4.2-4.208-4.718-.104-.052-.208-.052-.312-.104-.52-.052-1.09-.104-1.61-.156-.312 0-.572-.051-.883-.051h-3.792c-.104.051-.156.051-.26.103-.416.104-.831.26-1.247.363a.717.717 0 0 1-.208.156c-1.87 1.4-2.13 2.8-.83 5.393-1.611.83-3.585.623-4.988-.83-.883-.881-1.454-2.074-2.13-3.111l-.467-.778a22.736 22.736 0 0 1-.312-.985v-1.764c.468-1.503 1.455-2.748.883-4.615-.935-3.112 2.494-7.416 5.974-6.638-1.402 2.697-.052 5.186 3.065 5.6.26.053.52.104.78.104h8.727c.52-.051 1.039-.103 1.506-.155 1.559-.311 3.169-.622 4.727-.934-2.233-.518-2.233-.518-2.233-2.8v-2.697c.363 0 .623-.052.883 0 3.688 1.141 7.376 2.282 11.117 3.423.675.207 1.09.519.987 1.245-.676.259-1.351.466-2.13.778 1.195.881 2.545.83 3.844.985h.52l.103.052h.104c.416.052.883.103 1.299.155 3.065 0 6.13 0 9.195-.052.363-.051.675-.103 1.039-.155 1.766-.674 3.376-1.556 3.22-3.838-.052-.622-.311-1.244-.467-1.815 2.493-.311 5.09 1.556 5.662 4.304.156.623.416 1.4.208 1.92-.623 1.503 0 2.8.312 4.2.779 3.008-.156 5.653-2.338 7.83-1.09 1.09-3.896 1.35-5.09.571.83-1.296 1.09-2.696.519-4.097-.52-1.296-1.715-1.867-3.013-1.867-2.286.052-4.572.312-6.858.415-1.402.052-2.13 1.141-2.649 2.127-.831 1.503-1.35 3.215-2.026 4.823-.156.414-.467.777-.727 1.14 0 .156-.052.312-.052.519 0 .311.052.622.052.934.104.051.156.103.26.155 7.168 0 14.337 0 21.506.052h7.48l.468.778c-3.273 1.66-6.234 3.682-9.039 6.067-4 3.371-6.96 7.468-9.299 12.084-.467.881-.727 1.867-1.09 2.748l-.26.26c-3.013 0-5.974.052-8.987.052-.052 1.037-.156 2.126-.208 3.163l.156 4.253c.052 1.555.104 3.111.104 4.719.052.518.052.985.104 1.504 0 .155 0 .31.052.466v2.023c.052.882.052 1.815.104 2.697.051.933.103 1.867.103 2.748v2.956c0 .052-.052.052-.052.104a.716.716 0 0 1 .156.207l.156 6.172v1.452c.052.155.052.311.104.467l.156 6.482c.052.415.052.83.104 1.245.415.155.83.363 1.247.415h19.48c.468 0 .987-.104 1.455-.156 1.09-.052 2.181-.052 3.272-.104.52-.052.987-.103 1.507-.155 2.026-.311 4-.57 6.026-.882.156-.052.311-.052.467-.104.156-.051.312-.051.52-.103.156-.052.363-.104.52-.156.259-.052.519-.155.779-.207.103 0 .26-.052.363-.052.104-.052.208-.052.312-.104.156-.052.312-.104.467-.104.208-.051.364-.155.572-.207l.104.052.052-.104c.104-.052.207-.052.311-.104l.468-.155c.104-.052.208-.052.312-.104.155-.052.26-.104.415-.156.104-.051.208-.103.312-.103.104-.052.156-.052.26-.104 3.22-1.245 6.077-3.06 8.207-5.808.104 0 .156-.052.156-.156l.624-.933.155-.311c.624-1.09 1.195-2.23 1.819-3.32a3.57 3.57 0 0 1 .155-.414c0-.104.052-.208.052-.312l.156-.466c0-.104.052-.208.052-.311.052-.208.104-.467.156-.675 0-.103.052-.207.052-.31v-.416-.83c.156-.414.26-.777.416-1.192.052-.363.052-.674.103-1.037v-3.423c-.051-.363-.051-.726-.103-1.037l-.156-.934c-.052-.26-.104-.518-.156-.83-.052-.155-.052-.259-.104-.414 0-.104-.052-.208-.052-.312-.052-.207-.104-.466-.208-.674-.052-.104-.052-.207-.104-.311a.716.716 0 0 1-.156-.207l-.051-.052-.156-.778c-.987-2.593-2.754-4.668-4.831-6.483 0-.103-.052-.155-.156-.103-.987-.623-1.974-1.297-2.961-1.92-.572-.362-1.195-.622-1.767-.933-.052-.052-.155-.052-.207-.103l-.312-.156-.052-.104-.104.052c-.156-.052-.364-.155-.52-.207-.103-.052-.155-.052-.26-.104-.103-.052-.207-.052-.31-.104-.157-.052-.313-.103-.416-.155-.104-.052-.208-.052-.26-.104-.052 0-.104-.052-.156-.052-.26-.104-.52-.155-.727-.26-.104-.051-.208-.051-.312-.103-.104-.052-.208-.052-.312-.104-.104 0-.26-.051-.363-.051-.26-.052-.52-.156-.78-.208h-.57c-.988-.26-1.975-.519-2.962-.726-.156-.052-.312-.052-.467-.104-.364-.052-.676-.103-1.04-.155-.155 0-.311-.052-.467-.052-.208-.104-.468-.156-.935-.363 1.454-1.452 2.701-2.956 4.208-4.149 3.272-2.541 6.909-4.408 10.96-5.497 4.468-1.193 8.936-1.815 13.56-1.141 1.817.26 3.636.519 5.402.726 1.506.156 2.597.882 3.584 2.023 1.507 1.815 3.377 3.319 4.624 5.237 1.506 2.386 2.7 4.979 3.844 7.572.727 1.608 1.195 3.319 1.558 5.03.364 1.712.624 3.475.727 5.186.156 2.075.364 4.15.26 6.172-.26 5.186-1.09 10.268-3.169 15.091-4.727 10.942-13.298 17.58-24.311 21.418-.987.363-1.974.622-2.961.934-.935.259-1.922.518-3.17.83 9.403 15.557 18.702 31.012 28.105 46.57-4.312 3.526-9.247 5.86-14.754 6.793-2.649.467-5.35.467-8.051.778-2.546.311-4.208-.518-5.351-2.956-1.455-3.215-3.273-6.223-4.935-9.335-1.714-3.111-3.533-6.171-5.247-9.283-1.714-3.111-3.273-6.223-4.987-9.334-1.766-3.216-3.584-6.431-5.35-9.646-1.559-2.853-3.117-5.653-4.572-8.557-.78-1.556-1.61-2.334-3.532-2.23-4.624.155-9.195.052-13.819.052-.467 0-1.194-.208-.883.778.052 1.4.156 2.8.208 4.252 0 .934.052 1.815.052 2.749 0 .052-.052.052 0 .103 0 .052.052.104.052.156 0 .57.052 1.193.052 1.763.052 1.245.104 2.49.104 3.682 0 .934.052 1.815.052 2.749 0 .674.052 1.4.052 2.074v1.09c.052.829.052 1.71.104 2.54 0 .726.051 1.504.051 2.23l.156 5.238c0 .934.052 1.815.052 2.749.052 1.037.052 2.022.104 3.06l.156 4.408.156 3.993c.052 1.348.052 2.645.104 3.993.052.83.052 1.66.104 2.541l.155 5.186c0 1.141-.051 2.334-.051 3.475-3.793 8.557-7.637 17.165-11.429 25.774-.52-1.089-.987-2.126-1.507-3.163-.051-.052-.051-.156-.103-.208-.624-1.4-1.247-2.852-1.87-4.252-.052-.104-.104-.156-.104-.26-1.3-2.904-2.546-5.808-3.845-8.712-.052-.104-.103-.156-.155-.26-.572-1.244-1.091-2.489-1.663-3.733-.052-.052-.052-.104-.104-.208-.675-1.607-1.402-3.163-2.078-4.77-.052-.104-.103-.156-.103-.26 0-.83.051-1.608.051-2.437 0-.26.052-.519.052-.778l.156-5.964c.052-.674.052-1.349.104-1.97.052-1.816.104-3.631.104-5.498.052-.674.052-1.348.104-1.97.052-1.92.104-3.838.104-5.705.052-1.245.052-2.438.104-3.682l.156-4.253c.052-1.504.103-3.008.155-4.46.052-1.556.104-3.163.104-4.72.052-.829.104-1.659.104-2.488l.156-5.964c.052-.934.104-1.815.104-2.749.052-1.556.104-3.163.104-4.72v-.777-1.193a1.84 1.84 0 0 0 .104-.518c.052-2.334.104-4.668.104-6.95 0-.155.052-.31.052-.518l.155-6.483v-.726-.363c.052-.104.052-.207.104-.363l.156-5.756v-.519-1.089c0-.207.052-.415.052-.622l.156-5.03v-.727-1.089c.052-.622.052-1.244.104-1.867l.156-4.512v-1.763l.052-.052-.052-.051c0-.52.052-1.038.052-1.608.052-2.075.104-4.2.207-6.275 0-.415 0-.83.052-1.193 0-.104.052-.207.052-.26l.156-6.69c0-.103.052-.207.052-.259.052-2.23.156-4.511.208-6.741.208-.57.208-1.297.208-2.075zm33.195 99.83c1.714 2.127 3.22 4.305 5.038 6.224 5.923 6.12 13.04 10.06 21.507 11.46 9.766 1.66 18.961.105 27.377-5.185 14.649-9.231 14.7-26.397 9.194-35.835-2.753-4.668-6.805-7.935-11.532-10.269-4.208-2.074-8.623-3.785-12.883-5.6.363-.208.883-.519 1.454-.778 4.364-2.127 8.416-4.72 11.74-8.298.468-.467.78-.467 1.403-.26 1.455.571 3.013.986 4.468 1.557.675.259 1.143.881 1.766 1.192 5.974 3.06 11.48 6.794 15.48 12.343 3.273 4.564 5.351 9.698 5.923 15.299.363 3.215.363 6.43.52 9.646.051 1.037.207 2.074.103 3.06-.052.674-.52 1.296-.623 1.97-.312 1.763-.416 3.527-.832 5.238-.26 1.089-.987 2.126-1.454 3.163-.52 1.193-.987 2.386-1.455 3.527-.104.26-.104.57-.26.778a447.443 447.443 0 0 1-4.311 6.223c-.104.156-.312.26-.468.415-1.87 1.608-3.688 3.319-5.558 4.875-.987.83-2.182 1.452-3.22 2.282-2.079 1.71-4.624 2.489-7.014 3.578-5.402 2.437-10.441 3.474-15.22 3.993-1.455.156-3.066 0-4.364.519-1.87.778-3.74-.208-5.61.363-.936.259-2.13-.208-3.17-.363-1.61-.26-3.168-.623-4.779-.726-3.74-.208-7.169-1.556-10.65-2.697a42.82 42.82 0 0 1-6.752-2.749c-2.338-1.192-4.52-2.645-6.754-3.993-2.857-1.711-5.194-3.993-7.532-6.327-1.403-1.4-2.597-3.008-3.844-4.563-.156-.208-.052-.934.208-1.09a908.078 908.078 0 0 1 12.104-8.971s.051 0 0 0zm7.22-90.91c-.104.415-.207.83-.363 1.245-.052.155-.104.311-.104.467-2.39 9.853-.312 21.729 13.662 29.041l-6.545 1.09c-4.156.725-8.312.725-12.52.777-1.558 0-2.493-.363-3.428-1.711-1.87-2.853-3.689-5.653-4.78-8.868-.104-.363-.26-.778-.363-1.141l-.156-.467-.468-1.556.052-.052c0-.051-.052-.103-.104-.155-.311-2.023-.727-4.097-.935-6.12-.207-1.919-.363-3.837-.26-5.756.105-1.97.468-3.993.728-5.964.052-.156.104-.363.156-.519.052-.259.052-.466.104-.726.052-.103.052-.155.104-.259l.155-.778.052-.052v-.155c.935-2.541 1.663-5.238 2.857-7.624 2.961-5.756 7.273-10.268 12.624-13.95 4.26-2.904 8.987-4.823 13.87-6.379 1.922-.622 3.844-.83 5.818-1.193 1.974-.363 4-.518 5.974-.778.52-.051 1.04-.363 1.559-.518.207-.052.415-.052.623-.052 1.61 0 3.22-.156 4.78.052 1.454.155 2.856.882 4.363.155 1.35 1.193 3.117.83 4.675 1.09 8.675 1.503 16.572 4.719 23.48 10.112 2.234 1.763 4.053 3.993 6.079 6.016.155.156.26.415.415.674-3.896 3.164-7.792 6.275-11.636 9.387-1.507-1.712-2.91-3.371-4.416-4.927-2.805-2.904-6.182-5.03-9.922-6.534-2.701-1.09-5.558-1.712-8.363-2.49-.676-.207-1.403-.207-2.13-.31-.156 0-.312-.053-.468-.053-2.909-.051-5.87-.051-8.78-.103-.363.052-.674.103-1.038.155l-3.74.623c-.104.051-.208.051-.26.103-.571.156-1.143.312-1.766.467-.052 0-.156.052-.208.052-7.74 2.178-13.766 6.534-17.714 13.587-.624 1.141-.987 2.386-1.455 3.579-.104.207-.156.363-.208.518zM92.208 45.791c.052.208.104.363.104.57.052 1.816.052 3.63.104 5.446-.052.052-.052.156 0 .26-.104.051-.156.103-.26.155-3.48-.985-6.91-1.97-10.39-2.956-.26-.052-.571-.104-.83-.156-.105-.103-.157-.155-.26-.259l-.936-.778c.052-.57.052-1.14.104-1.711v-4.253c3.013.882 5.818 1.712 8.675 2.541 1.143.311 2.286.623 3.377.934.104.104.208.155.312.207zM92 37.805v5.756c-.416-.052-.935-.052-1.403-.155-3.272-.986-6.493-2.023-9.766-2.956-.727-.208-.987-.415-.935-1.297.156-1.504.052-3.06.052-4.875C84 35.471 87.896 36.612 92 37.805zM80.312 27.122c2.233.674 4.363 1.296 6.545 1.918 1.35.415 2.701.778 4 1.193.312.104.78.415.78.726.155 1.452.207 2.956.311 4.771-1.143-.259-2.078-.466-2.961-.726-2.545-.778-5.09-1.66-7.688-2.333-1.091-.26-1.35-.778-1.299-1.712.104-1.192.208-2.437.312-3.837zm10.597-3.527c.208.467.468.934.675 1.349 0 .051-.052.051-.052.103s.052.104.104.156v3.163c-1.142-.259-2.285-.466-3.376-.83-2.338-.674-4.676-1.503-7.065-2.178-.727-.207-1.04-.622-.935-1.296.104-1.141.208-2.334.363-3.527 3.325.934 6.65 1.92 10.026 2.905.104.103.208.103.26.155zM79.69 7.052c4.155 0 8.311 0 12.467-.052.623.674.935 2.334.467 3.06-.155.259-.571.415-.883.415-3.896 0-7.792.051-11.688 0-1.091 0-1.662-1.764-.935-2.905.208-.207.415-.363.571-.518zm1.246 8.142a1147.75 1147.75 0 0 0 10.442 3.163v3.371c-.728-.207-1.455-.363-2.13-.518-2.39-.675-4.831-1.4-7.17-2.127-1.61-.518-1.87-1.089-1.454-2.696.052-.363.156-.726.312-1.193zm.78-1.815c-.988-.208-.832-.934-.728-1.815h9.922c.104.052.208.103.312.207.052 1.09.052 2.178.104 3.267v.519c-.26.155-.572.518-.831.467-1.87-.467-3.793-.986-5.663-1.504-.987-.26-1.974-.623-2.96-.934-.053-.104-.105-.155-.157-.207z"/></svg>
