<svg version="1" xmlns="http://www.w3.org/2000/svg" width="933.333" height="933.333" viewBox="0 0 700.000000 700.000000"><path d="M222.9 20.2c-1.3.5-1.9 1.7-1.9 3.7 0 5.3 1.1 5.6 18.6 5.5 8.7-.1 16.7-.2 17.6-.3 2.2-.1 3.2-3.8 2-7.1l-.9-2.4-16.7-.1c-9.2 0-17.6.3-18.7.7zM227 34.5c0 2.5 2.1 3.7 10.5 6.1 3.3.9 8.1 2.3 10.7 3 7.5 2.2 8 1.4 6.9-10.2-.1-.6-5-1-14.1-1-13.6 0-14 0-14 2.1zM225.8 45.2c0 1.3-.2 3-.2 3.8-.1.8.7 2.1 1.8 2.9 1.7 1.3 12.6 4.9 21.1 7 1.7.5 4 1.1 5.1 1.5 2 .6 2.1.3 2.2-4.3.2-4.7 0-5-2.7-5.6-1.5-.3-7.7-2.1-13.7-4-6-1.9-11.4-3.5-12.1-3.5-.7 0-1.4 1-1.5 2.2zM225.6 57.9c-.1.3-.2 3.3-.2 6.6l.1 5.9 12.4 3.8c6.8 2.1 13.8 3.9 15.5 4.1 3 .2 3.1 0 3.2-3.8.2-7-1-8.2-10.5-11-4.7-1.4-11.2-3.4-14.4-4.4-3.2-1-5.9-1.6-6.1-1.2zM224.9 77.7c-.1 1-.3 3.4-.5 5.3-.7 6.9-.3 7.3 10.8 10.7 12 3.7 20.9 6.3 21.7 6.3.8 0-.2-13.7-1.1-14.5-.4-.4-6.4-2.4-13.5-4.4-7-2.1-13.8-4.1-15-4.5-1.8-.6-2.3-.3-2.4 1.1zM223.9 100.3c0 2.3-.2 5.5-.3 7-.1 1.6.3 3.5.9 4.3.9 1.3 29 10.4 32 10.4 1 0 1.5-15.4.5-16.3-.3-.2-6.3-2.1-13.5-4.1-7.1-2-14.5-4-16.2-4.5l-3.3-1-.1 4.2zM223.9 118.3c-.1.1-.2 3.9-.3 8.5-.3 9.9-.5 9.6 13.9 13.6 5.5 1.5 11.1 3.1 12.5 3.6 1.4.5 3.9 1.2 5.7 1.5l3.1.6-.2-8.5c-.1-4.7-.6-8.9-1.1-9.4-.6-.5-5.3-2.1-10.5-3.5-5.2-1.5-12.5-3.6-16.2-4.6-3.8-1.1-6.8-1.9-6.9-1.8z"/><path d="M223.3 141.9c-.5.3-.8 3.2-.8 6.4.1 4.9.5 6.2 2.3 7.6 2.3 1.7 2.2 1.7-5.3 3-11.2 2-34.4 1.7-39-.5-3-1.4-6.8-6-6.5-7.9.1-.2.5-1.8 1-3.5.7-2.6.6-3-1.1-3-3.7 0-8.6 2.8-11.5 6.6-2.6 3.3-2.9 4.6-3 11.3-.1 4.2-.7 8.9-1.3 10.4-2.1 5.4-1.4 9.8 2.9 16.3 4.6 7.1 9.2 10 14.6 9 3.1-.6 3.3-.9 2.4-3.2-1.6-4.1-1.1-8.1 1.3-10.9 2.8-3.2 9.4-4.4 19.4-3.5 11.7 1.1 14.6 4.1 19.3 19.2.6 2.1 1.6 4.1 2.2 4.4.9.6.7 16.9-.7 48.4-1.6 36.4-2.8 70.3-4 114-.2 10.2-.7 26.4-1 36-.6 18.6-1.1 36.7-2.1 73-.3 12.4-.7 27-.9 32.5-.2 5.5-.6 21.2-1 35-.4 13.7-.8 28.6-1 33-.1 4.4-.4 13.8-.5 21l-.2 13 4.7 10.5c2.6 5.8 5.7 12.8 7 15.7 1.3 2.8 6.3 14 11.1 24.8s9 19.3 9.5 18.8c.4-.4 4.6-9.4 9.2-19.8 4.7-10.5 9.6-21.5 11-24.5 1.4-3 4.6-10.4 7.2-16.4l4.7-10.9-.7-23.1c-.4-12.7-.8-27.2-1-32.1-.4-9.7-1.2-39.8-2.1-72-.2-11-.6-23.7-.8-28.2l-.4-8.2h22.2c15.7-.1 22.8.3 24.5 1.2 1.9 1 7.8 10.1 10.8 16.7.6 1.3 11.5 21.4 19.1 35 1.3 2.5 4.9 9.2 8 15 3 5.8 6.2 11.8 7.2 13.5 1 1.6 2.9 5 4.3 7.5 1.3 2.5 4.3 7.7 6.5 11.5 5.4 9.5 9.5 17 15.7 29 6.3 11.9 8.5 13.9 15.8 13.9 5.3 0 18.3-1 24.7-2 6.2-.9 17.3-4.5 23.5-7.6 8.6-4.4 17.7-10.9 17.1-12.4-.3-.7-8.1-13.8-17.4-29.1-19.2-31.6-30.2-50-31.7-52.6-.5-.9-6.3-10.5-12.7-21.1-6.5-10.7-12.7-21.1-13.9-23l-2-3.5 4.3-1.1c2.4-.6 5-1.4 5.8-1.7.8-.3 2.3-.8 3.2-.9 3.1-.6 19.2-7.5 24.8-10.7 19.2-10.6 34.7-26.2 43.5-43.7 3.3-6.7 8.8-21 8-21-.2 0 0-1.2.6-2.7 3-7.9 4.4-34.9 2.5-48.3-2.9-20.5-12.1-40.2-25.5-54.2-10.6-11.2-14.5-12.4-41.6-12.2-11 0-15.8.5-22.4 2.2-15.8 4.1-29.2 11.4-39.9 21.8l-6.4 6.2 3.3.7c24.2 4.7 35.5 9.4 46.2 19.4 11 10.3 16.1 27.3 13.2 45.1-.3 2.5-.9 5.8-1.1 7.4-.7 4.3-7.1 15.5-11.8 20.5-2.3 2.4-6.3 5.8-9.1 7.6-5.2 3.3-16.9 8.3-21.4 9.2-1.4.2-4.4.8-6.6 1.3-4.1.9-7.7 1.4-20 2.9-8.3 1-67.1 1.5-70.6.6-1.9-.5-2.4-1.3-2.5-3.8-.1-1.8-.4-14-.8-27.2s-.9-29.6-1.2-36.5c-.3-6.9-.6-20.3-.8-29.8l-.4-17.2 9.1-.1c5.1-.1 10.9 0 12.9.1 3.7.1 3.8 0 6.8-6.6 4.1-9.1 12.6-21.7 19.7-29 6.4-6.6 19.6-16.8 27.2-21 2.7-1.4 4.7-3.2 4.5-3.8-.3-.9-10.4-1.2-38.7-1.3-48-.2-43.7 0-43.7-2 0-3.2 7.3-19.4 10.1-22.4 2.9-3.1 2.9-3.1 21.7-3.3 6.7-.1 7.5.1 9.2 2.4 2.4 3.2 2.9 7.2 1.4 11-1.4 3.2-1.5 3.1 4.1 3.5 4.5.3 7.7-1.2 10.8-5 5-6.3 5.9-10.6 4.2-21-.4-2.8-.8-7.8-.9-11.2-.1-4.5-.6-6.9-2.2-9-2.8-3.8-8.2-7.3-11.1-7.3-2.2 0-2.3.3-1.8 3.4.9 4.6-1.5 8.9-6.1 11.1-2.9 1.3-6.4 1.7-17.3 1.7-12.7.1-26.7-.9-28.3-1.9-1.6-.9-.7-2.1 1.8-2.7 5.8-1.5 2-3.4-23.3-11.4-5.1-1.6-9.6-2.6-10-2.3z"/><path d="M413.5 198.1c-2.7.3-8.1 1.1-12 1.7-3.8.6-9.2 1.4-12 1.7-15.8 2-38.1 10.2-52.1 19.1-28.5 18.1-46.1 45.6-50 78.4-.7 5.9-.6 21.6.1 24 .2.8.7 3.7 1 6.5 1 9 2.7 15.7 6 23.6 4 9.5 12 22.5 15.1 24.6 1.8 1.1 5.2 1.5 15.1 1.4 7.1-.1 14-.3 15.3-.5 1.4-.3 4.3-.7 6.5-1 3.3-.4 10.8-1.6 19.5-3 2.4-.4 1.5-1.5-5.1-5.7-8.6-5.6-16.5-13.3-21.4-20.9-7.4-11.5-10.1-20.8-10.4-35.3-.7-34.1 20-62 54.2-73.2 11.2-3.6 19.7-4.8 33.6-4.7 15 .1 21.4.7 27.2 2.5 2.4.8 7.1 2.2 10.4 3.2 16.3 4.8 28.1 12.9 42.6 29.2l4.6 5.2 15.9-12.9c8.8-7.1 15.9-13.3 15.9-13.8 0-1.4-10.8-12.5-17.7-18.3-14.4-12-41-24.1-60.3-27.4-10-1.7-16.7-2.6-25-3.5-4.9-.5-9.7-1.1-10.5-1.3-.8-.1-3.7 0-6.5.4zM453.2 411.3c-6.9 6.4-15.1 12-25 17.2-4 2.1-6.9 4.2-6.5 4.5.5.4 5.8 2.8 11.8 5.3 10 4.1 24 10.7 30.5 14.2 5 2.8 14.6 11.2 19.2 17 10 12.3 14.8 26.9 14.8 44.5 0 9-.2 11.1-2.6 20.4-1.3 5.5-8.6 21.4-10.2 22.6-.4.3-2.3 2.5-4.2 4.9-7.7 10-25.2 21.1-41.5 26.6-23.2 7.7-53.1 6.5-76.3-3.3-18.9-7.9-33.7-20-48.3-39.2l-2.6-3.4-3.4 2.4c-8.3 5.8-30.5 22.5-31.1 23.4-1.3 1.9 4.4 8.9 16.2 20.2 11.8 11.3 27.7 21.2 47.5 29.4 3 1.3 20.5 6.8 25 7.9 2.2.5 6.5 1.2 9.6 1.6 3.1.3 6.7.8 8 1 10.9 2.1 23.8 2.6 30.4 1.2 2.2-.5 6.3-1 9-1.3 10.9-.8 31.7-5 36.4-7.4.9-.4 6.8-2.9 13.1-5.5 6.3-2.7 12.2-5.3 13-6 .8-.7 4-2.9 7-5 5.5-3.8 18.9-15.2 22.3-19 4.8-5.2 11.4-15.7 14.3-22.7 1.8-4.2 4-9.1 4.9-10.8.9-1.8 1.9-4.4 2.1-5.9.2-1.4 1.2-6.2 2.1-10.6 1.9-9 1.9-11.7.9-30.2-.7-13.2-2.4-24.6-4.7-31.3-7.6-22.5-23.5-41.1-46.3-54.2-3.9-2.2-8.9-5.2-11-6.5-3-2-16.4-7.3-18.3-7.3-.2 0-2.9 2.4-6.1 5.3z"/></svg>