<?xml version="1.0" encoding="UTF-8"?>
<svg width="250px" height="250px" viewBox="0 0 250 250" version="1.1" xmlns="http://www.w3.org/2000/svg" xmlns:xlink="http://www.w3.org/1999/xlink">
    <!-- Generator: Sketch 52.2 (67145) - http://www.bohemiancoding.com/sketch -->
    <title>Icon-Black</title>
    <desc>Created with Sketch.</desc>
    <g id="Icon-Black" stroke="none" stroke-width="1" fill="none" fill-rule="evenodd">
        <path d="M78.2857143,93.9172867 C78.3376623,91.7391685 78.4415584,89.6129103 78.4935065,87.4347921 C78.5454545,87.0199125 78.5454545,86.6050328 78.5974026,86.1901532 C78.6493506,84.1157549 78.7012987,82.0413567 78.7532468,79.9669584 C78.8051948,79.0334792 78.8051948,78.15186 78.8571429,77.2183807 C78.9090909,75.9218818 79.012987,74.6253829 78.9090909,73.328884 C78.8571429,72.8621444 78.3896104,72.4472648 78.0779221,71.9805252 C78.025974,71.8768053 78.025974,71.7730853 77.974026,71.6693654 C77.8181818,71.2026258 77.7142857,70.6840263 77.5584416,70.2172867 C77.5064935,70.1135667 77.4545455,70.0617068 77.4545455,69.9579869 C77.4025974,69.802407 77.3506494,69.6468271 77.3506494,69.4912473 C77.2987013,69.3875274 77.2467532,69.3356674 77.2467532,69.2319475 C76.5714286,67.0019694 75.6363636,65.031291 73.038961,64.5126915 C72.9350649,64.4608315 72.8311688,64.4608315 72.7272727,64.4089716 C72.2077922,64.3571116 71.6363636,64.3052516 71.1168831,64.2533917 C70.8051948,64.2533917 70.5454545,64.2015317 70.2337662,64.2015317 C68.987013,64.2015317 67.6883117,64.2015317 66.4415584,64.2015317 C66.3376623,64.2533917 66.2857143,64.2533917 66.1818182,64.3052516 C65.7662338,64.4089716 65.3506494,64.5645514 64.9350649,64.6682713 C64.8831169,64.7201313 64.8311688,64.7719912 64.7272727,64.8238512 C62.8571429,66.22407 62.5974026,67.6242888 63.8961039,70.2172867 C62.2857143,71.047046 60.3116883,70.8396061 58.9090909,69.3875274 C58.025974,68.5059081 57.4545455,67.3131291 56.7792208,66.27593 C56.6233766,66.0166302 56.4675325,65.7573304 56.3116883,65.4980306 C56.2077922,65.1868709 56.1038961,64.8757112 56,64.5126915 C56,63.9422319 56,63.3717724 56,62.749453 C56.4675325,61.2455142 57.4545455,60.0008753 56.8831169,58.1339168 C55.9480519,55.0223195 59.3766234,50.7179431 62.8571429,51.4958425 C61.4545455,54.1925602 62.8051948,56.6818381 65.9220779,57.0967177 C66.1818182,57.1485777 66.4415584,57.2004376 66.7012987,57.2004376 C69.6103896,57.2004376 72.5194805,57.2004376 75.4285714,57.2004376 C75.9480519,57.1485777 76.4675325,57.0967177 76.9350649,57.0448578 C78.4935065,56.733698 80.1038961,56.4225383 81.6623377,56.1113786 C79.4285714,55.592779 79.4285714,55.592779 79.4285714,53.3109409 C79.4285714,52.4293217 79.4285714,51.5995624 79.4285714,50.6142232 C79.7922078,50.6142232 80.0519481,50.5623632 80.3116883,50.6142232 C84,51.7551422 87.6883117,52.8960613 91.4285714,54.0369803 C92.1038961,54.2444201 92.5194805,54.5555799 92.4155844,55.2816193 C91.7402597,55.540919 91.0649351,55.7483589 90.2857143,56.0595186 C91.4805195,56.9411379 92.8311688,56.8892779 94.1298701,57.0448578 C94.2857143,57.0448578 94.4415584,57.0448578 94.6493506,57.0448578 L94.7532468,57.0967177 L94.8571429,57.0967177 C95.2727273,57.1485777 95.7402597,57.2004376 96.1558442,57.2522976 C99.2207792,57.2522976 102.285714,57.2522976 105.350649,57.2004376 C105.714286,57.1485777 106.025974,57.0967177 106.38961,57.0448578 C108.155844,56.3706783 109.766234,55.4890591 109.61039,53.207221 C109.558442,52.5849015 109.298701,51.9625821 109.142857,51.3921225 C111.636364,51.0809628 114.233766,52.9479212 114.805195,55.6964989 C114.961039,56.3188184 115.220779,57.0967177 115.012987,57.6153173 C114.38961,59.119256 115.012987,60.4157549 115.324675,61.8159737 C116.103896,64.8238512 115.168831,67.468709 112.987013,69.6468271 C111.896104,70.7358862 109.090909,70.995186 107.896104,70.2172867 C108.727273,68.9207877 108.987013,67.5205689 108.415584,66.1203501 C107.896104,64.8238512 106.701299,64.2533917 105.402597,64.2533917 C103.116883,64.3052516 100.831169,64.5645514 98.5454545,64.6682713 C97.1428571,64.7201313 96.4155844,65.8091904 95.8961039,66.7945295 C95.0649351,68.2984683 94.5454545,70.0098468 93.8701299,71.6175055 C93.7142857,72.0323851 93.4025974,72.3954048 93.1428571,72.7584245 C93.1428571,72.9140044 93.0909091,73.0695842 93.0909091,73.2770241 C93.0909091,73.5881838 93.1428571,73.8993435 93.1428571,74.2105033 C93.2467532,74.2623632 93.2987013,74.3142232 93.4025974,74.3660832 C100.571429,74.3660832 107.74026,74.3660832 114.909091,74.4179431 C117.402597,74.4179431 119.896104,74.4179431 122.38961,74.4179431 C122.545455,74.6772429 122.701299,74.9365427 122.857143,75.1958425 C119.584416,76.8553611 116.623377,78.8778993 113.818182,81.2634573 C109.818182,84.6343545 106.857143,88.731291 104.519481,93.3468271 C104.051948,94.2284464 103.792208,95.2137856 103.428571,96.0954048 C103.324675,96.1991247 103.272727,96.2509847 103.168831,96.3547046 C100.155844,96.3547046 97.1948052,96.4065646 94.1818182,96.4065646 C94.1298701,97.4437637 94.025974,98.5328228 93.974026,99.5700219 C94.025974,100.970241 94.0779221,102.422319 94.1298701,103.822538 C94.1818182,105.378337 94.2337662,106.934136 94.2337662,108.541794 C94.2857143,109.060394 94.2857143,109.527133 94.3376623,110.045733 C94.3376623,110.201313 94.3376623,110.356893 94.3896104,110.512473 C94.3896104,111.186652 94.3896104,111.860832 94.3896104,112.535011 C94.4415584,113.41663 94.4415584,114.350109 94.4935065,115.231729 C94.5454545,116.165208 94.5974026,117.098687 94.5974026,117.980306 C94.5974026,118.291466 94.5974026,118.602626 94.5974026,118.913786 C94.5974026,119.587965 94.5974026,120.262144 94.5974026,120.936324 C94.5974026,120.988184 94.5454545,120.988184 94.5454545,121.040044 C94.5974026,121.091904 94.6493506,121.143764 94.7012987,121.247484 C94.7532468,123.321882 94.8051948,125.39628 94.8571429,127.418818 C94.8571429,127.729978 94.8571429,128.041138 94.8571429,128.352298 C94.8571429,128.507877 94.8571429,128.715317 94.8571429,128.870897 C94.9090909,129.026477 94.9090909,129.182057 94.961039,129.337637 C95.012987,131.515755 95.0649351,133.642013 95.1168831,135.820131 C95.1688312,136.235011 95.1688312,136.649891 95.2207792,137.06477 C95.6363636,137.22035 96.0519481,137.42779 96.4675325,137.47965 C102.961039,137.47965 109.454545,137.47965 115.948052,137.47965 C116.415584,137.47965 116.935065,137.37593 117.402597,137.32407 C118.493506,137.27221 119.584416,137.27221 120.675325,137.22035 C121.194805,137.16849 121.662338,137.11663 122.181818,137.06477 C124.207792,136.753611 126.181818,136.494311 128.207792,136.183151 C128.363636,136.131291 128.519481,136.131291 128.675325,136.079431 C128.831169,136.027571 128.987013,136.027571 129.194805,135.975711 C129.350649,135.923851 129.558442,135.871991 129.714286,135.820131 C129.974026,135.768271 130.233766,135.664551 130.493506,135.612691 C130.597403,135.612691 130.753247,135.560832 130.857143,135.560832 C130.961039,135.508972 131.064935,135.508972 131.168831,135.457112 C131.324675,135.405252 131.480519,135.353392 131.636364,135.353392 C131.844156,135.301532 132,135.197812 132.207792,135.145952 C132.207792,135.145952 132.311688,135.197812 132.311688,135.197812 L132.363636,135.094092 C132.467532,135.042232 132.571429,135.042232 132.675325,134.990372 C132.831169,134.938512 132.987013,134.886652 133.142857,134.834792 C133.246753,134.782932 133.350649,134.782932 133.454545,134.731072 C133.61039,134.679212 133.714286,134.627352 133.87013,134.575492 C133.974026,134.523632 134.077922,134.471772 134.181818,134.471772 C134.285714,134.419912 134.337662,134.419912 134.441558,134.368053 C137.662338,133.123414 140.519481,131.308315 142.649351,128.559737 C142.753247,128.559737 142.805195,128.507877 142.805195,128.404158 C143.012987,128.092998 143.220779,127.781838 143.428571,127.470678 C143.480519,127.366958 143.532468,127.263239 143.584416,127.159519 C144.207792,126.07046 144.779221,124.92954 145.402597,123.840481 C145.454545,123.684902 145.506494,123.529322 145.558442,123.425602 C145.558442,123.321882 145.61039,123.218162 145.61039,123.114442 C145.662338,122.958862 145.714286,122.803282 145.766234,122.647702 C145.766234,122.543982 145.818182,122.440263 145.818182,122.336543 C145.87013,122.129103 145.922078,121.869803 145.974026,121.662363 C145.974026,121.558643 146.025974,121.454923 146.025974,121.351204 C146.025974,121.195624 146.025974,121.091904 146.025974,120.936324 C146.025974,120.677024 146.025974,120.417724 146.025974,120.106565 C146.181818,119.691685 146.285714,119.328665 146.441558,118.913786 C146.493506,118.550766 146.493506,118.239606 146.545455,117.876586 C146.545455,116.735667 146.545455,115.594748 146.545455,114.453829 C146.493506,114.09081 146.493506,113.72779 146.441558,113.41663 C146.38961,113.10547 146.337662,112.794311 146.285714,112.483151 C146.233766,112.223851 146.181818,111.964551 146.12987,111.653392 C146.077922,111.497812 146.077922,111.394092 146.025974,111.238512 C146.025974,111.134792 145.974026,111.031072 145.974026,110.927352 C145.922078,110.719912 145.87013,110.460613 145.766234,110.253173 C145.714286,110.149453 145.714286,110.045733 145.662338,109.942013 C145.61039,109.890153 145.558442,109.838293 145.506494,109.734573 C145.506494,109.734573 145.454545,109.682713 145.454545,109.682713 C145.402597,109.423414 145.350649,109.164114 145.298701,108.904814 C144.311688,106.311816 142.545455,104.237418 140.467532,102.422319 C140.467532,102.3186 140.415584,102.26674 140.311688,102.3186 C139.324675,101.69628 138.337662,101.022101 137.350649,100.399781 C136.779221,100.036761 136.155844,99.7774617 135.584416,99.466302 C135.532468,99.414442 135.428571,99.414442 135.376623,99.3625821 C135.272727,99.3107221 135.168831,99.2588621 135.064935,99.2070022 L135.012987,99.1032823 L134.909091,99.1551422 C134.753247,99.1032823 134.545455,98.9995624 134.38961,98.9477024 C134.285714,98.8958425 134.233766,98.8958425 134.12987,98.8439825 C134.025974,98.7921225 133.922078,98.7921225 133.818182,98.7402626 C133.662338,98.6884026 133.506494,98.6365427 133.402597,98.5846827 C133.298701,98.5328228 133.194805,98.5328228 133.142857,98.4809628 C133.090909,98.4809628 133.038961,98.4291028 132.987013,98.4291028 C132.727273,98.3253829 132.467532,98.273523 132.25974,98.1698031 C132.155844,98.1179431 132.051948,98.1179431 131.948052,98.0660832 C131.844156,98.0142232 131.74026,98.0142232 131.636364,97.9623632 C131.532468,97.9623632 131.376623,97.9105033 131.272727,97.9105033 C131.012987,97.8586433 130.753247,97.7549234 130.493506,97.7030635 C130.285714,97.7030635 130.12987,97.7030635 129.922078,97.7030635 C128.935065,97.4437637 127.948052,97.1844639 126.961039,96.9770241 C126.805195,96.9251641 126.649351,96.9251641 126.493506,96.8733042 C126.12987,96.8214442 125.818182,96.7695842 125.454545,96.7177243 C125.298701,96.7177243 125.142857,96.6658643 124.987013,96.6658643 C124.779221,96.5621444 124.519481,96.5102845 124.051948,96.3028446 C125.506494,94.8507659 126.753247,93.3468271 128.25974,92.1540481 C131.532468,89.6129103 135.168831,87.7459519 139.220779,86.6568928 C143.688312,85.4641138 148.155844,84.8417943 152.779221,85.5159737 C154.597403,85.7752735 156.415584,86.0345733 158.181818,86.2420131 C159.688312,86.397593 160.779221,87.1236324 161.766234,88.2645514 C163.272727,90.0796499 165.142857,91.5835886 166.38961,93.502407 C167.896104,95.887965 169.090909,98.4809628 170.233766,101.073961 C170.961039,102.681619 171.428571,104.392998 171.792208,106.104376 C172.155844,107.815755 172.415584,109.578993 172.519481,111.290372 C172.675325,113.36477 172.883117,115.439168 172.779221,117.461707 C172.519481,122.647702 171.688312,127.729978 169.61039,132.552954 C164.883117,143.495405 156.311688,150.133479 145.298701,153.971116 C144.311688,154.334136 143.324675,154.593435 142.337662,154.904595 C141.402597,155.163895 140.415584,155.423195 139.168831,155.734354 C148.571429,171.292341 157.87013,186.746608 167.272727,202.304595 C162.961039,205.831072 158.025974,208.16477 152.519481,209.098249 C149.87013,209.564989 147.168831,209.564989 144.467532,209.876149 C141.922078,210.187309 140.25974,209.357549 139.116883,206.920131 C137.662338,203.704814 135.844156,200.696937 134.181818,197.585339 C132.467532,194.473742 130.649351,191.414004 128.935065,188.302407 C127.220779,185.19081 125.662338,182.079212 123.948052,178.967615 C122.181818,175.752298 120.363636,172.53698 118.597403,169.321663 C117.038961,166.469365 115.480519,163.668928 114.025974,160.76477 C113.246753,159.208972 112.415584,158.431072 110.493506,158.534792 C105.87013,158.690372 101.298701,158.586652 96.6753247,158.586652 C96.2077922,158.586652 95.4805195,158.379212 95.7922078,159.364551 C95.8441558,160.76477 95.9480519,162.164989 96,163.617068 C96,164.550547 96.0519481,165.432166 96.0519481,166.365646 C96.0519481,166.417505 96,166.417505 96.0519481,166.469365 C96.0519481,166.521225 96.1038961,166.573085 96.1038961,166.624945 C96.1038961,167.195405 96.1558442,167.817724 96.1558442,168.388184 C96.2077922,169.632823 96.2597403,170.877462 96.2597403,172.070241 C96.2597403,173.00372 96.3116883,173.885339 96.3116883,174.818818 C96.3116883,175.492998 96.3636364,176.219037 96.3636364,176.893217 C96.3636364,177.256236 96.3636364,177.619256 96.3636364,177.982276 C96.4155844,178.812035 96.4155844,179.693654 96.4675325,180.523414 C96.4675325,181.249453 96.5194805,182.027352 96.5194805,182.753392 C96.5714286,184.51663 96.6233766,186.228009 96.6753247,187.991247 C96.6753247,188.924726 96.7272727,189.806346 96.7272727,190.739825 C96.7792208,191.777024 96.7792208,192.762363 96.8311688,193.799562 C96.8831169,195.251641 96.9350649,196.75558 96.987013,198.207659 C97.038961,199.556018 97.0909091,200.852516 97.1428571,202.200875 C97.1948052,203.549234 97.1948052,204.845733 97.2467532,206.194092 C97.2987013,207.023851 97.2987013,207.853611 97.3506494,208.73523 C97.4025974,210.446608 97.4545455,212.209847 97.5064935,213.921225 C97.5064935,215.062144 97.4545455,216.254923 97.4545455,217.395842 C93.6623377,225.952735 89.8181818,234.561488 86.025974,243.170241 C85.5064935,242.081182 85.038961,241.043982 84.5194805,240.006783 C84.4675325,239.954923 84.4675325,239.851204 84.4155844,239.799344 C83.7922078,238.399125 83.1688312,236.947046 82.5454545,235.546827 C82.4935065,235.443107 82.4415584,235.391247 82.4415584,235.287527 C81.1428571,232.38337 79.8961039,229.479212 78.5974026,226.575055 C78.5454545,226.471335 78.4935065,226.419475 78.4415584,226.315755 C77.8701299,225.071116 77.3506494,223.826477 76.7792208,222.581838 C76.7272727,222.529978 76.7272727,222.478118 76.6753247,222.374398 C76,220.76674 75.2727273,219.210941 74.5974026,217.603282 C74.5454545,217.499562 74.4935065,217.447702 74.4935065,217.343982 C74.4935065,216.514223 74.5454545,215.736324 74.5454545,214.906565 C74.5454545,214.647265 74.5974026,214.387965 74.5974026,214.128665 C74.6493506,212.157987 74.7012987,210.135449 74.7532468,208.16477 C74.8051948,207.490591 74.8051948,206.816411 74.8571429,206.194092 C74.9090909,204.378993 74.961039,202.563895 74.961039,200.696937 C75.012987,200.022757 75.012987,199.348578 75.0649351,198.726258 C75.1168831,196.80744 75.1688312,194.888621 75.1688312,193.021663 C75.2207792,191.777024 75.2207792,190.584245 75.2727273,189.339606 C75.3246753,187.939387 75.3766234,186.487309 75.4285714,185.08709 C75.4805195,183.583151 75.5324675,182.079212 75.5844156,180.627133 C75.6363636,179.071335 75.6883117,177.463676 75.6883117,175.907877 C75.7402597,175.078118 75.7922078,174.248359 75.7922078,173.4186 C75.8441558,171.447921 75.8961039,169.425383 75.9480519,167.454705 C76,166.521225 76.0519481,165.639606 76.0519481,164.706127 C76.1038961,163.150328 76.1558442,161.54267 76.1558442,159.986871 C76.1558442,159.727571 76.1558442,159.468271 76.1558442,159.208972 C76.1558442,158.794092 76.1558442,158.379212 76.1558442,158.016193 C76.2077922,157.860613 76.2597403,157.653173 76.2597403,157.497593 C76.3116883,155.163895 76.3636364,152.830197 76.3636364,150.548359 C76.3636364,150.392779 76.4155844,150.237199 76.4155844,150.029759 C76.4675325,147.851641 76.5194805,145.725383 76.5714286,143.547265 C76.5714286,143.287965 76.5714286,143.028665 76.5714286,142.821225 C76.5714286,142.717505 76.5714286,142.561926 76.5714286,142.458206 C76.6233766,142.354486 76.6233766,142.250766 76.6753247,142.095186 C76.7272727,140.176368 76.7792208,138.257549 76.8311688,136.338731 C76.8311688,136.183151 76.8311688,136.027571 76.8311688,135.820131 C76.8311688,135.457112 76.8311688,135.094092 76.8311688,134.731072 C76.8311688,134.523632 76.8831169,134.316193 76.8831169,134.108753 C76.9350649,132.449234 76.987013,130.737856 77.038961,129.078337 C77.038961,128.819037 77.038961,128.559737 77.038961,128.352298 C77.038961,127.989278 77.038961,127.626258 77.038961,127.263239 C77.0909091,126.640919 77.0909091,126.0186 77.1428571,125.39628 C77.1948052,123.892341 77.2467532,122.388403 77.2987013,120.884464 C77.2987013,120.314004 77.2987013,119.743545 77.2987013,119.121225 L77.3506494,119.069365 C77.3506494,119.069365 77.2987013,119.017505 77.2987013,119.017505 C77.2987013,118.498906 77.3506494,117.980306 77.3506494,117.409847 C77.4025974,115.335449 77.4545455,113.20919 77.5584416,111.134792 C77.5584416,110.719912 77.5584416,110.305033 77.6103896,109.942013 C77.6103896,109.838293 77.6623377,109.734573 77.6623377,109.682713 C77.7142857,107.452735 77.7662338,105.222757 77.8181818,102.992779 C77.8181818,102.889059 77.8701299,102.785339 77.8701299,102.733479 C77.9220779,100.503501 78.025974,98.221663 78.0779221,95.9916849 C78.2857143,95.4212254 78.2857143,94.695186 78.2857143,93.9172867 Z M111.480519,193.747702 C113.194805,195.873961 114.701299,198.052079 116.519481,199.970897 C122.441558,206.090372 129.558442,210.031729 138.025974,211.431947 C147.792208,213.091466 156.987013,211.535667 165.402597,206.245952 C180.051948,197.01488 180.103896,179.849234 174.597403,170.410722 C171.844156,165.743326 167.792208,162.476149 163.064935,160.142451 C158.857143,158.068053 154.441558,156.356674 150.181818,154.541575 C150.545455,154.334136 151.064935,154.022976 151.636364,153.763676 C156,151.637418 160.051948,149.04442 163.376623,145.466083 C163.844156,144.999344 164.155844,144.999344 164.779221,145.206783 C166.233766,145.777243 167.792208,146.192123 169.246753,146.762582 C169.922078,147.021882 170.38961,147.644201 171.012987,147.955361 C176.987013,151.015098 182.493506,154.749015 186.493506,160.298031 C189.766234,164.861707 191.844156,169.995842 192.415584,175.596718 C192.779221,178.812035 192.779221,182.027352 192.935065,185.24267 C192.987013,186.279869 193.142857,187.317068 193.038961,188.302407 C192.987013,188.976586 192.519481,189.598906 192.415584,190.273085 C192.103896,192.036324 192,193.799562 191.584416,195.510941 C191.324675,196.6 190.597403,197.637199 190.12987,198.674398 C189.61039,199.867177 189.142857,201.059956 188.675325,202.200875 C188.571429,202.460175 188.571429,202.771335 188.415584,202.978775 C187.012987,205.053173 185.558442,207.127571 184.103896,209.201969 C184,209.357549 183.792208,209.461269 183.636364,209.616849 C181.766234,211.224508 179.948052,212.935886 178.077922,214.491685 C177.090909,215.321444 175.896104,215.943764 174.857143,216.773523 C172.779221,218.484902 170.233766,219.262801 167.844156,220.35186 C162.441558,222.789278 157.402597,223.826477 152.623377,224.345077 C151.168831,224.500656 149.558442,224.345077 148.25974,224.863676 C146.38961,225.641575 144.519481,224.656236 142.649351,225.226696 C141.714286,225.485996 140.519481,225.019256 139.480519,224.863676 C137.87013,224.604376 136.311688,224.241357 134.701299,224.137637 C130.961039,223.930197 127.532468,222.581838 124.051948,221.440919 C121.714286,220.71488 119.428571,219.7814 117.298701,218.692341 C114.961039,217.499562 112.779221,216.047484 110.545455,214.699125 C107.688312,212.987746 105.350649,210.705908 103.012987,208.37221 C101.61039,206.971991 100.415584,205.364333 99.1688312,203.808534 C99.012987,203.601094 99.1168831,202.875055 99.3766234,202.719475 C103.428571,199.659737 107.428571,196.70372 111.480519,193.747702 C111.480519,193.747702 111.532468,193.747702 111.480519,193.747702 Z M118.701299,102.837199 C118.597403,103.252079 118.493506,103.666958 118.337662,104.081838 C118.285714,104.237418 118.233766,104.392998 118.233766,104.548578 C115.844156,114.401969 117.922078,126.277899 131.896104,133.590153 C129.714286,133.953173 127.532468,134.316193 125.350649,134.679212 C121.194805,135.405252 117.038961,135.405252 112.831169,135.457112 C111.272727,135.457112 110.337662,135.094092 109.402597,133.745733 C107.532468,130.893435 105.714286,128.092998 104.623377,124.877681 C104.519481,124.514661 104.363636,124.099781 104.25974,123.736761 C104.207792,123.581182 104.155844,123.425602 104.103896,123.270022 C103.948052,122.751422 103.792208,122.232823 103.636364,121.714223 C103.636364,121.714223 103.688312,121.662363 103.688312,121.662363 C103.688312,121.610503 103.636364,121.558643 103.584416,121.506783 C103.272727,119.484245 102.857143,117.409847 102.649351,115.387309 C102.441558,113.46849 102.285714,111.549672 102.38961,109.630853 C102.493506,107.660175 102.857143,105.637637 103.116883,103.666958 C103.168831,103.511379 103.220779,103.303939 103.272727,103.148359 C103.324675,102.889059 103.324675,102.681619 103.376623,102.422319 C103.428571,102.3186 103.428571,102.26674 103.480519,102.16302 C103.532468,101.90372 103.584416,101.64442 103.636364,101.38512 C103.636364,101.38512 103.688312,101.33326 103.688312,101.33326 C103.688312,101.2814 103.688312,101.22954 103.688312,101.177681 C104.623377,98.6365427 105.350649,95.9398249 106.545455,93.554267 C109.506494,87.7978118 113.818182,83.2859956 119.168831,79.6039387 C123.428571,76.6997812 128.155844,74.7809628 133.038961,73.2251641 C134.961039,72.6028446 136.883117,72.3954048 138.857143,72.0323851 C140.831169,71.6693654 142.857143,71.5137856 144.831169,71.2544858 C145.350649,71.2026258 145.87013,70.8914661 146.38961,70.7358862 C146.597403,70.6840263 146.805195,70.6840263 147.012987,70.6840263 C148.623377,70.6840263 150.233766,70.5284464 151.792208,70.7358862 C153.246753,70.8914661 154.649351,71.6175055 156.155844,70.8914661 C157.506494,72.0842451 159.272727,71.7212254 160.831169,71.9805252 C169.506494,73.4844639 177.402597,76.6997812 184.311688,82.0932166 C186.545455,83.8564551 188.363636,86.0864333 190.38961,88.1089716 C190.545455,88.2645514 190.649351,88.5238512 190.805195,88.783151 C186.909091,91.9466083 183.012987,95.0582057 179.168831,98.1698031 C177.662338,96.4584245 176.25974,94.7989059 174.753247,93.2431072 C171.948052,90.3389497 168.571429,88.2126915 164.831169,86.7087527 C162.12987,85.6196937 159.272727,84.9973742 156.467532,84.2194748 C155.792208,84.012035 155.064935,84.012035 154.337662,83.9083151 C154.181818,83.9083151 154.025974,83.8564551 153.87013,83.8564551 C150.961039,83.8045952 148,83.8045952 145.090909,83.7527352 C144.727273,83.8045952 144.415584,83.8564551 144.051948,83.9083151 C142.805195,84.1157549 141.558442,84.3231947 140.311688,84.5306346 C140.207792,84.5824945 140.103896,84.5824945 140.051948,84.6343545 C139.480519,84.7899344 138.909091,84.9455142 138.285714,85.1010941 C138.233766,85.1010941 138.12987,85.152954 138.077922,85.152954 C130.337662,87.3310722 124.311688,91.6873085 120.363636,98.7402626 C119.74026,99.8811816 119.376623,101.125821 118.909091,102.3186 C118.805195,102.526039 118.753247,102.681619 118.701299,102.837199 Z M92.2077922,45.7912473 C92.2597403,45.9986871 92.3116883,46.154267 92.3116883,46.3617068 C92.3636364,48.1768053 92.3636364,49.9919037 92.4155844,51.8070022 C92.3636364,51.8588621 92.3636364,51.9625821 92.4155844,52.066302 C92.3116883,52.1181619 92.2597403,52.1700219 92.1558442,52.2218818 C88.6753247,51.2365427 85.2467532,50.2512035 81.7662338,49.2658643 C81.5064935,49.2140044 81.1948052,49.1621444 80.9350649,49.1102845 C80.8311688,49.0065646 80.7792208,48.9547046 80.6753247,48.8509847 C80.3636364,48.5916849 80.0519481,48.3323851 79.7402597,48.0730853 C79.7922078,47.5026258 79.7922078,46.9321663 79.8441558,46.3617068 C79.8441558,45.0133479 79.8441558,43.6649891 79.8441558,42.1091904 C82.8571429,42.9908096 85.6623377,43.8205689 88.5194805,44.6503282 C89.6623377,44.961488 90.8051948,45.2726477 91.8961039,45.5838074 C92,45.6875274 92.1038961,45.7393873 92.2077922,45.7912473 Z M92,37.804814 C92,39.7236324 92,41.5387309 92,43.5612691 C91.5844156,43.5094092 91.0649351,43.5094092 90.5974026,43.4056893 C87.3246753,42.4203501 84.1038961,41.383151 80.8311688,40.4496718 C80.1038961,40.2422319 79.8441558,40.0347921 79.8961039,39.1531729 C80.0519481,37.6492341 79.9480519,36.0934354 79.9480519,34.278337 C84,35.471116 87.8961039,36.612035 92,37.804814 Z M80.3116883,27.121663 C82.5454545,27.7958425 84.6753247,28.4181619 86.8571429,29.0404814 C88.2077922,29.4553611 89.5584416,29.8183807 90.8571429,30.2332604 C91.1688312,30.3369803 91.6363636,30.64814 91.6363636,30.9592998 C91.7922078,32.4113786 91.8441558,33.9153173 91.9480519,35.7304158 C90.8051948,35.471116 89.8701299,35.2636761 88.987013,35.0043764 C86.4415584,34.226477 83.8961039,33.3448578 81.2987013,32.6706783 C80.2077922,32.4113786 79.9480519,31.892779 80,30.9592998 C80.1038961,29.7665208 80.2077922,28.5218818 80.3116883,27.121663 Z M90.9090909,23.595186 C91.1168831,24.0619256 91.3766234,24.5286652 91.5844156,24.9435449 C91.5844156,24.9954048 91.5324675,24.9954048 91.5324675,25.0472648 C91.5324675,25.0991247 91.5844156,25.1509847 91.6363636,25.2028446 C91.6363636,26.1881838 91.6363636,27.173523 91.6363636,28.366302 C90.4935065,28.1070022 89.3506494,27.8995624 88.2597403,27.5365427 C85.9220779,26.8623632 83.5844156,26.0326039 81.1948052,25.3584245 C80.4675325,25.1509847 80.1558442,24.736105 80.2597403,24.0619256 C80.3636364,22.9210066 80.4675325,21.7282276 80.6233766,20.5354486 C83.9480519,21.4689278 87.2727273,22.454267 90.6493506,23.4396061 C90.7532468,23.543326 90.8571429,23.543326 90.9090909,23.595186 Z M79.6883117,7.05185996 C83.8441558,7.05185996 88,7.05185996 92.1558442,7 C92.7792208,7.67417943 93.0909091,9.33369803 92.6233766,10.0597374 C92.4675325,10.3190372 92.0519481,10.4746171 91.7402597,10.4746171 C87.8441558,10.4746171 83.9480519,10.526477 80.0519481,10.4746171 C78.961039,10.4746171 78.3896104,8.71137856 79.1168831,7.57045952 C79.3246753,7.36301969 79.5324675,7.20743982 79.6883117,7.05185996 Z M80.9350649,15.1938731 C84.4675325,16.2829322 87.8961039,17.3201313 91.3766234,18.3573304 C91.3766234,19.4463895 91.3766234,20.4835886 91.3766234,21.7282276 C90.6493506,21.5207877 89.9220779,21.3652079 89.2467532,21.209628 C86.8571429,20.5354486 84.4155844,19.8094092 82.0779221,19.0833698 C80.4675325,18.5647702 80.2077922,17.9943107 80.6233766,16.3866521 C80.6753247,16.0236324 80.7792208,15.6606127 80.9350649,15.1938731 Z M81.7142857,13.3787746 C80.7272727,13.1713348 80.8831169,12.4452954 80.987013,11.5636761 C84.3116883,11.5636761 87.5844156,11.5636761 90.9090909,11.5636761 C91.012987,11.6155361 91.1168831,11.6673961 91.2207792,11.771116 C91.2727273,12.8601751 91.2727273,13.9492341 91.3246753,15.0382932 C91.3246753,15.1938731 91.3246753,15.4013129 91.3246753,15.5568928 C91.0649351,15.7124726 90.7532468,16.0754923 90.4935065,16.0236324 C88.6233766,15.5568928 86.7012987,15.0382932 84.8311688,14.5196937 C83.8441558,14.2603939 82.8571429,13.8973742 81.8701299,13.5862144 C81.8181818,13.4824945 81.7662338,13.4306346 81.7142857,13.3787746 Z" id="IconBlack" fill="#232323"></path>
    </g>
</svg>