<svg xmlns="http://www.w3.org/2000/svg" width="250" height="250"><path fill="#e1bb34" fill-rule="evenodd" d="M78.2857143 93.9172867c.051948-2.1781182.1558441-4.3043764.2077922-6.4824946.051948-.4148796.051948-.8297593.1038961-1.2446389.051948-2.0743983.1038961-4.1487965.1558442-6.2231948.051948-.9334792.051948-1.8150984.1038961-2.7485777.051948-1.2964989.1558441-2.5929978.051948-3.8894967-.051948-.4667396-.5194805-.8816192-.8311688-1.3483588-.0519481-.1037199-.0519481-.2074399-.1038961-.3111598-.1558442-.4667396-.2597403-.9853391-.4155844-1.4520787-.0519481-.10372-.1038961-.1555799-.1038961-.2592998-.0519481-.1555799-.1038961-.3111598-.1038961-.4667396-.0519481-.1037199-.1038962-.1555799-.1038962-.2592998-.6753246-2.2299781-1.6103896-4.2006565-4.2077922-4.719256-.1038961-.05186-.2077922-.05186-.3116883-.1037199-.5194805-.05186-1.0909091-.10372-1.6103896-.1555799-.3116883 0-.5714286-.05186-.8831169-.05186h-3.7922078c-.1038961.05186-.1558441.05186-.2597402.1037199-.4155844.10372-.8311688.2592998-1.2467533.3630197-.051948.05186-.1038961.1037199-.2077922.1555799-1.8701298 1.4002188-2.1298701 2.8004376-.8311688 5.3934355-1.6103896.8297593-3.5844156.6223194-4.987013-.8297593-.8831169-.8816193-1.4545454-2.0743983-2.1298701-3.1115974-.1558442-.2592998-.3116883-.5185996-.4675325-.7778994-.1038961-.3111597-.2077922-.6223194-.3116883-.9853391V62.749453c.4675325-1.5039388 1.4545455-2.7485777.8831169-4.6155362-.935065-3.1115973 2.4935065-7.4159737 5.974026-6.6380743-1.4025974 2.6967177-.0519481 5.1859956 3.064935 5.6008752.2597403.05186.5194805.1037199.7792208.1037199h8.7272727c.5194805-.0518599 1.0389611-.1037199 1.5064935-.1555798 1.5584416-.3111598 3.1688312-.6223195 4.7272728-.9334792-2.2337663-.5185996-2.2337663-.5185996-2.2337663-2.8004377v-2.6967177c.3636364 0 .6233767-.05186.8831169 0C84 51.7551422 87.6883117 52.8960613 91.4285714 54.0369803c.6753247.2074398 1.0909091.5185996.987013 1.244639-.6753247.2592997-1.3506493.4667396-2.1298701.7778993 1.1948052.8816193 2.5454545.8297593 3.8441558.9853392h.5194805l.1038962.0518599h.1038961c.4155844.05186.8831168.1037199 1.2987013.1555799 3.064935 0 6.1298698 0 9.1948048-.05186.363637-.0518599.675325-.1037199 1.038961-.1555798 1.766234-.6741795 3.376624-1.5557987 3.22078-3.8376368-.051948-.6223195-.311689-1.2446389-.467533-1.8150985 2.493507-.3111597 5.090909 1.5557987 5.662338 4.3043764.155844.6223195.415584 1.4002188.207792 1.9188184-.623377 1.5039387 0 2.8004376.311688 4.2006564.779221 3.0078775-.155844 5.6527353-2.337662 7.8308534-1.090909 1.0890591-3.896104 1.3483589-5.090909.5704596.831169-1.296499 1.090909-2.6967178.51948-4.0969366-.51948-1.2964989-1.714285-1.8669584-3.012987-1.8669584-2.285714.0518599-4.571428.3111597-6.8571425.4148796-1.4025974.05186-2.1298701 1.1409191-2.6493506 2.1262582-.8311688 1.5039388-1.3506494 3.2153173-2.025974 4.822976-.1558442.4148796-.4675325.7778993-.7272728 1.140919 0 .1555799-.051948.3111597-.051948.5185996 0 .3111597.051948.6223194.051948.9334792.1038961.0518599.1558442.1037199.2597403.1555799 7.1688316 0 14.3376626 0 21.5064936.0518599h7.480519c.155845.2592998.311689.5185996.467533.7778994-3.272727 1.6595186-6.233766 3.6820568-9.038961 6.0676148-4 3.3708972-6.961039 7.4678337-9.298701 12.0833698-.467533.8816193-.727273 1.8669585-1.09091 2.7485777-.103896.1037199-.155844.1555799-.25974.2592998-3.012987 0-5.9740258.05186-8.9870128.05186-.0519481 1.0371991-.1558442 2.1262582-.2077922 3.1634573.051948 1.4002191.1038961 2.8522971.1558441 4.2525161.0519481 1.555799.1038961 3.111598.1038961 4.719256.0519481.5186.0519481.985339.1038961 1.503939 0 .15558 0 .31116.0519481.46674v2.022538c.051948.881619.051948 1.815098.1038961 2.696718.051948.933479.1038961 1.866958.1038961 2.748577v2.956018c0 .05186-.0519481.05186-.0519481.10372.0519481.05186.1038961.10372.1558442.20744.0519481 2.074398.1038961 4.148796.1558442 6.171334v1.452079c.051948.15558.051948.31116.1038961.46674.051948 2.178118.1038961 4.304376.1558441 6.482494.0519481.41488.0519481.82976.1038961 1.244639.4155844.15558.8311689.36302 1.2467533.41488h19.4805195c.467532 0 .987013-.10372 1.454545-.15558 1.090909-.05186 2.181819-.05186 3.272728-.10372.51948-.05186.987013-.10372 1.506493-.15558 2.025974-.311159 4-.570459 6.025974-.881619.155844-.05186.311689-.05186.467533-.10372.155844-.05186.311688-.05186.51948-.10372.155844-.05186.363637-.10372.519481-.15558.25974-.05186.51948-.15558.77922-.20744.103897 0 .259741-.051859.363637-.051859.103896-.05186.207792-.05186.311688-.10372.155844-.05186.311688-.10372.467533-.10372.207792-.05186.363636-.15558.571428-.20744l.103896.05186.051948-.10372c.103896-.05186.207793-.05186.311689-.10372l.467532-.15558c.103896-.05186.207792-.05186.311688-.10372.155845-.05186.259741-.10372.415585-.15558.103896-.05186.207792-.10372.311688-.10372.103896-.05186.155844-.05186.25974-.103719 3.22078-1.244639 6.077923-3.059738 8.207793-5.808316.103896 0 .155844-.05186.155844-.155579l.623376-.93348c.051948-.10372.103897-.207439.155845-.311159.623376-1.089059 1.194805-2.229979 1.818181-3.319038.051948-.155579.103897-.311159.155845-.414879 0-.10372.051948-.20744.051948-.31116l.155844-.46674c0-.10372.051948-.207439.051948-.311159.051948-.20744.103896-.46674.155844-.67418 0-.10372.051948-.20744.051948-.311159v-.41488-.829759c.155844-.41488.25974-.7779.415584-1.192779.051948-.36302.051948-.67418.103897-1.0372v-3.422757c-.051949-.363019-.051949-.726039-.103897-1.037199s-.103896-.622319-.155844-.933479c-.051948-.2593-.103896-.5186-.155844-.829759-.051948-.15558-.051948-.2593-.103896-.41488 0-.10372-.051948-.20744-.051948-.31116-.051948-.20744-.103896-.466739-.207792-.674179-.051948-.10372-.051948-.20744-.103896-.31116-.051948-.05186-.103896-.10372-.155844-.20744l-.051949-.05186c-.051948-.259299-.103896-.518599-.155844-.777899-.987013-2.592998-2.753246-4.667396-4.831169-6.482495 0-.103719-.051948-.155579-.155844-.103719-.987013-.62232-1.974026-1.296499-2.961039-1.918819-.571428-.36302-1.194805-.6223193-1.766233-.933479-.051948-.05186-.155845-.05186-.207793-.1037199-.103896-.05186-.207792-.10372-.311688-.1555799l-.051948-.1037199-.103896.0518599c-.155844-.0518599-.363636-.1555798-.519481-.2074398-.103896-.0518599-.155844-.0518599-.25974-.1037199-.103896-.05186-.207792-.05186-.311688-.1037199-.155844-.05186-.311688-.1037199-.415585-.1555799-.103896-.0518599-.207792-.0518599-.25974-.1037199-.051948 0-.103896-.05186-.155844-.05186-.25974-.1037199-.519481-.1555798-.727273-.2592997-.103896-.05186-.207792-.05186-.311688-.1037199-.103896-.05186-.207792-.05186-.311688-.10372-.103896 0-.259741-.0518599-.363637-.0518599-.25974-.05186-.51948-.1555799-.779221-.2074398h-.571428c-.987013-.2592998-1.974026-.5185996-2.961039-.7260394-.155844-.05186-.311688-.05186-.467533-.1037199-.363636-.05186-.675324-.10372-1.038961-.1555799-.155844 0-.311688-.05186-.467532-.05186-.207792-.1037199-.467532-.1555798-.935065-.3630197 1.454546-1.4520787 2.701299-2.9560175 4.207792-4.1487965 3.272728-2.5411378 6.909091-4.4080962 10.961039-5.4971553 4.467533-1.192779 8.935065-1.8150985 13.558442-1.1409191 1.818182.2592998 3.636363.5185996 5.402597.7260394 1.506494.1555799 2.597403.8816193 3.584416 2.0225383 1.506493 1.8150985 3.376623 3.3190372 4.623376 5.2378556 1.506494 2.385558 2.701299 4.9785558 3.844156 7.571554.727273 1.607658 1.194805 3.319037 1.558442 5.030415.363636 1.711379.623376 3.474617.727273 5.185996.155844 2.074398.363636 4.148796.25974 6.171335-.25974 5.185995-1.090909 10.268271-3.168831 15.091247-4.727273 10.942451-13.298702 17.580525-24.311689 21.418162-.987013.36302-1.974026.622319-2.961039.933479-.935065.2593-1.922078.5186-3.168831.829759 9.402598 15.557987 18.701299 31.012254 28.103896 46.570241-4.311688 3.526477-9.246753 5.860175-14.753246 6.793654-2.649351.46674-5.35065.46674-8.051949.7779-2.545454.31116-4.207792-.5186-5.350649-2.956018-1.454545-3.215317-3.272727-6.223194-4.935065-9.334792-1.714286-3.111597-3.532467-6.171335-5.246753-9.282932-1.714286-3.111597-3.272727-6.223195-4.987013-9.334792-1.766234-3.215317-3.584416-6.430635-5.350649-9.645952-1.558442-2.852298-3.116884-5.652735-4.571429-8.556893-.779221-1.555798-1.61039-2.333698-3.532468-2.229978-4.623376.15558-9.194805.05186-13.8181813.05186-.4675325 0-1.1948052-.20744-.8831169.777899.051948 1.400219.1558441 2.800438.2077922 4.252517 0 .933479.0519481 1.815098.0519481 2.748578 0 .051859-.0519481.051859 0 .103719 0 .05186.051948.10372.051948.15558 0 .57046.0519481 1.192779.0519481 1.763239.051948 1.244639.1038961 2.489278.1038961 3.682057 0 .933479.051948 1.815098.051948 2.748577 0 .67418.0519481 1.400219.0519481 2.074399v1.089059c.051948.829759.051948 1.711378.1038961 2.541138 0 .726039.051948 1.503938.051948 2.229978.0519481 1.763238.1038961 3.474617.1558442 5.237855 0 .933479.051948 1.815099.051948 2.748578.0519481 1.037199.0519481 2.022538.1038961 3.059737.0519481 1.452079.1038961 2.956018.1558442 4.408097.051948 1.348359.1038961 2.644857.1558441 3.993216.0519481 1.348359.0519481 2.644858.1038961 3.993217.0519481.829759.0519481 1.659519.1038962 2.541138.051948 1.711378.1038961 3.474617.1558441 5.185995 0 1.140919-.051948 2.333698-.051948 3.474617-3.7922078 8.556893-7.6363637 17.165646-11.4285715 25.774399-.5194805-1.089059-.987013-2.126259-1.5064935-3.163458-.051948-.05186-.051948-.155579-.1038961-.207439-.6233766-1.400219-1.2467532-2.852298-1.8701299-4.252517-.051948-.10372-.1038961-.15558-.1038961-.2593-1.2987013-2.904157-2.5454545-5.808315-3.8441558-8.712472-.0519481-.10372-.1038961-.15558-.1558442-.2593-.5714285-1.244639-1.090909-2.489278-1.6623376-3.733917-.0519481-.05186-.0519481-.10372-.1038961-.20744-.6753247-1.607658-1.4025974-3.163457-2.0779221-4.771116-.0519481-.10372-.1038961-.15558-.1038961-.2593 0-.829759.051948-1.607658.051948-2.437417 0-.2593.0519481-.5186.0519481-.7779.051948-1.970678.1038961-3.993216.1558442-5.963895.051948-.674179.051948-1.348359.1038961-1.970678.051948-1.815099.1038961-3.630197.1038961-5.497155.051948-.67418.051948-1.348359.1038961-1.970679.051948-1.918818.1038961-3.837637.1038961-5.704595.051948-1.244639.051948-2.437418.1038961-3.682057.051948-1.400219.1038961-2.852297.1558441-4.252516.0519481-1.503939.1038961-3.007878.1558442-4.459957.051948-1.555798.1038961-3.163457.1038961-4.719256.051948-.829759.1038961-1.659518.1038961-2.489277.051948-1.970679.1038961-3.993217.1558441-5.963895.0519481-.93348.1038962-1.815099.1038962-2.748578.051948-1.555799.1038961-3.163457.1038961-4.719256v-.777899-1.192779c.051948-.15558.1038961-.36302.1038961-.5186.051948-2.333698.1038961-4.667396.1038961-6.949234 0-.15558.051948-.31116.051948-.5186.0519481-2.178118.1038961-4.304376.1558442-6.482494v-.72604-.363019c.051948-.10372.051948-.20744.1038961-.36302.051948-1.918818.1038961-3.837637.1558441-5.756455v-.5186-1.089059c0-.20744.0519481-.414879.0519481-.622319.051948-1.659519.1038961-3.370897.1558441-5.030416v-.726039-1.089059c.0519481-.62232.0519481-1.244639.1038961-1.866959.0519481-1.503939.1038961-3.007877.1558442-4.511816v-1.763239l.0519481-.05186-.0519481-.05186c0-.518599.0519481-1.037199.0519481-1.607658.051948-2.074398.1038961-4.200657.2077922-6.275055 0-.41488 0-.829759.051948-1.192779 0-.10372.0519481-.20744.0519481-.2593.051948-2.229978.1038961-4.459956.1558441-6.689934 0-.10372.0519481-.20744.0519481-.2593.051948-2.229978.1558441-4.511816.2077922-6.7417941.2077922-.5704595.2077922-1.2964989.2077922-2.0743982zm33.1948047 99.8304153c1.714286 2.126259 3.22078 4.304377 5.038962 6.223195 5.922077 6.119475 13.038961 10.060832 21.506493 11.46105 9.766234 1.659519 18.961039.10372 27.376623-5.185995 14.649351-9.231072 14.701299-26.396718 9.194806-35.83523-2.753247-4.667396-6.805195-7.934573-11.532468-10.268271-4.207792-2.074398-8.623377-3.785777-12.883117-5.600876.363637-.207439.883117-.518599 1.454546-.777899 4.363636-2.126258 8.415584-4.719256 11.740259-8.297593.467533-.466739.779221-.466739 1.402598-.2593 1.454545.57046 3.012987.98534 4.467532 1.555799.675325.2593 1.142857.881619 1.766234 1.192779 5.974026 3.059737 11.480519 6.793654 15.480519 12.34267 3.272728 4.563676 5.35065 9.697811 5.922078 15.298687.363637 3.215317.363637 6.430634.519481 9.645952.051948 1.037199.207792 2.074398.103896 3.059737-.051948.674179-.51948 1.296499-.623377 1.970678-.311688 1.763239-.415584 3.526477-.831168 5.237856-.259741 1.089059-.987013 2.126258-1.454546 3.163457-.51948 1.192779-.987013 2.385558-1.454545 3.526477-.103896.2593-.103896.57046-.259741.7779-1.402597 2.074398-2.857142 4.148796-4.311688 6.223194-.103896.15558-.311688.2593-.467532.41488-1.87013 1.607659-3.688312 3.319037-5.558442 4.874836-.987013.829759-2.181818 1.452079-3.220779 2.281838-2.077922 1.711379-4.623377 2.489278-7.012987 3.578337-5.402598 2.437418-10.441559 3.474617-15.220779 3.993217-1.454546.155579-3.064935 0-4.363637.518599-1.87013.777899-3.740259-.20744-5.610389.36302-.935065.2593-2.12987-.20744-3.168832-.36302-1.610389-.2593-3.168831-.622319-4.77922-.726039-3.74026-.20744-7.168831-1.555799-10.649351-2.696718-2.337662-.726039-4.623377-1.659519-6.753247-2.748578-2.337662-1.192779-4.51948-2.644857-6.753246-3.993216-2.857143-1.711379-5.194806-3.993217-7.532468-6.326915-1.402597-1.400219-2.597403-3.007877-3.8441558-4.563676-.1558442-.20744-.0519481-.933479.2077922-1.089059 4.0519476-3.059738 8.0519476-6.015755 12.1038956-8.971773 0 0 .051949 0 0 0zm7.22078-90.910503c-.103896.41488-.207793.829759-.363637 1.244639-.051948.15558-.103896.31116-.103896.46674-2.38961 9.853391-.311688 21.729321 13.662338 29.041575-2.181818.36302-4.363636.72604-6.545455 1.089059-4.155844.72604-8.311688.72604-12.51948.7779-1.558442 0-2.493507-.36302-3.428572-1.711379-1.870129-2.852298-3.688311-5.652735-4.77922-8.868052-.103896-.36302-.259741-.7779-.363637-1.14092-.051948-.155579-.103896-.311159-.155844-.466739-.155844-.5186-.311688-1.037199-.467532-1.555799l.051948-.05186c0-.05186-.051948-.10372-.103896-.15558-.311689-2.022538-.727273-4.096936-.935065-6.119474-.207793-1.918819-.363637-3.837637-.259741-5.756456.103896-1.970678.467533-3.993216.727273-5.963895.051948-.155579.103896-.363019.155844-.518599.051948-.2593.051948-.46674.103896-.72604.051948-.103719.051948-.155579.103896-.259299.051949-.2593.103897-.5186.155845-.7779l.051948-.05186v-.155579c.935065-2.5411383 1.662337-5.2378561 2.857143-7.623414 2.961039-5.7564552 7.272727-10.2682714 12.623376-13.9503283 4.25974-2.9041575 8.987013-4.8229759 13.87013-6.3787746 1.922078-.6223195 3.844156-.8297593 5.818182-1.192779 1.974026-.3630197 4-.5185995 5.974026-.7778993.51948-.05186 1.038961-.3630197 1.558441-.5185996.207793-.0518599.415585-.0518599.623377-.0518599 1.61039 0 3.220779-.1555799 4.779221.0518599 1.454545.1555799 2.857143.8816193 4.363636.1555799 1.35065 1.192779 3.116883.8297593 4.675325 1.0890591 8.675325 1.5039387 16.571428 4.719256 23.480519 10.1126914 2.233767 1.7632385 4.051948 3.9932167 6.077922 6.015755.155845.1555798.259741.4148796.415585.6741794-3.896104 3.1634573-7.792208 6.2750547-11.636364 9.3866521-1.506493-1.7113786-2.909091-3.3708972-4.415584-4.9266959-2.805195-2.9041575-6.181818-5.0304157-9.922078-6.5343545-2.701299-1.089059-5.558442-1.7113785-8.363637-2.4892779-.675324-.2074398-1.402597-.2074398-2.12987-.3111597-.155844 0-.311688-.05186-.467532-.05186-2.909091-.0518599-5.87013-.0518599-8.779221-.1037199-.363636.05186-.675325.1037199-1.038961.1555799-1.246753.2074398-2.493506.4148796-3.74026.6223195-.103896.0518599-.207792.0518599-.25974.1037199-.571429.1555799-1.142857.3111597-1.766234.4667396-.051948 0-.155844.0518599-.207792.0518599-7.74026 2.1781182-13.766234 6.5343545-17.714286 13.5873086-.623376 1.140919-.987013 2.3855584-1.454545 3.5783374-.103896.207439-.155844.363019-.207792.518599zM92.2077922 45.7912473c.0519481.2074398.1038961.3630197.1038961.5704595.0519481 1.8150985.0519481 3.6301969.1038961 5.4452954-.051948.0518599-.051948.1555799 0 .2592998-.1038961.0518599-.1558441.1037199-.2597402.1555798-3.4805195-.9853391-6.909091-1.9706783-10.3896104-2.9560175-.2597403-.0518599-.5714286-.1037199-.8311689-.1555798-.1038961-.1037199-.1558441-.1555799-.2597402-.2592998-.3116883-.2592998-.6233766-.5185996-.935065-.7778994.0519481-.5704595.0519481-1.140919.1038961-1.7113785v-4.2525164c3.0129871.8816192 5.8181819 1.7113785 8.6753247 2.5411378 1.1428572.3111598 2.2857143.6223195 3.3766234.9334792.1038961.10372.2077922.1555799.3116883.2074399zM92 37.804814v5.7564551c-.4155844-.0518599-.9350649-.0518599-1.4025974-.1555798-3.2727273-.9853392-6.4935065-2.0225383-9.7662338-2.9560175-.7272727-.2074399-.987013-.4148797-.9350649-1.2964989.1558442-1.5039388.051948-3.0597375.051948-4.8748359C84 35.471116 87.8961039 36.612035 92 37.804814zM80.3116883 27.121663c2.2337662.6741795 4.3636364 1.2964989 6.5454546 1.9188184 1.3506493.4148797 2.7012987.7778993 4 1.192779.3116883.1037199.7792207.4148796.7792207.7260394.1558442 1.4520788.2077922 2.9560175.3116883 4.771116-1.1428571-.2592998-2.077922-.4667397-2.9610389-.7260394-2.5454546-.7778994-5.0909091-1.6595186-7.6883117-2.3336981C80.2077922 32.4113786 79.9480519 31.892779 80 30.9592998c.1038961-1.192779.2077922-2.437418.3116883-3.8376368zm10.5974026-3.526477c.2077922.4667396.4675325.9334792.6753247 1.3483589 0 .0518599-.0519481.0518599-.0519481.1037199 0 .0518599.0519481.1037199.1038961.1555798v3.1634574c-1.1428571-.2592998-2.2857142-.4667396-3.3766233-.8297593-2.3376624-.6741795-4.6753247-1.5039388-7.0649351-2.1781182-.7272727-.2074398-1.038961-.6223195-.9350649-1.2964989.1038961-1.140919.2077922-2.333698.3636363-3.526477 3.3246753.9334792 6.6493507 1.9188184 10.025974 2.9041575.1038962.1037199.2077923.1037199.2597403.1555799zM79.6883117 7.05185996c4.1558441 0 8.3116883 0 12.4675325-.05185996.6233766.67417943.9350649 2.33369803.4675324 3.0597374-.1558441.2592998-.5714285.4148797-.8831169.4148797-3.8961039 0-7.7922078.0518599-11.6883116 0-1.0909091 0-1.6623377-1.76323854-.935065-2.90415758.2077922-.20743983.4155844-.3630197.5714286-.51859956zm1.2467532 8.14201314c3.5324676 1.0890591 6.961039 2.1262582 10.4415585 3.1634573v3.3708972c-.7272728-.2074399-1.4545455-.3630197-2.1298702-.5185996-2.3896103-.6741794-4.8311688-1.4002188-7.1688311-2.1262582-1.6103896-.5185996-1.8701299-1.0890591-1.4545455-2.6967177.0519481-.3630197.1558442-.7260394.3116883-1.192779zm.7792208-1.8150985c-.987013-.2074398-.8311688-.9334792-.7272727-1.8150985h9.9220779c.1038961.05186.2077922.10372.3116883.2074399.0519481 1.0890591.0519481 2.1781181.1038961 3.2671772v.5185996c-.2597402.1555798-.5714285.5185995-.8311688.4667396-1.8701299-.4667396-3.7922078-.9853392-5.6623377-1.5039387-.987013-.2592998-1.9740259-.6223195-2.9610389-.9334793-.0519481-.1037199-.1038961-.1555798-.1558442-.2074398z"/></svg>
