<?xml version="1.0" encoding="utf-8"?>
<!-- Generator: Adobe Illustrator 19.0.0, SVG Export Plug-In . SVG Version: 6.00 Build 0)  -->
<svg version="1.1" id="Layer_1" xmlns="http://www.w3.org/2000/svg" xmlns:xlink="http://www.w3.org/1999/xlink" x="0px" y="0px"
	 viewBox="0 0 1558.4 484.5" style="enable-background:new 0 0 1558.4 484.5;" xml:space="preserve">
<style type="text/css">
	.st0{fill:#232323;}
	.st1{fill:#E1E1E1;}
	.st2{fill:#CECDCD;}
	.st3{fill:#222222;}
	.st4{fill:#232222;}
	.st5{fill:#242424;}
	.st6{fill:#2A2A2A;}
	.st7{fill:#2C2C2C;}
	.st8{fill:#2E2E2E;}
	.st9{fill:#333333;}
	.st10{fill:#919090;}
	.st11{fill:#DEDCDC;}
	.st12{fill:#979696;}
	.st13{fill:#BAB9B9;}
	.st14{fill:#C8C7C7;}
	.st15{fill:#BEBEBE;}
	.st16{fill:#ABAAAA;}
	.st17{fill:#A5A4A3;}
	.st18{fill:#EAE9E9;}
	.st19{fill:#EDECEB;}
</style>
<g id="XMLID_1_">
	<path id="XMLID_400_" class="st0" d="M53.7,181.4c0.1-4.2,0.3-8.3,0.4-12.5c0.1-0.8,0.1-1.6,0.2-2.4c0.1-4,0.2-8,0.3-12
		c0.1-1.8,0.1-3.5,0.2-5.3c0.1-2.5,0.3-5,0.1-7.5c-0.1-0.9-1-1.7-1.6-2.6c-0.1-0.2-0.1-0.4-0.2-0.6c-0.3-0.9-0.5-1.9-0.8-2.8
		c-0.1-0.2-0.2-0.3-0.2-0.5c-0.1-0.3-0.2-0.6-0.2-0.9c-0.1-0.2-0.2-0.3-0.2-0.5c-1.3-4.3-3.1-8.1-8.1-9.1c-0.2-0.1-0.4-0.1-0.6-0.2
		c-1-0.1-2.1-0.2-3.1-0.3c-0.6,0-1.1-0.1-1.7-0.1c-2.4,0-4.9,0-7.3,0c-0.2,0.1-0.3,0.1-0.5,0.2c-0.8,0.2-1.6,0.5-2.4,0.7
		c-0.1,0.1-0.2,0.2-0.4,0.3c-3.6,2.7-4.1,5.4-1.6,10.4c-3.1,1.6-6.9,1.2-9.6-1.6c-1.7-1.7-2.8-4-4.1-6c-0.3-0.5-0.6-1-0.9-1.5
		c-0.2-0.6-0.4-1.2-0.6-1.9c0-1.1,0-2.2,0-3.4c0.9-2.9,2.8-5.3,1.7-8.9c-1.8-6,4.8-14.3,11.5-12.8c-2.7,5.2-0.1,10,5.9,10.8
		c0.5,0.1,1,0.2,1.5,0.2c5.6,0,11.2,0,16.8,0c1-0.1,2-0.2,2.9-0.3c3-0.6,6.1-1.2,9.1-1.8c-4.3-1-4.3-1-4.3-5.4c0-1.7,0-3.3,0-5.2
		c0.7,0,1.2-0.1,1.7,0c7.1,2.2,14.2,4.4,21.4,6.6c1.3,0.4,2.1,1,1.9,2.4c-1.3,0.5-2.6,0.9-4.1,1.5c2.3,1.7,4.9,1.6,7.4,1.9
		c0.3,0,0.6,0,1,0l0.2,0.1l0.2,0c0.8,0.1,1.7,0.2,2.5,0.3c5.9,0,11.8,0,17.7-0.1c0.7-0.1,1.3-0.2,2-0.3c3.4-1.3,6.5-3,6.2-7.4
		c-0.1-1.2-0.6-2.4-0.9-3.5c4.8-0.6,9.8,3,10.9,8.3c0.3,1.2,0.8,2.7,0.4,3.7c-1.2,2.9,0,5.4,0.6,8.1c1.5,5.8-0.3,10.9-4.5,15.1
		c-2.1,2.1-7.5,2.6-9.8,1.1c1.6-2.5,2.1-5.2,1-7.9c-1-2.5-3.3-3.6-5.8-3.6c-4.4,0.1-8.8,0.6-13.2,0.8c-2.7,0.1-4.1,2.2-5.1,4.1
		c-1.6,2.9-2.6,6.2-3.9,9.3c-0.3,0.8-0.9,1.5-1.4,2.2c0,0.3-0.1,0.6-0.1,1c0,0.6,0.1,1.2,0.1,1.8c0.2,0.1,0.3,0.2,0.5,0.3
		c13.8,0,27.6,0,41.4,0.1c4.8,0,9.6,0,14.4,0c0.3,0.5,0.6,1,0.9,1.5c-6.3,3.2-12,7.1-17.4,11.7c-7.7,6.5-13.4,14.4-17.9,23.3
		c-0.9,1.7-1.4,3.6-2.1,5.3c-0.2,0.2-0.3,0.3-0.5,0.5c-5.8,0-11.5,0.1-17.3,0.1c-0.1,2-0.3,4.1-0.4,6.1c0.1,2.7,0.2,5.5,0.3,8.2
		c0.1,3,0.2,6,0.2,9.1c0.1,1,0.1,1.9,0.2,2.9c0,0.3,0,0.6,0.1,0.9c0,1.3,0,2.6,0,3.9c0.1,1.7,0.1,3.5,0.2,5.2
		c0.1,1.8,0.2,3.6,0.2,5.3c0,0.6,0,1.2,0,1.8c0,1.3,0,2.6,0,3.9c0,0.1-0.1,0.1-0.1,0.2c0.1,0.1,0.2,0.2,0.3,0.4
		c0.1,4,0.2,8,0.3,11.9c0,0.6,0,1.2,0,1.8c0,0.3,0,0.7,0,1c0.1,0.3,0.1,0.6,0.2,0.9c0.1,4.2,0.2,8.3,0.3,12.5
		c0.1,0.8,0.1,1.6,0.2,2.4c0,0,0,0,0,0c0.8,0.3,1.6,0.7,2.4,0.8c12.5,0,25,0,37.5,0c0.9,0,1.9-0.2,2.8-0.3c2.1-0.1,4.2-0.1,6.3-0.2
		c1-0.1,1.9-0.2,2.9-0.3c3.9-0.6,7.7-1.1,11.6-1.7c0.3-0.1,0.6-0.1,0.9-0.2c0.3-0.1,0.6-0.1,1-0.2c0.3-0.1,0.7-0.2,1-0.3
		c0.5-0.1,1-0.3,1.5-0.4c0.2,0,0.5-0.1,0.7-0.1c0.2-0.1,0.4-0.1,0.6-0.2c0.3-0.1,0.6-0.2,0.9-0.2c0.4-0.1,0.7-0.3,1.1-0.4
		c0,0,0.2,0.1,0.2,0.1l0.1-0.2c0.2-0.1,0.4-0.1,0.6-0.2c0.3-0.1,0.6-0.2,0.9-0.3c0.2-0.1,0.4-0.1,0.6-0.2c0.3-0.1,0.5-0.2,0.8-0.3
		c0.2-0.1,0.4-0.2,0.6-0.2c0.2-0.1,0.3-0.1,0.5-0.2c6.2-2.4,11.7-5.9,15.8-11.2c0.2,0,0.3-0.1,0.3-0.3c0.4-0.6,0.8-1.2,1.2-1.8
		c0.1-0.2,0.2-0.4,0.3-0.6c1.2-2.1,2.3-4.3,3.5-6.4c0.1-0.3,0.2-0.6,0.3-0.8c0-0.2,0.1-0.4,0.1-0.6c0.1-0.3,0.2-0.6,0.3-0.9
		c0-0.2,0.1-0.4,0.1-0.6c0.1-0.4,0.2-0.9,0.3-1.3c0-0.2,0.1-0.4,0.1-0.6c0-0.3,0-0.5,0-0.8c0-0.5,0-1,0-1.6c0.3-0.8,0.5-1.5,0.8-2.3
		c0.1-0.7,0.1-1.3,0.2-2c0-2.2,0-4.4,0-6.6c-0.1-0.7-0.1-1.4-0.2-2c-0.1-0.6-0.2-1.2-0.3-1.8c-0.1-0.5-0.2-1-0.3-1.6
		c-0.1-0.3-0.1-0.5-0.2-0.8c0-0.2-0.1-0.4-0.1-0.6c-0.1-0.4-0.2-0.9-0.4-1.3c-0.1-0.2-0.1-0.4-0.2-0.6c-0.1-0.1-0.2-0.2-0.3-0.4
		c0,0-0.1-0.1-0.1-0.1c-0.1-0.5-0.2-1-0.3-1.5c-1.9-5-5.3-9-9.3-12.5c0-0.2-0.1-0.3-0.3-0.2c-1.9-1.2-3.8-2.5-5.7-3.7
		c-1.1-0.7-2.3-1.2-3.4-1.8c-0.1-0.1-0.3-0.1-0.4-0.2c-0.2-0.1-0.4-0.2-0.6-0.3l-0.1-0.2l-0.2,0.1c-0.3-0.1-0.7-0.3-1-0.4
		c-0.2-0.1-0.3-0.1-0.5-0.2c-0.2-0.1-0.4-0.1-0.6-0.2c-0.3-0.1-0.6-0.2-0.8-0.3c-0.2-0.1-0.4-0.1-0.5-0.2c-0.1,0-0.2-0.1-0.3-0.1
		c-0.5-0.2-1-0.3-1.4-0.5c-0.2-0.1-0.4-0.1-0.6-0.2c-0.2-0.1-0.4-0.1-0.6-0.2c-0.2,0-0.5-0.1-0.7-0.1c-0.5-0.1-1-0.3-1.5-0.4
		c-0.4,0-0.7,0-1.1,0c-1.9-0.5-3.8-1-5.7-1.4c-0.3-0.1-0.6-0.1-0.9-0.2c-0.7-0.1-1.3-0.2-2-0.3c-0.3,0-0.6-0.1-0.9-0.1
		c-0.4-0.2-0.9-0.3-1.8-0.7c2.8-2.8,5.2-5.7,8.1-8c6.3-4.9,13.3-8.5,21.1-10.6c8.6-2.3,17.2-3.5,26.1-2.2c3.5,0.5,7,1,10.4,1.4
		c2.9,0.3,5,1.7,6.9,3.9c2.9,3.5,6.5,6.4,8.9,10.1c2.9,4.6,5.2,9.6,7.4,14.6c1.4,3.1,2.3,6.4,3,9.7c0.7,3.3,1.2,6.7,1.4,10
		c0.3,4,0.7,8,0.5,11.9c-0.5,10-2.1,19.8-6.1,29.1c-9.1,21.1-25.6,33.9-46.8,41.3c-1.9,0.7-3.8,1.2-5.7,1.8c-1.8,0.5-3.7,1-6.1,1.6
		c18.1,30,36,59.8,54.1,89.8c-8.3,6.8-17.8,11.3-28.4,13.1c-5.1,0.9-10.3,0.9-15.5,1.5c-4.9,0.6-8.1-1-10.3-5.7
		c-2.8-6.2-6.3-12-9.5-18c-3.3-6-6.8-11.9-10.1-17.9c-3.3-6-6.3-12-9.6-18c-3.4-6.2-6.9-12.4-10.3-18.6c-3-5.5-6-10.9-8.8-16.5
		c-1.5-3-3.1-4.5-6.8-4.3c-8.9,0.3-17.7,0.1-26.6,0.1c-0.9,0-2.3-0.4-1.7,1.5c0.1,2.7,0.3,5.4,0.4,8.2c0,1.8,0.1,3.5,0.1,5.3
		c0,0.1-0.1,0.1,0,0.2c0,0.1,0.1,0.2,0.1,0.3c0,1.1,0.1,2.3,0.1,3.4c0.1,2.4,0.2,4.8,0.2,7.1c0,1.8,0.1,3.5,0.1,5.3
		c0,1.3,0.1,2.7,0.1,4c0,0.7,0,1.4,0,2.1c0.1,1.6,0.1,3.3,0.2,4.9c0,1.4,0.1,2.9,0.1,4.3c0.1,3.4,0.2,6.7,0.3,10.1
		c0,1.8,0.1,3.5,0.1,5.3c0.1,2,0.1,3.9,0.2,5.9c0.1,2.8,0.2,5.7,0.3,8.5c0.1,2.6,0.2,5.1,0.3,7.7c0.1,2.6,0.1,5.1,0.2,7.7
		c0.1,1.6,0.1,3.2,0.2,4.9c0.1,3.3,0.2,6.7,0.3,10c0,2.2-0.1,4.5-0.1,6.7c-7.3,16.5-14.7,33.1-22,49.7c-1-2.1-1.9-4.1-2.9-6.1
		c-0.1-0.1-0.1-0.3-0.2-0.4c-1.2-2.7-2.4-5.5-3.6-8.2c-0.1-0.2-0.2-0.3-0.2-0.5c-2.5-5.6-4.9-11.2-7.4-16.8
		c-0.1-0.2-0.2-0.3-0.3-0.5c-1.1-2.4-2.1-4.8-3.2-7.2c-0.1-0.1-0.1-0.2-0.2-0.4c-1.3-3.1-2.7-6.1-4-9.2c-0.1-0.2-0.2-0.3-0.2-0.5
		c0-1.6,0.1-3.1,0.1-4.7c0-0.5,0.1-1,0.1-1.5c0.1-3.8,0.2-7.7,0.3-11.5c0.1-1.3,0.1-2.6,0.2-3.8c0.1-3.5,0.2-7,0.2-10.6
		c0.1-1.3,0.1-2.6,0.2-3.8c0.1-3.7,0.2-7.4,0.2-11c0.1-2.4,0.1-4.7,0.2-7.1c0.1-2.7,0.2-5.5,0.3-8.2c0.1-2.9,0.2-5.8,0.3-8.6
		c0.1-3,0.2-6.1,0.2-9.1c0.1-1.6,0.2-3.2,0.2-4.8c0.1-3.8,0.2-7.7,0.3-11.5c0.1-1.8,0.2-3.5,0.2-5.3c0.1-3,0.2-6.1,0.2-9.1
		c0-0.5,0-1,0-1.5c0-0.8,0-1.6,0-2.3c0.1-0.3,0.2-0.7,0.2-1c0.1-4.5,0.2-9,0.2-13.4c0-0.3,0.1-0.6,0.1-1c0.1-4.2,0.2-8.3,0.3-12.5
		c0-0.5,0-1,0-1.4c0-0.2,0-0.5,0-0.7c0.1-0.2,0.1-0.4,0.2-0.7c0.1-3.7,0.2-7.4,0.3-11.1c0-0.3,0-0.6,0-1c0-0.7,0-1.4,0-2.1
		c0-0.4,0.1-0.8,0.1-1.2c0.1-3.2,0.2-6.5,0.3-9.7c0-0.5,0-1,0-1.4c0-0.7,0-1.4,0-2.1c0.1-1.2,0.1-2.4,0.2-3.6
		c0.1-2.9,0.2-5.8,0.3-8.7c0-1.1,0-2.2,0-3.4l0.1-0.1c0,0-0.1-0.1-0.1-0.1c0-1,0.1-2,0.1-3.1c0.1-4,0.2-8.1,0.4-12.1
		c0-0.8,0-1.6,0.1-2.3c0,0,0,0,0,0c0-0.2,0.1-0.4,0.1-0.5c0.1-4.3,0.2-8.6,0.3-12.9c0-0.2,0.1-0.4,0.1-0.5c0.1-4.3,0.3-8.7,0.4-13
		C53.7,184.3,53.7,182.9,53.7,181.4z"/>
	<path id="XMLID_399_" class="st0" d="M1481.9,361.9c-20-1.3-37.6-8.1-51.7-23.6c2.4-2.1,4.7-4.2,6.9-6.2c3-2.8,5.9-5.6,8.9-8.4
		c1.8-1.7,3.6-3.4,5.6-5.2c1.6,1.5,3.3,2.8,4.5,4.5c2.2,2.9,5.4,4.5,8.3,6.4c5.9,4,12.6,6.4,19.5,7.2c9.5,1.1,18.6-0.7,26.3-7
		c2.7-2.2,4.3-4.9,5.7-8.1c3.3-7.4,3.1-14.4-1.4-20.9c-2.9-4.2-7.3-6.8-11.8-8.9c-4.7-2.1-9.6-3.9-14.5-5.6
		c-7.1-2.5-14.4-4.7-21.5-7.4c-5.8-2.2-11.2-5.4-15.7-9.7c-2.9-2.8-5.4-6-7.5-9.5c-2-3.4-3.7-7.1-4.5-10.9
		c-1.1-5.7-2.1-11.5-0.8-17.5c0.4-2,0.1-4.1,0.3-6.2c0-0.6,0.4-1.1,0.6-1.6c3.1-8.5,7.6-16.2,14.6-22.1c2-1.7,4.4-3,6.6-4.4
		c8.6-5.3,18.1-7.8,28-8.6c6.2-0.5,12.4-0.2,18.6-0.2c5.7,0.1,11.2,1.7,16.5,3.5c4.5,1.6,9.1,3.4,13.3,5.7c3.5,1.9,6.4,4.7,9.6,7.1
		c1.2,0.9,0.8,1.7,0,2.6c-2.4,2.4-4.9,4.8-7.2,7.3c-2.4,2.7-4.7,5.6-7.1,8.3c-1.1,1.2-2.4,2.3-3.7,3.3c-0.3,0.2-1.4-0.1-1.8-0.5
		c-4.5-5.1-10.3-8.4-16.5-10.7c-3.3-1.2-6.9-1.4-10.4-1.9c-5.5-0.7-10.8,0.1-16,1.9c-7,2.5-12.6,6.8-14.7,14.2
		c-2.9,10.4,0.9,19.4,10.9,24c7,3.3,14.5,5.6,21.8,8.3c5,1.8,10.2,3.2,15.1,5.4c5.2,2.3,10.1,5.2,14.9,8.2c4.1,2.6,7.1,6.3,10,10.2
		c2.8,3.9,4.3,8.2,5.6,12.7c0.2,0.7,0.9,1.3,1.4,1.9c0,1.3,0,2.6,0,3.8c0,0.6,0,1.3,0,1.9c0,3.2,0,6.4,0,9.6
		c-0.8,3.5-1.4,6.9-2.4,10.3c-1,3.3-1.9,6.8-3.6,9.8c-5.2,8.9-12.6,15.5-21.8,20.2c-7.1,3.6-14.6,5.6-22.6,6.3
		c-1.4,0.1-2.8,0.3-4.2,0.5c-0.3,0-0.7,0-1,0c-0.3,0-0.6,0-0.9,0c-2.7,0-5.5,0-8.2,0c-0.5,0-0.9,0-1.4,0
		C1482.3,361.9,1482.1,361.9,1481.9,361.9z"/>
	<path id="XMLID_398_" class="st1" d="M80.4,13.4c0,0.1,0,0.3,0,0.4c-8,0-16,0-24,0.1c0-0.2,0-0.3,0-0.5
		C64.4,13.4,72.4,13.4,80.4,13.4z"/>
	<path id="XMLID_397_" class="st2" d="M1548.6,305.2c0-0.6,0-1.3,0-1.9C1548.6,303.9,1548.6,304.6,1548.6,305.2z"/>
	<path id="XMLID_394_" class="st3" d="M724.6,187.5c4.1,0.3,8.3,0.2,12.3,1.1c6.1,1.4,12.1,3.2,18,5.3c4.1,1.4,8.3,2.8,11.8,5.2
		c6.1,4.2,11.8,8.9,17.3,13.7c3.3,2.9,6.2,6.2,8.7,9.8c2.8,4.2,5,8.7,7.2,13.3c2.5,5.1,4.1,10.4,5.3,15.9c1.9,8.5,2.5,17.1,2.4,25.8
		c-0.1,5.1-0.7,10-1.8,15c-0.8,3.4-1.1,7-2,10.4c-0.8,2.9-2.3,5.5-3.4,8.3c-0.9,2.2-1.7,4.5-2.9,6.5c-1.6,2.7-3.5,5.2-5.2,7.9
		c-3.5,5.4-7.6,10.5-12.6,14.5c-5.9,4.7-12.6,8.6-19.2,12.4c-4.3,2.4-9.1,4.4-13.8,5.7c-5.5,1.5-11,3.1-16.8,3
		c-1.7,0-3.4,0.3-5.2,0.5c-0.3,0-0.7,0-1,0c-0.5,0-0.9,0-1.4,0.1c-2.9,0-5.8,0-8.7,0c-7.3,0-14.5-1.3-21.6-3.1
		c-10.8-2.8-20.8-7.3-29.6-14.1c-3.5-2.7-7-5.5-10-8.7c-5.9-6.2-11-13.1-14.5-21c-2.5-5.7-5.3-11.4-6.8-17.4
		c-1.5-6.1-1.4-12.6-2-18.9c0-3.1,0-6.1,0-9.2c0.2-8,1.3-15.9,3.7-23.7c0.9-2.8,1.3-5.8,2.4-8.5c0.9-2.3,2.7-4.3,3.7-6.5
		c3.5-7.5,8.7-13.7,14.4-19.6c2.4-2.5,5.3-4.4,7.9-6.5c7.6-6.1,16.2-10.1,25.4-12.7c6.2-1.8,12.7-2.8,19.1-3.9
		c2.6-0.5,5.3-0.5,8-0.7c2.9,0,5.8,0,8.7,0c0.6,0,1.2,0,1.8,0C724.2,187.5,724.4,187.5,724.6,187.5z M661,275.3
		c0.2,2.2,0.3,5.5,0.7,8.7c1.7,13.6,6.7,25.8,16.6,35.5c13,12.9,29,17.5,46.9,15.5c19.6-2.2,34.1-12.2,43.1-29.8
		c6.9-13.5,8.4-28,6-42.9c-2.2-13.4-7.8-25.1-17.9-34.4c-9.1-8.4-20-13-32.3-14.1c-17-1.5-32.2,2.6-44.7,14.6
		C666.4,240.8,661.3,256.6,661,275.3z"/>
	<path id="XMLID_393_" class="st4" d="M927,361.9c-0.6,0-1.2,0-1.8,0c-3.7,0-7.4,0-11.1,0c-5-0.4-10-0.6-14.9-1.2
		c-3.1-0.4-6.1-1.1-9.1-1.9c-2.4-0.7-4.7-1.8-7.1-2.8c-4.6-2-9.3-3.8-13.7-6.2c-5.9-3.2-11.1-7.4-15.9-12.1
		c-5.7-5.5-10.4-11.5-14.3-18.3c-2.3-4.1-3.9-8.5-5.6-12.9c-1.3-3-3.2-6.1-3.3-9.3c-0.2-3.8-1.8-7.2-1.5-11.1
		c0.3-4.5-0.8-9.1-0.8-13.6c0.1-4.5,0.8-9,1.4-13.5c0.4-3.2,0.7-6.3,1.3-9.4c0.3-1.4,1-2.8,1.5-4.2c0.3-0.7,0.8-1.4,0.9-2.1
		c0.7-5.2,3.8-9.2,6.1-13.7c4.1-8.2,10.4-14.7,17-20.8c3.4-3.1,7.5-5.6,11.4-8.1c3.4-2.2,7-4.2,10.6-6.1c1-0.5,2.3-0.4,3.4-0.8
		c3-1,5.9-2.3,8.9-3.1c3.2-0.8,6.6-1.2,9.8-1.8c1.8-0.3,3.5-1,5.3-1.1c2.9-0.2,5.8-0.1,8.7-0.2c2.9,0,5.8,0,8.7,0
		c8.7,0.4,17.3,1.5,25.6,3.9c3.6,1,7.4,1.7,10.9,3.1c3.5,1.4,6.8,3.3,10.1,5.2c2.7,1.5,5.3,3.1,7.9,4.8c1.5,1,2.8,2.4,4.4,3.7
		c-6.8,7.4-13.8,14.9-20.6,22.2c-3.3-2.6-6.1-5.3-9.4-7.2c-4.5-2.6-9.1-5.1-14-6.5c-5.3-1.6-10.8-2.3-16.3-2.9
		c-8.2-0.8-16,0.6-23.6,3.2c-8.9,3-16.6,8.2-22.6,15.6c-2.6,3.2-5.1,6.6-6.9,10.3c-2,4.2-3,9-4.8,13.3c-3,7.1-2.9,14.6-2.6,22.1
		c0.2,5,0.5,10,2.6,14.7c1.3,3,1.6,6.5,3.1,9.5c2.2,4.4,4.6,8.8,7.6,12.7c4.8,6.2,10.8,11.4,18.1,14.2c5.8,2.3,11.6,5.2,18.1,5.1
		c4.5,0,9,0.9,13.5,0.8c4.6-0.2,9.2-1,13.7-1.8c4.1-0.7,8.2-1.8,12.3-2.8c2.3-0.6,3.3-1.8,3.2-4.5c-0.2-12.1-0.1-24.2-0.1-36.2
		c0-0.8,0-1.6,0-2.5c-11.7,0-23.3,0-34.9,0c0-8.2,0-16.3,0-24.4c21.2,0,42.3,0,63.7,0c0,0.9,0,1.7,0,2.5c0,26.6,0,53.3,0,79.9
		c0,1.2,0.4,2.9-0.2,3.5c-1.2,1.2-2.9,2.1-4.5,2.7c-4.2,1.6-8.5,3.1-12.8,4.5c-3.1,0.9-6.2,1.6-9.4,2.3c-1.9,0.4-3.8,0.8-5.7,1
		c-7,0.9-14,1.6-21,2.5C927.7,361.9,927.4,361.9,927,361.9z"/>
	<path id="XMLID_390_" class="st3" d="M1017.6,192.3c0.6-0.3,1.3-0.8,1.9-0.8c19.2,0,38.4-0.1,57.6,0c4.7,0,9.5,0.2,14.2,0.9
		c4.3,0.7,8.4,2,12.5,3.3c3.8,1.3,7.7,2.6,11.2,4.5c2.9,1.6,5.5,3.9,8,6c7.6,6.4,11.3,14.7,12.9,24.4c0.6,3.9,0.6,7.8,0.5,11.7
		c-0.3,11.2-4.4,20.7-12.3,28.6c-6.5,6.6-14.6,10.5-23.6,12.6c-0.6,0.1-1.1,0.4-1.8,0.7c14.7,24.5,29.4,48.9,44.3,73.6
		c-1.1,0-1.8,0-2.4,0c-10.6,0-21.1,0-31.7,0c-1.4,0-2.2-0.3-3-1.8c-3.4-6.6-7.2-13-10.8-19.5c-3.2-5.8-6.3-11.6-9.4-17.4
		c-3.4-6.2-6.9-12.4-10.3-18.7c-2.4-4.3-4.6-8.7-6.9-13c-7.1,0-14,0-21,0c-0.1,0.1-0.2,0.3-0.4,0.4c0,22.3,0,44.6-0.1,66.9
		c0,0.9,0,1.9,0,3.1c-1.2,0-2.3,0-3.4,0c-8,0-16,0-24,0c-0.7,0-1.4-0.5-2.2-0.8c0.1-0.9,0.2-1.7,0.2-2.6c0-53.2,0-106.4,0-159.6
		C1017.8,194.1,1017.7,193.2,1017.6,192.3z M1047.3,263c0.4,0.1,0.6,0.2,0.8,0.2c10.2-0.1,20.5,0.2,30.7-0.5
		c5.2-0.3,10.6-1.8,15.4-3.7c8.6-3.4,12.6-10.3,12.8-19.5c0.2-9.2-4.1-15.9-12.6-19.2c-4.4-1.8-9.3-3.1-14.1-3.3
		c-10.6-0.6-21.2-0.4-31.8-0.6c-0.4,0-0.8,0.1-1.3,0.1C1047.3,232.1,1047.3,247.5,1047.3,263z"/>
	<path id="XMLID_387_" class="st3" d="M518.8,287.9c0,22.3,0,44.6-0.1,66.9c0,0.9,0,1.9,0,3.1c-1.2,0-2.3,0-3.4,0c-8,0-16,0-24,0
		c-0.7,0-1.4-0.5-2.2-0.8c0.1-0.9,0.2-1.7,0.2-2.6c0-53.2,0-106.4,0-159.6c0-0.9-0.1-1.7-0.2-2.6c0.6-0.3,1.3-0.8,1.9-0.8
		c19.2,0,38.4-0.1,57.6,0c3.2,0,6.3,0.4,9.4,0.8c5.2,0.7,10.6,1.2,15.7,2.6c5.3,1.4,10.2,4.1,15.1,6.9c6.2,3.5,10.3,8.9,14.1,14.5
		c2.1,3,3,6.9,3.9,10.6c2.3,10.1,1.9,20.2-1.8,30.1c-1.9,4.9-4.8,9.1-8.2,13.1c-4,4.7-9.3,7.5-14.6,10c-3.2,1.5-6.8,2.3-10.2,3.5
		c-0.5,0.2-1,0.4-1.7,0.7c14.7,24.4,29.4,48.8,44.3,73.6c-1.1,0-1.7,0-2.3,0c-10.6,0-21.1,0-31.7,0c-1.6,0-2.4-0.4-3.2-2
		c-3.2-6.1-6.6-12.1-10-18.1c-2.2-4-4.4-8-6.6-12c-3.4-6.2-6.9-12.5-10.3-18.7c-2.2-4.1-4.4-8.2-6.6-12.3c-1.2-2.2-2.3-4.4-3.6-6.5
		c-0.3-0.5-1.1-0.8-1.6-0.8c-6.6,0-13.1,0-19.7,0C519,287.7,518.9,287.8,518.8,287.9z M518.8,216c0,16.1,0,31.5,0,47
		c0.3,0.1,0.6,0.2,0.9,0.2c10.3-0.1,20.6,0.2,30.9-0.5c5.2-0.3,10.6-1.7,15.4-3.8c15.7-6.6,15.4-27.4,6-34.9
		c-4.8-3.8-10.2-6.2-16.2-6.6C543.7,216.7,531.4,216.5,518.8,216z"/>
	<path id="XMLID_386_" class="st4" d="M1275.2,217.4c-25.7,0-51.4,0-77.1,0c-0.9,0-1.8,0-2.6,0.1c-0.1,0.1-0.3,0.2-0.4,0.4
		c0,13.8,0,27.6,0,41.7c25.4,0,50.7,0,76.1,0c0,8.4,0,16.6,0,25.2c-25.2,0-50.4,0-75.7,0c-0.1,0.1-0.3,0.2-0.4,0.4
		c0,15.3,0,30.7,0,46c0.1,0.1,0.3,0.3,0.4,0.4c27,0,53.9,0,80.9,0c1,0,2.1,0,3.1,0.1c0,2.1,0.1,4.3,0.1,6.4c0.1,6.3,0.1,12.7,0.2,19
		c-0.9,0.3-1.7,0.8-2.6,0.8c-36.2,0-72.3,0-108.5,0c-1,0-1.9,0-2.9,0c-0.2-0.2-0.3-0.3-0.5-0.5c0-55.1,0-110.3,0-165.4
		c0.2-0.2,0.3-0.3,0.5-0.5c36.4,0,72.8,0,109.3,0c0.2,0.2,0.3,0.3,0.5,0.5c0,8.3,0,16.6,0,24.8
		C1275.4,217,1275.3,217.2,1275.2,217.4z"/>
	<path id="XMLID_383_" class="st3" d="M375.7,289.4c0,21.9,0,43.8-0.1,65.7c0,0.9,0,1.7,0,2.7c-9.9,0-19.7,0-29.6,0
		c0-55.3,0-110.7,0-166.3c0.8,0,1.7,0,2.5,0c15.3,0,30.5,0,45.8,0c11.3,0,22.6,0.5,33.7,3.2c11.3,2.8,20.6,8.3,27.5,17.8
		c2.6,3.6,4.2,7.5,5.3,11.6c3,10.6,2.5,21.3-0.4,31.8c-2.5,9.3-8.3,16.1-15.9,21.7c-5.4,4-11.6,6.2-17.7,8.2
		c-5,1.6-10.3,1.9-15.5,2.5c-3.1,0.4-6.2,0.4-9.2,0.6c-8.5,0-17-0.1-25.5-0.1C376.3,288.9,376,289.2,375.7,289.4z M375.8,216.1
		c0,16.4,0,32.2,0,48.1c7.2,0,14.2,0.2,21.2-0.1c5.4-0.2,10.9-0.6,16.1-1.7c12.5-2.5,18.9-9.3,19.8-21.1c0.7-9.2-2.7-17-12.2-20.9
		c-3.4-1.4-7.1-2.6-10.8-2.9C398.6,216.7,387.3,216.5,375.8,216.1z"/>
	<path id="XMLID_382_" class="st0" d="M1348.9,361.9c-6-0.1-11.9-1-17.7-2.5c-9.6-2.5-18.4-6.3-26.3-12.3c-3.3-2.5-6.2-5.7-9.5-8.8
		c7.2-6.7,14.2-13.2,21.5-20c1.1,1.3,2,2.5,3.1,3.6c4.9,4.7,10.2,9,16.7,11.4c5.1,1.9,10.3,3.5,15.9,3.5c7.5,0,14.6-1.4,20.8-5.8
		c4-2.8,7.4-6.3,8.4-11.5c0.5-2.6,1.5-5,1.7-7.6c0.2-2-0.2-4.2-0.9-6.1c-2.1-5.7-6-10-11.5-12.4c-7-3.1-14.1-6.1-21.3-8.5
		c-8.1-2.7-16.3-5.1-23.9-9.2c-6.7-3.6-12.1-8.6-16.4-14.9c-3.4-5-5-10.7-6.2-16.4c-0.8-3.8,0-8,0.2-12c0.1-2.3,0.2-4.5,0.5-6.8
		c0.1-1,1-1.8,1.1-2.8c0.6-4.1,3-7.4,4.4-11.1c0.7-1.9,2.4-3.4,3.8-5c7-7.9,15.7-12.8,25.7-15.8c6.8-2.1,13.7-3.9,21-3.5
		c6.5,0.4,13.2-0.2,19.5,1.2c10.6,2.2,20.6,6.3,29.3,13.1c0.9,0.7,1.7,1.4,2.6,2.1c0.6,0.5,1.1,0.9,1.6,1.3
		c-6.6,7.2-13.1,14.2-19.2,20.9c-4-3-7.6-6-11.5-8.5c-4.2-2.7-9-4.3-14-5.1c-7.5-1.1-14.9-0.2-21.7,3c-4,1.9-7.8,4.3-9.9,8.4
		c-2.8,5.4-4.3,11.4-2,17.2c1.7,4.5,4.6,8.5,9.4,10.5c3,1.3,5.7,3.2,8.7,4.3c3.1,1.2,6.5,1.7,9.7,2.8c6,2.1,12,4.4,18,6.8
		c3.9,1.5,7.8,3.1,11.4,5c4.9,2.7,9,6.5,12.7,10.7c3.5,4,5.8,8.6,7.7,13.4c1.1,2.8,1,6.1,1.3,9.2c0.3,3.8,0.6,7.6,0.4,11.5
		c-0.1,2.5-1.1,4.9-1.6,7.3c-0.9,4.7-2.8,9-4.9,13.2c-2.2,4.4-5.7,7.9-9.4,11c-3,2.5-6.1,4.8-9.4,6.9c-2.4,1.5-5.2,2.4-7.9,3.5
		c-2.1,0.9-4.2,1.7-6.4,2.3c-2.5,0.7-5,1.2-7.6,1.5c-3.1,0.4-6.3,0.5-9.5,0.7C1354.4,362,1351.7,362,1348.9,361.9z"/>
	<path id="XMLID_381_" class="st5" d="M117.6,373.9c3.3,4.1,6.2,8.3,9.7,12c11.4,11.8,25.1,19.4,41.4,22.1
		c18.8,3.2,36.5,0.2,52.7-10c28.2-17.8,28.3-50.9,17.7-69.1c-5.3-9-13.1-15.3-22.2-19.8c-8.1-4-16.6-7.3-24.8-10.8
		c0.7-0.4,1.7-1,2.8-1.5c8.4-4.1,16.2-9.1,22.6-16c0.9-0.9,1.5-0.9,2.7-0.5c2.8,1.1,5.8,1.9,8.6,3c1.3,0.5,2.2,1.7,3.4,2.3
		c11.5,5.9,22.1,13.1,29.8,23.8c6.3,8.8,10.3,18.7,11.4,29.5c0.7,6.2,0.7,12.4,1,18.6c0.1,2,0.4,4,0.2,5.9c-0.1,1.3-1,2.5-1.2,3.8
		c-0.6,3.4-0.8,6.8-1.6,10.1c-0.5,2.1-1.9,4.1-2.8,6.1c-1,2.3-1.9,4.6-2.8,6.8c-0.2,0.5-0.2,1.1-0.5,1.5c-2.7,4-5.5,8-8.3,12
		c-0.2,0.3-0.6,0.5-0.9,0.8c-3.6,3.1-7.1,6.4-10.7,9.4c-1.9,1.6-4.2,2.8-6.2,4.4c-4,3.3-8.9,4.8-13.5,6.9
		c-10.4,4.7-20.1,6.7-29.3,7.7c-2.8,0.3-5.9,0-8.4,1c-3.6,1.5-7.2-0.4-10.8,0.7c-1.8,0.5-4.1-0.4-6.1-0.7c-3.1-0.5-6.1-1.2-9.2-1.4
		c-7.2-0.4-13.8-3-20.5-5.2c-4.5-1.4-8.9-3.2-13-5.3c-4.5-2.3-8.7-5.1-13-7.7c-5.5-3.3-10-7.7-14.5-12.2c-2.7-2.7-5-5.8-7.4-8.8
		c-0.3-0.4-0.1-1.8,0.4-2.1C102.1,385.3,109.8,379.6,117.6,373.9C117.6,373.9,117.7,373.9,117.6,373.9z"/>
	<path id="XMLID_380_" class="st5" d="M131.5,198.6c-0.2,0.8-0.4,1.6-0.7,2.4c-0.1,0.3-0.2,0.6-0.2,0.9c-4.6,19-0.6,41.9,26.3,56
		c-4.2,0.7-8.4,1.4-12.6,2.1c-8,1.4-16,1.4-24.1,1.5c-3,0-4.8-0.7-6.6-3.3c-3.6-5.5-7.1-10.9-9.2-17.1c-0.2-0.7-0.5-1.5-0.7-2.2
		c-0.1-0.3-0.2-0.6-0.3-0.9c-0.3-1-0.6-2-0.9-3c0,0,0.1-0.1,0.1-0.1c0-0.1-0.1-0.2-0.2-0.3c-0.6-3.9-1.4-7.9-1.8-11.8
		c-0.4-3.7-0.7-7.4-0.5-11.1c0.2-3.8,0.9-7.7,1.4-11.5c0.1-0.3,0.2-0.7,0.3-1c0.1-0.5,0.1-0.9,0.2-1.4c0.1-0.2,0.1-0.3,0.2-0.5
		c0.1-0.5,0.2-1,0.3-1.5c0,0,0.1-0.1,0.1-0.1c0-0.1,0-0.2,0-0.3c1.8-4.9,3.2-10.1,5.5-14.7c5.7-11.1,14-19.8,24.3-26.9
		c8.2-5.6,17.3-9.3,26.7-12.3c3.7-1.2,7.4-1.6,11.2-2.3c3.8-0.7,7.7-1,11.5-1.5c1-0.1,2-0.7,3-1c0.4-0.1,0.8-0.1,1.2-0.1
		c3.1,0,6.2-0.3,9.2,0.1c2.8,0.3,5.5,1.7,8.4,0.3c2.6,2.3,6,1.6,9,2.1c16.7,2.9,31.9,9.1,45.2,19.5c4.3,3.4,7.8,7.7,11.7,11.6
		c0.3,0.3,0.5,0.8,0.8,1.3c-7.5,6.1-15,12.1-22.4,18.1c-2.9-3.3-5.6-6.5-8.5-9.5c-5.4-5.6-11.9-9.7-19.1-12.6
		c-5.2-2.1-10.7-3.3-16.1-4.8c-1.3-0.4-2.7-0.4-4.1-0.6c-0.3,0-0.6-0.1-0.9-0.1c-5.6-0.1-11.3-0.1-16.9-0.2c-0.7,0.1-1.3,0.2-2,0.3
		c-2.4,0.4-4.8,0.8-7.2,1.2c-0.2,0.1-0.4,0.1-0.5,0.2c-1.1,0.3-2.2,0.6-3.4,0.9c-0.1,0-0.3,0.1-0.4,0.1
		c-14.9,4.2-26.5,12.6-34.1,26.2c-1.2,2.2-1.9,4.6-2.8,6.9C131.7,198,131.6,198.3,131.5,198.6z"/>
	<path id="XMLID_379_" class="st6" d="M80.5,88.6c0.1,0.4,0.2,0.7,0.2,1.1c0.1,3.5,0.1,7,0.2,10.5c-0.1,0.1-0.1,0.3,0,0.5
		c-0.2,0.1-0.3,0.2-0.5,0.3c-6.7-1.9-13.3-3.8-20-5.7c-0.5-0.1-1.1-0.2-1.6-0.3c-0.2-0.2-0.3-0.3-0.5-0.5c-0.6-0.5-1.2-1-1.8-1.5
		c0.1-1.1,0.1-2.2,0.2-3.3c0-2.6,0-5.2,0-8.2c5.8,1.7,11.2,3.3,16.7,4.9c2.2,0.6,4.4,1.2,6.5,1.8C80.1,88.4,80.3,88.5,80.5,88.6z"/>
	<path id="XMLID_378_" class="st7" d="M80.1,73.2c0,3.7,0,7.2,0,11.1c-0.8-0.1-1.8-0.1-2.7-0.3c-6.3-1.9-12.5-3.9-18.8-5.7
		c-1.4-0.4-1.9-0.8-1.8-2.5c0.3-2.9,0.1-5.9,0.1-9.4C64.7,68.7,72.2,70.9,80.1,73.2z"/>
	<path id="XMLID_377_" class="st8" d="M57.6,52.6c4.3,1.3,8.4,2.5,12.6,3.7c2.6,0.8,5.2,1.5,7.7,2.3c0.6,0.2,1.5,0.8,1.5,1.4
		c0.3,2.8,0.4,5.7,0.6,9.2c-2.2-0.5-4-0.9-5.7-1.4c-4.9-1.5-9.8-3.2-14.8-4.5c-2.1-0.5-2.6-1.5-2.5-3.3
		C57.2,57.7,57.4,55.3,57.6,52.6z"/>
	<path id="XMLID_376_" class="st8" d="M78,45.8c0.4,0.9,0.9,1.8,1.3,2.6c0,0.1-0.1,0.1-0.1,0.2c0,0.1,0.1,0.2,0.2,0.3
		c0,1.9,0,3.8,0,6.1c-2.2-0.5-4.4-0.9-6.5-1.6c-4.5-1.3-9-2.9-13.6-4.2c-1.4-0.4-2-1.2-1.8-2.5c0.2-2.2,0.4-4.5,0.7-6.8
		c6.4,1.8,12.8,3.7,19.3,5.6C77.7,45.7,77.9,45.7,78,45.8z"/>
	<path id="XMLID_375_" class="st7" d="M56.4,13.9c8,0,16,0,24-0.1c1.2,1.3,1.8,4.5,0.9,5.9c-0.3,0.5-1.1,0.8-1.7,0.8
		c-7.5,0-15,0.1-22.5,0c-2.1,0-3.2-3.4-1.8-5.6C55.7,14.5,56.1,14.2,56.4,13.9z"/>
	<path id="XMLID_374_" class="st8" d="M58.8,29.6c6.8,2.1,13.4,4.1,20.1,6.1c0,2.1,0,4.1,0,6.5c-1.4-0.4-2.8-0.7-4.1-1
		c-4.6-1.3-9.3-2.7-13.8-4.1c-3.1-1-3.6-2.1-2.8-5.2C58.3,31.2,58.5,30.5,58.8,29.6z"/>
	<path id="XMLID_373_" class="st9" d="M60.3,26.1c-1.9-0.4-1.6-1.8-1.4-3.5c6.4,0,12.7,0,19.1,0c0.2,0.1,0.4,0.2,0.6,0.4
		c0.1,2.1,0.1,4.2,0.2,6.3c0,0.3,0,0.7,0,1c-0.5,0.3-1.1,1-1.6,0.9c-3.6-0.9-7.3-1.9-10.9-2.9c-1.9-0.5-3.8-1.2-5.7-1.8
		C60.5,26.3,60.4,26.2,60.3,26.1z"/>
	<path id="XMLID_372_" class="st10" d="M1017.6,192.3c0.1,0.9,0.2,1.7,0.2,2.6c0,53.2,0,106.4,0,159.6c0,0.9-0.1,1.7-0.2,2.6
		c-0.1-0.9-0.3-1.7-0.3-2.6c0-53.2,0-106.4,0-159.6C1017.3,194,1017.5,193.2,1017.6,192.3z"/>
	<path id="XMLID_371_" class="st10" d="M489.1,192.3c0.1,0.9,0.2,1.7,0.2,2.6c0,53.2,0,106.4,0,159.6c0,0.9-0.1,1.7-0.2,2.6
		c-0.1-0.9-0.3-1.7-0.3-2.6c0-53.2,0-106.4,0-159.6C488.9,194,489.1,193.2,489.1,192.3z"/>
	<path id="XMLID_370_" class="st11" d="M128.9,265.3c-0.9,0.1-1.9,0.3-2.8,0.3c-12.5,0-25,0-37.5,0c-0.8,0-1.6-0.5-2.4-0.8
		c1.1,0.1,2.2,0.4,3.3,0.4C102.6,265.3,115.7,265.3,128.9,265.3z"/>
	<path id="XMLID_369_" class="st12" d="M375.7,289.4c0.3-0.2,0.6-0.5,0.9-0.5c8.5,0,17,0,25.5,0.1c-0.8,0.1-1.7,0.4-2.5,0.4
		C391.6,289.4,383.6,289.4,375.7,289.4z"/>
	<path id="XMLID_368_" class="st13" d="M1279.7,357c-0.1-6.3-0.1-12.7-0.2-19c0-2.1,0-4.3-0.1-6.4c0.2,0.5,0.5,1,0.5,1.4
		c0,7.7,0,15.4,0,23.1C1279.9,356.4,1279.7,356.7,1279.7,357z"/>
	<path id="XMLID_367_" class="st11" d="M84.3,209.7c-0.1-3-0.2-6-0.2-9.1C84.2,203.6,84.3,206.6,84.3,209.7z"/>
	<path id="XMLID_366_" class="st2" d="M80.9,100.3c-0.1-3.5-0.1-7-0.2-10.5C80.8,93.2,80.9,96.7,80.9,100.3z"/>
	<path id="XMLID_365_" class="st14" d="M87.7,316.2c-0.1-2.7-0.3-5.4-0.4-8.2C87.4,310.8,87.6,313.5,87.7,316.2z"/>
	<path id="XMLID_364_" class="st14" d="M88.2,332.5c-0.1-2.4-0.2-4.8-0.2-7.1C88.1,327.8,88.1,330.2,88.2,332.5z"/>
	<path id="XMLID_363_" class="st15" d="M89.1,363.3c-0.1-3.4-0.2-6.7-0.3-10.1C88.9,356.5,89,359.9,89.1,363.3z"/>
	<path id="XMLID_362_" class="st11" d="M83.8,192.4c0.1-2,0.3-4.1,0.4-6.1C84.1,188.3,84,190.3,83.8,192.4z"/>
	<path id="XMLID_361_" class="st16" d="M914.1,362c3.7,0,7.4,0,11.1,0C921.5,362,917.8,362,914.1,362z"/>
	<path id="XMLID_360_" class="st14" d="M90.1,390.6c-0.1-2.6-0.2-5.1-0.3-7.7C89.8,385.5,90,388.1,90.1,390.6z"/>
	<path id="XMLID_359_" class="st11" d="M84.8,222.6c-0.1-1.7-0.1-3.5-0.2-5.2C84.7,219.1,84.7,220.9,84.8,222.6z"/>
	<path id="XMLID_358_" class="st15" d="M88.7,348.9c-0.1-1.6-0.1-3.3-0.2-4.9C88.5,345.6,88.6,347.2,88.7,348.9z"/>
	<path id="XMLID_357_" class="st17" d="M628.9,269.6c0,3.1,0,6.1,0,9.2C628.9,275.8,628.9,272.7,628.9,269.6z"/>
	<path id="XMLID_356_" class="st16" d="M713.5,362c2.9,0,5.8,0,8.7,0C719.3,362,716.4,362,713.5,362z"/>
	<path id="XMLID_355_" class="st16" d="M722.2,187.5c-2.9,0-5.8,0-8.7,0C716.4,187.5,719.3,187.5,722.2,187.5z"/>
	<path id="XMLID_354_" class="st17" d="M922.8,187.5c-2.9,0-5.8,0-8.7,0C917,187.5,919.9,187.5,922.8,187.5z"/>
	<path id="XMLID_353_" class="st16" d="M1483.8,362c2.7,0,5.5,0,8.2,0C1489.3,362,1486.5,362,1483.8,362z"/>
	<path id="XMLID_352_" class="st17" d="M1348.9,361.9c2.8,0,5.5,0,8.3,0C1354.4,362,1351.7,362,1348.9,361.9z"/>
	<path id="XMLID_351_" class="st11" d="M90.7,419.9c0-2.2,0.1-4.5,0.1-6.7c0.2,2.1,0.4,4.1,0.6,6.2
		C91.3,419.6,90.9,419.7,90.7,419.9z"/>
	<path id="XMLID_350_" class="st18" d="M185,221.3c0,2.2,0,4.4,0,6.6C185,225.7,185,223.5,185,221.3z"/>
	<path id="XMLID_349_" class="st15" d="M89.5,374.5c-0.1-2-0.1-3.9-0.2-5.9C89.3,370.5,89.4,372.5,89.5,374.5z"/>
	<path id="XMLID_348_" class="st11" d="M139.5,145.4c-0.3-0.5-0.6-1-0.9-1.5c0.8,0,1.7,0,2.5,0c0.1,0.2,0.1,0.3,0.2,0.5
		C140.7,144.7,140.1,145,139.5,145.4z"/>
	<path id="XMLID_347_" class="st14" d="M90.5,403.2c-0.1-1.6-0.1-3.2-0.2-4.9C90.3,399.9,90.4,401.5,90.5,403.2z"/>
	<path id="XMLID_346_" class="st15" d="M88.5,341.9c0-1.3-0.1-2.7-0.1-4C88.4,339.2,88.4,340.5,88.5,341.9z"/>
	<path id="XMLID_345_" class="st14" d="M56.7,89.7c-0.1,1.1-0.1,2.2-0.2,3.3C56.6,91.9,56.7,90.8,56.7,89.7z"/>
	<path id="XMLID_344_" class="st18" d="M184.9,229.9c-0.3,0.8-0.5,1.5-0.8,2.3C184.3,231.4,184.6,230.6,184.9,229.9z"/>
	<path id="XMLID_343_" class="st14" d="M51.2,110.4c-1,0.1-2,0.2-2.9,0.3C49.2,110.5,50.2,110.4,51.2,110.4z"/>
	<path id="XMLID_342_" class="st11" d="M86.1,264.9c-0.1-0.8-0.1-1.6-0.2-2.4C86,263.3,86.1,264.1,86.1,264.9z"/>
	<path id="XMLID_341_" class="st14" d="M85.6,110.4c0.8,0,1.7-0.1,2.5-0.1c0,0.1,0.1,0.3,0,0.4C87.3,110.6,86.5,110.5,85.6,110.4z"
		/>
	<path id="XMLID_340_" class="st11" d="M85.1,229.8c0-0.6,0-1.2,0-1.8C85,228.6,85.1,229.2,85.1,229.8z"/>
	<path id="XMLID_339_" class="st19" d="M180.2,162.1c0.7-0.1,1.3-0.2,2-0.3C181.5,161.9,180.9,162,180.2,162.1z"/>
	<path id="XMLID_338_" class="st16" d="M1492.9,361.9c0.3,0,0.7,0,1,0c-0.2,0.2-0.3,0.5-0.5,0.7
		C1493.3,362.4,1493.1,362.1,1492.9,361.9z"/>
	<path id="XMLID_337_" class="st14" d="M107.8,110.3c-0.7,0.1-1.3,0.2-2,0.3C106.5,110.5,107.2,110.4,107.8,110.3z"/>
	<path id="XMLID_336_" class="st16" d="M723.5,361.9c0.3,0,0.7,0,1,0c-0.2,0.2-0.3,0.5-0.5,0.7C723.9,362.4,723.7,362.1,723.5,361.9
		z"/>
	<path id="XMLID_335_" class="st18" d="M184.6,217.4c0.1,0.6,0.2,1.2,0.3,1.8C184.8,218.6,184.7,218,184.6,217.4z"/>
	<path id="XMLID_334_" class="st16" d="M927,361.9c0.3,0,0.7,0,1,0c-0.2,0.2-0.3,0.5-0.5,0.7C927.4,362.4,927.2,362.1,927,361.9z"/>
	<path id="XMLID_333_" class="st11" d="M85.5,248c0-0.6,0-1.2,0-1.8C85.5,246.8,85.5,247.4,85.5,248z"/>
	<path id="XMLID_332_" class="st19" d="M183.9,235.1c-0.1,0.4-0.2,0.9-0.3,1.3C183.7,236,183.8,235.6,183.9,235.1z"/>
	<path id="XMLID_331_" class="st18" d="M182.7,210.6c0.1,0.5,0.2,1,0.3,1.5C182.9,211.6,182.8,211.1,182.7,210.6z"/>
	<path id="XMLID_330_" class="st14" d="M31.5,110.6c-0.5-0.1-1-0.2-1.5-0.2C30.5,110.5,31,110.5,31.5,110.6z"/>
	<path id="XMLID_329_" class="st18" d="M183.6,213.2c0.1,0.4,0.2,0.9,0.4,1.3C183.8,214,183.7,213.6,183.6,213.2z"/>
	<path id="XMLID_328_" class="st18" d="M184.1,215.1c0.1,0.3,0.1,0.5,0.2,0.8C184.2,215.6,184.1,215.3,184.1,215.1z"/>
	<path id="XMLID_327_" class="st13" d="M78.8,30.2c0-0.3,0-0.7,0-1C78.7,29.5,78.8,29.9,78.8,30.2z"/>
	<path id="XMLID_326_" class="st16" d="M1481.9,361.9c0.2,0,0.4,0,0.5,0c-0.1,0.2-0.2,0.4-0.3,0.6
		C1482.1,362.3,1482,362.1,1481.9,361.9z"/>
	<path id="XMLID_325_" class="st18" d="M159.7,190.7c0.3,0.1,0.6,0.2,0.8,0.3C160.2,190.9,159.9,190.8,159.7,190.7z"/>
	<path id="XMLID_324_" class="st18" d="M155.4,189.4c0.2,0,0.5,0.1,0.7,0.1C155.9,189.5,155.7,189.5,155.4,189.4z"/>
	<path id="XMLID_323_" class="st18" d="M152.9,189c0.4,0,0.7,0,1.1,0C153.6,189,153.2,189,152.9,189z"/>
	<path id="XMLID_322_" class="st15" d="M82.3,141.6c0-0.3,0.1-0.6,0.1-1C82.4,141,82.3,141.3,82.3,141.6z"/>
	<path id="XMLID_321_" class="st18" d="M199.1,162c0.3,0,0.6,0.1,0.9,0.1C199.7,162.1,199.4,162.1,199.1,162z"/>
	<path id="XMLID_320_" class="st18" d="M143.4,187c0.3,0,0.6,0.1,0.9,0.1C144,187.1,143.7,187.1,143.4,187z"/>
	<path id="XMLID_319_" class="st16" d="M724.6,187.5c-0.2,0-0.4,0-0.6,0c0.1-0.2,0.2-0.4,0.3-0.6
		C724.4,187.2,724.5,187.3,724.6,187.5z"/>
	<path id="XMLID_318_" class="st18" d="M146.2,187.4c0.3,0.1,0.6,0.1,0.9,0.2C146.9,187.5,146.6,187.5,146.2,187.4z"/>
	<path id="XMLID_317_" class="st11" d="M84.6,213.5c0-0.3,0-0.6-0.1-0.9C84.5,212.9,84.5,213.2,84.6,213.5z"/>
	<path id="XMLID_316_" class="st19" d="M184.1,233.7c0,0.3,0,0.5,0,0.8C184.1,234.3,184.1,234,184.1,233.7z"/>
	<path id="XMLID_315_" class="st19" d="M183.4,237.1c-0.1,0.3-0.2,0.6-0.3,0.9C183.2,237.6,183.3,237.3,183.4,237.1z"/>
	<path id="XMLID_314_" class="st19" d="M103.5,238c0.1,0.3,0.2,0.6,0.3,0.9C103.7,238.6,103.6,238.3,103.5,238z"/>
	<path id="XMLID_313_" class="st19" d="M183,238.5c-0.1,0.3-0.2,0.6-0.3,0.8C182.7,239.1,182.9,238.8,183,238.5z"/>
	<path id="XMLID_312_" class="st11" d="M85.7,250c-0.1-0.3-0.1-0.6-0.2-0.9C85.6,249.4,85.6,249.7,85.7,250z"/>
	<path id="XMLID_311_" class="st19" d="M160.5,260c-0.3,0.1-0.5,0.2-0.8,0.3C159.9,260.3,160.2,260.1,160.5,260z"/>
	<path id="XMLID_310_" class="st19" d="M159.1,260.5c-0.3,0.1-0.6,0.2-0.9,0.3C158.5,260.7,158.8,260.6,159.1,260.5z"/>
	<path id="XMLID_309_" class="st19" d="M156.3,261.5c-0.3,0.1-0.6,0.2-0.9,0.2C155.7,261.7,156,261.6,156.3,261.5z"/>
	<path id="XMLID_308_" class="st19" d="M154.7,262c-0.2,0-0.5,0.1-0.7,0.1C154.2,262.1,154.5,262,154.7,262z"/>
	<path id="XMLID_307_" class="st18" d="M130.6,202c0.1-0.3,0.2-0.6,0.2-0.9C130.8,201.4,130.7,201.7,130.6,202z"/>
	<path id="XMLID_306_" class="st18" d="M101.9,199.1c-0.1,0.3-0.2,0.7-0.3,1C101.7,199.8,101.8,199.5,101.9,199.1z"/>
	<path id="XMLID_305_" class="st18" d="M131.5,198.6c0.1-0.3,0.2-0.6,0.3-0.9C131.7,198,131.6,198.3,131.5,198.6z"/>
	<path id="XMLID_304_" class="st1" d="M60.3,26.1c0.1,0.1,0.3,0.2,0.4,0.3C60.5,26.3,60.4,26.2,60.3,26.1z"/>
	<path id="XMLID_303_" class="st2" d="M78,45.8c-0.2-0.1-0.4-0.1-0.6-0.2C77.7,45.7,77.9,45.7,78,45.8z"/>
	<path id="XMLID_302_" class="st2" d="M79.4,49c-0.1-0.1-0.1-0.2-0.2-0.3c0,0,0.1-0.1,0.1-0.2c0.1,0.1,0.1,0.2,0.1,0.3
		C79.5,48.8,79.5,48.9,79.4,49z"/>
	<path id="XMLID_301_" class="st2" d="M80.5,88.6c-0.2-0.1-0.4-0.2-0.6-0.3C80.1,88.4,80.3,88.5,80.5,88.6z"/>
	<path id="XMLID_300_" class="st14" d="M58.4,94.5c0.2,0.2,0.3,0.3,0.5,0.5C58.7,94.8,58.5,94.6,58.4,94.5z"/>
	<path id="XMLID_299_" class="st14" d="M1195,217.9c0.1-0.1,0.3-0.2,0.4-0.4C1195.3,217.6,1195.1,217.7,1195,217.9z"/>
	<path id="XMLID_298_" class="st19" d="M179.1,245.7c-0.1,0.2-0.2,0.4-0.3,0.6C179,246.1,179.1,245.9,179.1,245.7z"/>
	<path id="XMLID_297_" class="st14" d="M1195,285.1c0.1-0.1,0.3-0.2,0.4-0.4C1195.3,284.8,1195.1,284.9,1195,285.1z"/>
	<path id="XMLID_296_" class="st14" d="M518.8,287.9c0.1-0.1,0.2-0.3,0.4-0.4C519,287.7,518.9,287.8,518.8,287.9z"/>
	<path id="XMLID_295_" class="st14" d="M1047.2,287.9c0.1-0.1,0.2-0.3,0.4-0.4C1047.4,287.7,1047.3,287.8,1047.2,287.9z"/>
	<path id="XMLID_294_" class="st18" d="M183.1,212.2c0.1,0.1,0.2,0.2,0.3,0.4C183.3,212.4,183.2,212.3,183.1,212.2z"/>
	<path id="XMLID_293_" class="st13" d="M1275.2,217.4c0.1-0.2,0.2-0.4,0.3-0.6C1275.4,217,1275.3,217.2,1275.2,217.4z"/>
	<path id="XMLID_292_" class="st11" d="M101.5,186.2c0.2-0.2,0.3-0.3,0.5-0.5C101.9,185.8,101.7,186,101.5,186.2z"/>
	<path id="XMLID_291_" class="st13" d="M78.5,22.9c-0.2-0.1-0.4-0.2-0.6-0.4C78.1,22.7,78.3,22.8,78.5,22.9z"/>
	<path id="XMLID_290_" class="st19" d="M173.1,197.9c0.2,0,0.3,0.1,0.3,0.2C173.2,198.1,173.1,198.1,173.1,197.9z"/>
	<path id="XMLID_289_" class="st19" d="M161.6,259.6c-0.2,0.1-0.3,0.1-0.5,0.2C161.3,259.7,161.4,259.7,161.6,259.6z"/>
	<path id="XMLID_288_" class="st14" d="M87.9,322c0-0.1-0.1-0.2-0.1-0.3c0-0.1,0-0.1,0-0.2C87.8,321.7,87.9,321.8,87.9,322z"/>
	<path id="XMLID_287_" class="st18" d="M102.2,197.2c-0.1,0.2-0.1,0.3-0.2,0.5C102.1,197.6,102.2,197.4,102.2,197.2z"/>
	<path id="XMLID_286_" class="st13" d="M1195.4,331.5c-0.1-0.1-0.3-0.3-0.4-0.4C1195.1,331.2,1195.3,331.4,1195.4,331.5z"/>
	<path id="XMLID_285_" class="st19" d="M168.7,164.6c0.1,0,0.3-0.1,0.4-0.1c0,0-0.2,0.1-0.2,0.1L168.7,164.6z"/>
	<path id="XMLID_284_" class="st18" d="M163.5,192.2c0.1,0.1,0.3,0.1,0.4,0.2C163.8,192.3,163.7,192.3,163.5,192.2z"/>
	<path id="XMLID_283_" class="st19" d="M172.5,163.6c0.2-0.1,0.4-0.1,0.5-0.2C172.9,163.4,172.7,163.5,172.5,163.6z"/>
	<path id="XMLID_282_" class="st19" d="M157.6,261l-0.1,0.2c0,0-0.2-0.1-0.2-0.1C157.4,261,157.5,261,157.6,261z"/>
	<path id="XMLID_281_" class="st13" d="M1165.7,191.5c-0.2,0.2-0.3,0.3-0.5,0.5C1165.4,191.8,1165.5,191.7,1165.7,191.5z"/>
	<path id="XMLID_280_" class="st18" d="M162.6,191.8l0.2-0.1l0.1,0.2C162.8,192,162.7,191.9,162.6,191.8z"/>
	<path id="XMLID_279_" class="st13" d="M1165.2,357.4c0.2,0.2,0.3,0.3,0.5,0.5C1165.5,357.8,1165.4,357.6,1165.2,357.4z"/>
	<path id="XMLID_278_" class="st13" d="M1275.5,192c-0.2-0.2-0.3-0.3-0.5-0.5C1275.1,191.7,1275.3,191.8,1275.5,192z"/>
	<path id="XMLID_277_" class="st15" d="M82.9,143.8c-0.2-0.1-0.3-0.2-0.5-0.3C82.6,143.5,82.7,143.7,82.9,143.8z"/>
	<path id="XMLID_276_" class="st18" d="M161.1,191.2c0.2,0.1,0.3,0.1,0.5,0.2C161.4,191.3,161.3,191.3,161.1,191.2z"/>
	<path id="XMLID_275_" class="st19" d="M102.5,234.6c0.1,0.1,0.1,0.2,0.2,0.3c0,0,0,0.1-0.1,0.1
		C102.5,234.9,102.5,234.8,102.5,234.6z"/>
	<path id="XMLID_274_" class="st18" d="M158.8,190.4c0.1,0,0.2,0.1,0.3,0.1c0,0-0.2,0-0.2,0S158.8,190.4,158.8,190.4z"/>
	<path id="XMLID_273_" class="st18" d="M156.8,189.8c0.2,0.1,0.4,0.1,0.6,0.2C157.2,189.9,157,189.8,156.8,189.8z"/>
	<path id="XMLID_272_" class="st11" d="M85.2,234.2c-0.1-0.1-0.2-0.2-0.3-0.4c0,0,0.1-0.1,0.1-0.2c0.1,0.1,0.1,0.2,0.2,0.3
		C85.3,234.1,85.2,234.2,85.2,234.2z"/>
	<path id="XMLID_271_" class="st2" d="M80.4,101c0.2-0.1,0.3-0.2,0.5-0.3C80.7,100.8,80.6,100.9,80.4,101z"/>
	<path id="XMLID_270_" class="st19" d="M177.7,248.1c0,0.2-0.1,0.3-0.3,0.3C177.4,248.2,177.5,248.1,177.7,248.1z"/>
</g>
</svg>
