<?xml version="1.0" encoding="UTF-8"?>
<svg width="800px" height="237px" viewBox="0 0 800 237" version="1.1" xmlns="http://www.w3.org/2000/svg" xmlns:xlink="http://www.w3.org/1999/xlink">
    <!-- Generator: Sketch 52.2 (67145) - http://www.bohemiancoding.com/sketch -->
    <title>Logo-Black</title>
    <desc>Created with Sketch.</desc>
    <g id="Logo-Black" stroke="none" stroke-width="1" fill="none" fill-rule="evenodd">
        <g id="LogoBlack" fill="#232323">
            <path d="M86.9846308,122.077371 C86.9770894,122.078015 86.9692254,122.078337 86.961039,122.078337 C86.961039,121.974617 87.012987,121.922757 87.1168831,121.922757 C87.1168831,121.940044 87.1154401,121.95589 87.1125541,121.970295 C87.1847042,121.95589 87.2207792,121.90547 87.2207792,121.819037 C87.4285714,121.507877 87.6363636,121.196718 87.8441558,120.885558 C87.8961039,120.781838 87.9480519,120.678118 88,120.574398 C88.6233766,119.485339 89.1948052,118.34442 89.8181818,117.255361 C89.8701299,117.099781 89.9220779,116.944201 89.974026,116.840481 C89.974026,116.736761 90.025974,116.633042 90.025974,116.529322 C90.0779221,116.373742 90.1298701,116.218162 90.1818182,116.062582 C90.1818182,115.958862 90.2337662,115.855142 90.2337662,115.751422 C90.2857143,115.543982 90.3376623,115.284683 90.3896104,115.077243 C90.3896104,114.973523 90.4415584,114.869803 90.4415584,114.766083 C90.4415584,114.610503 90.4415584,114.506783 90.4415584,114.351204 C90.4415584,114.091904 90.4415584,113.832604 90.4415584,113.521444 C90.5974026,113.106565 90.7012987,112.743545 90.8571429,112.328665 C90.9090909,111.965646 90.9090909,111.654486 90.961039,111.291466 C90.961039,110.150547 90.961039,109.009628 90.961039,107.868709 C90.9090909,107.505689 90.9090909,107.14267 90.8571429,106.83151 C90.8051948,106.52035 90.7532468,106.20919 90.7012987,105.898031 C90.6493506,105.638731 90.5974026,105.379431 90.5454545,105.068271 C90.4935065,104.912691 90.4935065,104.808972 90.4415584,104.653392 C90.4415584,104.549672 90.3896104,104.445952 90.3896104,104.342232 C90.3376623,104.134792 90.2857143,103.875492 90.1818182,103.668053 C90.1298701,103.564333 90.1298701,103.460613 90.0779221,103.356893 C90.025974,103.305033 89.974026,103.253173 89.9220779,103.149453 C89.9220779,103.149453 89.8701299,103.097593 89.8701299,103.097593 C89.8181818,102.838293 89.7662338,102.578993 89.7142857,102.319694 C88.7272727,99.7266958 86.961039,97.6522976 84.8831169,95.8371991 C84.8831169,95.7334792 84.8311688,95.6816193 84.7272727,95.7334792 C83.7402597,95.1111597 82.7532468,94.4369803 81.7662338,93.8146608 C81.1948052,93.4516411 80.5714286,93.1923414 80,92.8811816 C79.9480519,92.8293217 79.8441558,92.8293217 79.7922078,92.7774617 C79.6883117,92.7256018 79.5844156,92.6737418 79.4805195,92.6218818 L79.4285714,92.5181619 L79.3246753,92.5700219 C79.1688312,92.5181619 78.961039,92.414442 78.8051948,92.3625821 C78.7012987,92.3107221 78.6493506,92.3107221 78.5454545,92.2588621 C78.4415584,92.2070022 78.3376623,92.2070022 78.2337662,92.1551422 C78.0779221,92.1032823 77.9220779,92.0514223 77.8181818,91.9995624 C77.7142857,91.9477024 77.6103896,91.9477024 77.5584416,91.8958425 C77.5064935,91.8958425 77.4545455,91.8439825 77.4025974,91.8439825 C77.1428571,91.7402626 76.8831169,91.6884026 76.6753247,91.5846827 C76.5714286,91.5328228 76.4675325,91.5328228 76.3636364,91.4809628 C76.2597403,91.4291028 76.1558442,91.4291028 76.0519481,91.3772429 C75.9480519,91.3772429 75.7922078,91.3253829 75.6883117,91.3253829 C75.4285714,91.273523 75.1688312,91.1698031 74.9090909,91.1179431 C74.7012987,91.1179431 74.5454545,91.1179431 74.3376623,91.1179431 C73.3506494,90.8586433 72.3636364,90.5993435 71.3766234,90.3919037 C71.2207792,90.3400438 71.0649351,90.3400438 70.9090909,90.2881838 C70.5454545,90.2363239 70.2337662,90.1844639 69.8701299,90.1326039 C69.7142857,90.1326039 69.5584416,90.080744 69.4025974,90.080744 C69.1948052,89.9770241 68.9350649,89.9251641 68.4675325,89.7177243 C69.9220779,88.2656455 71.1688312,86.7617068 72.6753247,85.5689278 C75.9480519,83.0277899 79.5844156,81.1608315 83.6363636,80.0717724 C88.1038961,78.8789934 92.5714286,78.256674 97.1948052,78.9308534 C99.012987,79.1901532 100.831169,79.449453 102.597403,79.6568928 C104.103896,79.8124726 105.194805,80.538512 106.181818,81.6794311 C107.688312,83.4945295 109.558442,84.9984683 110.805195,86.9172867 C112.311688,89.3028446 113.506494,91.8958425 114.649351,94.4888403 C115.376623,96.0964989 115.844156,97.8078775 116.207792,99.519256 C116.571429,101.230635 116.831169,102.993873 116.935065,104.705252 C117.090909,106.77965 117.298701,108.854048 117.194805,110.876586 C116.935065,116.062582 116.103896,121.144858 114.025974,125.967834 C109.298701,136.910284 100.727273,143.548359 89.7142857,147.385996 C88.7272727,147.749015 87.7402597,148.008315 86.7532468,148.319475 C85.8181818,148.578775 84.8311688,148.838074 83.5844156,149.149234 C92.987013,164.707221 102.285714,180.161488 111.688312,195.719475 C107.376623,199.245952 102.441558,201.57965 96.9350649,202.513129 C94.2857143,202.979869 91.5844156,202.979869 88.8831169,203.291028 C86.3376623,203.602188 84.6753247,202.772429 83.5324675,200.335011 C82.0779221,197.119694 80.2597403,194.111816 78.5974026,191.000219 C76.8831169,187.888621 75.0649351,184.828884 73.3506494,181.717287 C71.6363636,178.605689 70.0779221,175.494092 68.3636364,172.382495 C66.5974026,169.167177 64.7792208,165.95186 63.012987,162.736543 C61.4545455,159.884245 59.8961039,157.083807 58.4415584,154.17965 C57.6623377,152.623851 56.8311688,151.845952 54.9090909,151.949672 C50.2857143,152.105252 45.7142857,152.001532 41.0909091,152.001532 C40.6233766,152.001532 39.8961039,151.794092 40.2077922,152.779431 C40.2597403,154.17965 40.3636364,155.579869 40.4155844,157.031947 C40.4155844,157.965427 40.4675325,158.847046 40.4675325,159.780525 C40.4675325,159.832385 40.4155844,159.832385 40.4675325,159.884245 C40.4675325,159.936105 40.5194805,159.987965 40.5194805,160.039825 C40.5194805,160.610284 40.5714286,161.232604 40.5714286,161.803063 C40.6233766,163.047702 40.6753247,164.292341 40.6753247,165.48512 C40.6753247,166.4186 40.7272727,167.300219 40.7272727,168.233698 C40.7272727,168.907877 40.7792208,169.633917 40.7792208,170.308096 C40.7792208,170.671116 40.7792208,171.034136 40.7792208,171.397155 C40.8311688,172.226915 40.8311688,173.108534 40.8831169,173.938293 C40.8831169,174.664333 40.9350649,175.442232 40.9350649,176.168271 C40.987013,177.93151 41.038961,179.642888 41.0909091,181.406127 C41.0909091,182.339606 41.1428571,183.221225 41.1428571,184.154705 C41.1948052,185.191904 41.1948052,186.177243 41.2467532,187.214442 C41.2987013,188.666521 41.3506494,190.17046 41.4025974,191.622538 C41.4545455,192.970897 41.5064935,194.267396 41.5584416,195.615755 C41.6103896,196.964114 41.6103896,198.260613 41.6623377,199.608972 C41.7142857,200.438731 41.7142857,201.26849 41.7662338,202.150109 C41.8181818,203.861488 41.8701299,205.624726 41.9220779,207.336105 C41.9220779,208.477024 41.8701299,209.669803 41.8701299,210.810722 C38.0779221,219.367615 34.2337662,227.976368 30.4415584,236.58512 C29.9220779,235.496061 29.4545455,234.458862 28.9350649,233.421663 C28.8831169,233.369803 28.8831169,233.266083 28.8311688,233.214223 C28.2077922,231.814004 27.5844156,230.361926 26.961039,228.961707 C26.9090909,228.857987 26.8571429,228.806127 26.8571429,228.702407 C25.5584416,225.798249 24.3116883,222.894092 23.012987,219.989934 C22.961039,219.886214 22.9090909,219.834354 22.8571429,219.730635 C22.2857143,218.485996 21.7662338,217.241357 21.1948052,215.996718 C21.1428571,215.944858 21.1428571,215.892998 21.0909091,215.789278 C20.4155844,214.181619 19.6883117,212.625821 19.012987,211.018162 C18.961039,210.914442 18.9090909,210.862582 18.9090909,210.758862 C18.9090909,209.929103 18.961039,209.151204 18.961039,208.321444 C18.961039,208.062144 19.012987,207.802845 19.012987,207.543545 C19.0649351,205.572867 19.1168831,203.550328 19.1688312,201.57965 C19.2207792,200.90547 19.2207792,200.231291 19.2727273,199.608972 C19.3246753,197.793873 19.3766234,195.978775 19.3766234,194.111816 C19.4285714,193.437637 19.4285714,192.763457 19.4805195,192.141138 C19.5324675,190.222319 19.5844156,188.303501 19.5844156,186.436543 C19.6363636,185.191904 19.6363636,183.999125 19.6883117,182.754486 C19.7402597,181.354267 19.7922078,179.902188 19.8441558,178.501969 C19.8961039,176.998031 19.9480519,175.494092 20,174.042013 C20.0519481,172.486214 20.1038961,170.878556 20.1038961,169.322757 C20.1558442,168.492998 20.2077922,167.663239 20.2077922,166.833479 C20.2597403,164.862801 20.3116883,162.840263 20.3636364,160.869584 C20.4155844,159.936105 20.4675325,159.054486 20.4675325,158.121007 C20.5194805,156.565208 20.5714286,154.957549 20.5714286,153.401751 C20.5714286,153.142451 20.5714286,152.883151 20.5714286,152.623851 C20.5714286,152.208972 20.5714286,151.794092 20.5714286,151.431072 C20.6233766,151.275492 20.6753247,151.068053 20.6753247,150.912473 C20.7272727,148.578775 20.7792208,146.245077 20.7792208,143.963239 C20.7792208,143.807659 20.8311688,143.652079 20.8311688,143.444639 C20.8831169,141.266521 20.9350649,139.140263 20.987013,136.962144 C20.987013,136.702845 20.987013,136.443545 20.987013,136.236105 C20.987013,136.132385 20.987013,135.976805 20.987013,135.873085 C21.038961,135.769365 21.038961,135.665646 21.0909091,135.510066 C21.1428571,133.591247 21.1948052,131.672429 21.2467532,129.753611 C21.2467532,129.598031 21.2467532,129.442451 21.2467532,129.235011 C21.2467532,128.871991 21.2467532,128.508972 21.2467532,128.145952 C21.2467532,127.938512 21.2987013,127.731072 21.2987013,127.523632 C21.3506494,125.864114 21.4025974,124.152735 21.4545455,122.493217 C21.4545455,122.233917 21.4545455,121.974617 21.4545455,121.767177 C21.4545455,121.404158 21.4545455,121.041138 21.4545455,120.678118 C21.5064935,120.055799 21.5064935,119.433479 21.5584416,118.81116 C21.6103896,117.307221 21.6623377,115.803282 21.7142857,114.299344 C21.7142857,113.728884 21.7142857,113.158425 21.7142857,112.536105 L21.7662338,112.484245 C21.7662338,112.484245 21.7142857,112.432385 21.7142857,112.432385 C21.7142857,111.913786 21.7662338,111.395186 21.7662338,110.824726 C21.8181818,108.750328 21.8701299,106.62407 21.974026,104.549672 C21.974026,104.134792 21.974026,103.719912 22.025974,103.356893 C22.025974,103.253173 22.0779221,103.149453 22.0779221,103.097593 C22.1298701,100.867615 22.1818182,98.6376368 22.2337662,96.4076586 C22.2337662,96.3039387 22.2857143,96.2002188 22.2857143,96.1483589 C22.3376623,93.9183807 22.4415584,91.6365427 22.4935065,89.4065646 C22.7012987,88.836105 22.7012987,88.1100656 22.7012987,87.3321663 C22.7532468,85.1540481 22.8571429,83.0277899 22.9090909,80.8496718 C22.961039,80.4347921 22.961039,80.0199125 23.012987,79.6050328 C23.0649351,77.5306346 23.1168831,75.4562363 23.1688312,73.3818381 C23.2207792,72.4483589 23.2207792,71.5667396 23.2727273,70.6332604 C23.3246753,69.3367615 23.4285714,68.0402626 23.3246753,66.7437637 C23.2727273,66.2770241 22.8051948,65.8621444 22.4935065,65.3954048 C22.4415584,65.2916849 22.4415584,65.187965 22.3896104,65.0842451 C22.2337662,64.6175055 22.1298701,64.0989059 21.974026,63.6321663 C21.9220779,63.5284464 21.8701299,63.4765864 21.8701299,63.3728665 C21.8181818,63.2172867 21.7662338,63.0617068 21.7662338,62.9061269 C21.7142857,62.802407 21.6623377,62.750547 21.6623377,62.6468271 C20.987013,60.416849 20.0519481,58.4461707 17.4545455,57.9275711 C17.3506494,57.8757112 17.2467532,57.8757112 17.1428571,57.8238512 C16.6233766,57.7719912 16.0519481,57.7201313 15.5324675,57.6682713 C15.2207792,57.6682713 14.961039,57.6164114 14.6493506,57.6164114 C13.4025974,57.6164114 12.1038961,57.6164114 10.8571429,57.6164114 C10.7532468,57.6682713 10.7012987,57.6682713 10.5974026,57.7201313 C10.1818182,57.8238512 9.76623377,57.9794311 9.35064935,58.083151 C9.2987013,58.1350109 9.24675325,58.1868709 9.14285714,58.2387309 C7.27272727,59.6389497 7.01298701,61.0391685 8.31168831,63.6321663 C6.7012987,64.4619256 4.72727273,64.2544858 3.32467532,62.802407 C2.44155844,61.9207877 1.87012987,60.7280088 1.19480519,59.6908096 C1.03896104,59.4315098 0.883116883,59.1722101 0.727272727,58.9129103 C0.623376623,58.6017505 0.519480519,58.2905908 0.415584416,57.9275711 C0.415584416,57.3571116 0.415584416,56.7866521 0.415584416,56.1643326 C0.883116883,54.6603939 1.87012987,53.4157549 1.2987013,51.5487965 C0.363636364,48.4371991 3.79220779,44.1328228 7.27272727,44.9107221 C5.87012987,47.6074398 7.22077922,50.0967177 10.3376623,50.5115974 C10.5974026,50.5634573 10.8571429,50.6153173 11.1168831,50.6153173 C14.025974,50.6153173 16.9350649,50.6153173 19.8441558,50.6153173 C20.3636364,50.5634573 20.8831169,50.5115974 21.3506494,50.4597374 C22.9090909,50.1485777 24.5194805,49.8374179 26.0779221,49.5262582 C23.8441558,49.0076586 23.8441558,49.0076586 23.8441558,46.7258206 C23.8441558,45.8442013 23.8441558,45.014442 23.8441558,44.0291028 C24.2077922,44.0291028 24.4675325,43.9772429 24.7272727,44.0291028 C28.4155844,45.1700219 32.1038961,46.3109409 35.8441558,47.45186 C36.5194805,47.6592998 36.9350649,47.9704595 36.8311688,48.6964989 C36.1558442,48.9557987 35.4805195,49.1632385 34.7012987,49.4743982 C35.8961039,50.3560175 37.2467532,50.3041575 38.5454545,50.4597374 C38.7012987,50.4597374 38.8571429,50.4597374 39.0649351,50.4597374 L39.1688312,50.5115974 L39.2727273,50.5115974 C39.6883117,50.5115974 40.1558442,50.4597374 40.5714286,50.4597374 C40.5714286,50.5115974 40.6233766,50.6153173 40.5714286,50.6671772 C43.6363636,50.6671772 46.7012987,50.6671772 49.7662338,50.6153173 C50.1298701,50.5634573 50.4415584,50.5115974 50.8051948,50.4597374 C52.5714286,49.785558 54.1818182,48.9039387 54.025974,46.6221007 C53.974026,45.9997812 53.7142857,45.3774617 53.5584416,44.8070022 C56.0519481,44.4958425 58.6493506,46.3628009 59.2207792,49.1113786 C59.3766234,49.733698 59.6363636,50.5115974 59.4285714,51.0301969 C58.8051948,52.5341357 59.4285714,53.8306346 59.7402597,55.2308534 C60.5194805,58.2387309 59.5844156,60.8835886 57.4025974,63.0617068 C56.3116883,64.1507659 53.5064935,64.4100656 52.3116883,63.6321663 C53.1428571,62.3356674 53.4025974,60.9354486 52.8311688,59.5352298 C52.3116883,58.2387309 51.1168831,57.6682713 49.8181818,57.6682713 C47.5324675,57.7201313 45.2467532,57.9794311 42.961039,58.083151 C41.5584416,58.1350109 40.8311688,59.22407 40.3116883,60.2094092 C39.4805195,61.7133479 38.961039,63.4247265 38.2857143,65.0323851 C38.1298701,65.4472648 37.8181818,65.8102845 37.5584416,66.1733042 C37.5584416,66.328884 37.5064935,66.4844639 37.5064935,66.6919037 C37.5064935,67.0030635 37.5584416,67.3142232 37.5584416,67.6253829 C37.5997519,67.6460031 37.6328495,67.6666232 37.6642653,67.6872433 C37.6941798,67.698648 37.7203539,67.7186495 37.7468671,67.7411388 C37.7683966,67.7544135 37.7915874,67.7676881 37.8181818,67.7809628 C44.987013,67.7809628 52.1558442,67.7809628 59.3246753,67.8328228 C61.8181818,67.8328228 64.3116883,67.8328228 66.8051948,67.8328228 C66.8155844,67.8501094 66.825974,67.8673961 66.8363636,67.8846827 L68.1038961,67.8846827 C68.1558442,67.9884026 68.1558442,68.0402626 68.2077922,68.1439825 C67.8961039,68.2995624 67.5844156,68.4551422 67.2727273,68.6625821 L67.248843,68.6228425 C63.9855912,70.2800854 61.0321354,72.2985836 58.2337662,74.678337 C54.2337662,78.0492341 51.2727273,82.1461707 48.9350649,86.7617068 C48.4675325,87.643326 48.2077922,88.6286652 47.8441558,89.5102845 C47.7402597,89.6140044 47.6883117,89.6658643 47.5844156,89.7695842 C44.5714286,89.7695842 41.6103896,89.8214442 38.5974026,89.8214442 C38.5454545,90.8586433 38.4415584,91.9477024 38.3896104,92.9849015 C38.4415584,94.3851204 38.4935065,95.8371991 38.5454545,97.2374179 C38.5974026,98.7932166 38.6493506,100.349015 38.6493506,101.956674 C38.7012987,102.475274 38.7012987,102.942013 38.7532468,103.460613 C38.7532468,103.616193 38.7532468,103.771772 38.8051948,103.927352 C38.8051948,104.601532 38.8051948,105.275711 38.8051948,105.949891 C38.8571429,106.83151 38.8571429,107.764989 38.9090909,108.646608 C38.961039,109.580088 39.012987,110.513567 39.012987,111.395186 C39.012987,111.706346 39.012987,112.017505 39.012987,112.328665 C39.012987,113.002845 39.012987,113.677024 39.012987,114.351204 C39.012987,114.386178 38.9893601,114.397566 38.9739744,114.41718 C39.0134147,114.464335 39.0177006,114.511489 39.0649351,114.558643 C39.0719503,114.57265 39.0770709,114.585711 39.0806805,114.597826 C39.092748,114.616973 39.1048156,114.638269 39.1168831,114.662363 C39.1688312,116.736761 39.2207792,118.81116 39.2727273,120.833698 C39.2727273,121.144858 39.2727273,121.456018 39.2727273,121.767177 C39.2727273,121.922757 39.2727273,122.130197 39.2727273,122.285777 C39.3246753,122.441357 39.3246753,122.596937 39.3766234,122.752516 C39.4285714,124.930635 39.4805195,127.056893 39.5324675,129.235011 C39.5844156,129.649891 39.5844156,130.06477 39.6363636,130.47965 C39.7733378,130.530928 39.910312,130.58784 40.0472861,130.642958 C40.4644245,130.707903 40.8815629,130.79081 41.2987013,130.79081 C47.8638722,130.84084 54.4290432,130.842605 61.0408571,130.842667 C61.3042323,130.809094 61.5686084,130.766633 61.8181818,130.73895 C62.9090909,130.68709 64,130.68709 65.0909091,130.63523 C65.6103896,130.58337 66.0779221,130.53151 66.5974026,130.47965 C68.6233766,130.16849 70.5974026,129.90919 72.6233766,129.598031 C72.7792208,129.546171 72.9350649,129.546171 73.0909091,129.494311 C73.2467532,129.442451 73.4025974,129.442451 73.6103896,129.390591 C73.7662338,129.338731 73.974026,129.286871 74.1298701,129.235011 C74.3896104,129.183151 74.6493506,129.079431 74.9090909,129.027571 C75.012987,129.027571 75.1688312,128.975711 75.2727273,128.975711 C75.3766234,128.923851 75.4805195,128.923851 75.5844156,128.871991 C75.7402597,128.820131 75.8961039,128.768271 76.0519481,128.768271 C76.2597403,128.716411 76.4155844,128.612691 76.6233766,128.560832 C76.6233766,128.560832 76.7272727,128.612691 76.7272727,128.612691 L76.7792208,128.508972 C76.8831169,128.457112 76.987013,128.457112 77.0909091,128.405252 C77.2467532,128.353392 77.4025974,128.301532 77.5584416,128.249672 C77.6623377,128.197812 77.7662338,128.197812 77.8701299,128.145952 C78.025974,128.094092 78.1298701,128.042232 78.2857143,127.990372 C78.3896104,127.938512 78.4935065,127.886652 78.5974026,127.886652 C78.7012987,127.834792 78.7532468,127.834792 78.8571429,127.782932 C82.0376154,126.553869 84.8634961,124.768536 86.9846308,122.077371 Z M48.0523175,114.976115 C48.0363631,114.957964 48.0181815,114.939814 48,114.921663 C47.6883117,112.899125 47.2727273,110.824726 47.0649351,108.802188 C46.8571429,106.88337 46.7012987,104.964551 46.8051948,103.045733 C46.9090909,101.075055 47.2727273,99.0525164 47.5324675,97.0818381 C47.5844156,96.9262582 47.6363636,96.7188184 47.6883117,96.5632385 C47.7402597,96.3039387 47.7402597,96.0964989 47.7922078,95.8371991 C47.8143939,95.7929022 47.8271047,95.7580645 47.8384336,95.7246063 C47.8240191,95.74872 47.8081135,95.7694605 47.7922078,95.7853392 C47.8441558,95.6816193 47.8441558,95.6297593 47.8961039,95.5260394 C47.8961039,95.5478405 47.8938088,95.5696417 47.889701,95.5909612 C47.8917453,95.5866971 47.8938768,95.5823459 47.8961039,95.5778993 C47.9480519,95.3185996 48,95.0592998 48.0519481,94.8 C48.0519481,94.8 48.1038961,94.74814 48.1038961,94.74814 C48.1038961,94.6962801 48.1038961,94.6444201 48.1038961,94.5925602 C49.038961,92.0514223 49.7662338,89.3547046 50.961039,86.9691466 C53.9220779,81.2126915 58.2337662,76.7008753 63.5844156,73.0188184 C67.8441558,70.1146608 72.5714286,68.1958425 77.4545455,66.6400438 C79.3766234,66.0177243 81.2987013,65.8102845 83.2727273,65.4472648 C85.2467532,65.0842451 87.2727273,64.9286652 89.2467532,64.6693654 C89.7662338,64.6175055 90.2857143,64.3063457 90.8051948,64.1507659 C91.012987,64.0989059 91.2207792,64.0989059 91.4285714,64.0989059 C93.038961,64.0989059 94.6493506,63.943326 96.2077922,64.1507659 C97.6623377,64.3063457 99.0649351,65.0323851 100.571429,64.3063457 C101.922078,65.4991247 103.688312,65.136105 105.246753,65.3954048 C113.922078,66.8993435 121.818182,70.1146608 128.727273,75.5080963 C130.961039,77.2713348 132.779221,79.5013129 134.805195,81.5238512 C134.961039,81.6794311 135.064935,81.9387309 135.220779,82.1980306 C131.324675,85.361488 127.428571,88.4730853 123.584416,91.5846827 C122.077922,89.8733042 120.675325,88.2137856 119.168831,86.6579869 C116.363636,83.7538293 112.987013,81.6275711 109.246753,80.1236324 C106.545455,79.0345733 103.688312,78.4122538 100.883117,77.6343545 C100.207792,77.4269147 99.4805195,77.4269147 98.7532468,77.3231947 C98.5974026,77.3231947 98.4415584,77.2713348 98.2857143,77.2713348 C95.3766234,77.2194748 92.4155844,77.2194748 89.5064935,77.1676149 C89.1428571,77.2194748 88.8311688,77.2713348 88.4675325,77.3231947 C87.2207792,77.5306346 85.974026,77.7380744 84.7272727,77.9455142 C84.6233766,77.9973742 84.5194805,77.9973742 84.4675325,78.0492341 C83.8961039,78.204814 83.3246753,78.3603939 82.7012987,78.5159737 C82.6493506,78.5159737 82.5454545,78.5678337 82.4935065,78.5678337 C74.7532468,80.7459519 68.7272727,85.1021882 64.7792208,92.1551422 C64.1558442,93.2960613 63.7922078,94.5407002 63.3246753,95.7334792 C63.2207792,95.940919 63.1688312,96.0964989 63.1168831,96.2520788 C63.012987,96.6669584 62.9090909,97.0818381 62.7532468,97.4967177 C62.7012987,97.6522976 62.6493506,97.8078775 62.6493506,97.9634573 C60.2597403,107.816849 62.3376623,119.692779 76.3116883,127.005033 C74.1298701,127.368053 71.9480519,127.731072 69.7662338,128.094092 C65.6103896,128.820131 61.4545455,128.820131 57.2467532,128.871991 C55.6883117,128.871991 54.7532468,128.508972 53.8181818,127.160613 C51.9480519,124.308315 50.1298701,121.507877 49.038961,118.29256 C48.9350649,117.92954 48.7792208,117.514661 48.6753247,117.151641 C48.6233766,116.996061 48.5714286,116.840481 48.5194805,116.684902 C48.3636364,116.166302 48.2077922,115.647702 48.0519481,115.129103 C48.0519481,115.129103 48.066697,115.114379 48.0804772,115.100622 C48.0586474,115.06706 48.0535212,115.029811 48.0523175,114.976115 Z M35.5720522,5.12796123 C35.5934894,5.14540189 35.6149265,5.16459483 35.6363636,5.18599562 C35.6875919,6.2599653 35.6883017,7.33393498 35.7381301,8.40790466 C35.7388197,8.40569735 35.7395295,8.40350001 35.7402597,8.40131291 L35.7402597,8.45317287 L35.7402597,8.97177243 C35.4805195,9.1273523 35.1688312,9.49037199 34.9090909,9.43851204 C33.038961,8.97177243 31.1168831,8.45317287 29.2467532,7.9345733 C28.2597403,7.67527352 27.2727273,7.31225383 26.2857143,7.00109409 C26.2337662,6.89737418 26.1818182,6.84551422 26.1298701,6.79365427 C25.1428571,6.58621444 25.2987013,5.86017505 25.4025974,4.9785558 C28.7272727,4.9785558 32,4.9785558 35.3246753,4.9785558 C35.3287965,4.98061287 35.3329176,4.98266994 35.3370387,4.98473024 C35.3156016,4.96728958 35.2941644,4.94809663 35.2727273,4.92669584 C35.2941644,4.94809663 35.3156016,4.96728958 35.3370387,4.98473024 C35.4153765,5.02389426 35.4937144,5.06422775 35.5720522,5.12796123 C35.5761733,5.13002153 35.5802945,5.1320786 35.5844156,5.13413567 C35.5802945,5.1320786 35.5761733,5.13002153 35.5720522,5.12796123 Z M264.389674,142.467101 C264.369711,142.505096 264.340699,142.534058 264.311688,142.56302 C264.311688,154.12779 264.311688,165.69256 264.25974,177.25733 C264.25974,177.72407 264.25974,178.24267 264.25974,178.864989 C263.636364,178.864989 263.064935,178.864989 262.493506,178.864989 C258.337662,178.864989 254.181818,178.864989 250.025974,178.864989 C249.662338,178.864989 249.298701,178.605689 248.883117,178.450109 C248.831169,177.98337 248.727273,177.56849 248.727273,177.101751 C248.727273,149.512254 248.727273,121.922757 248.727273,94.3332604 C248.779221,93.8665208 248.883117,93.4516411 248.883117,92.9849015 C249.194805,92.8293217 249.558442,92.5700219 249.87013,92.5700219 C259.844156,92.5700219 269.818182,92.5181619 279.792208,92.5700219 C281.454545,92.5700219 283.064935,92.7774617 284.675325,92.9849015 C287.376623,93.3479212 290.181818,93.607221 292.831169,94.3332604 C295.584416,95.0592998 298.12987,96.4595186 300.675325,97.9115974 C303.896104,99.7266958 306.025974,102.527133 308,105.431291 C309.090909,106.98709 309.558442,109.009628 310.025974,110.928446 C311.220779,116.166302 311.012987,121.404158 309.090909,126.538293 C308.103896,129.079431 306.597403,131.257549 304.831169,133.331947 C302.753247,135.769365 300,137.221444 297.246753,138.517943 C295.584416,139.295842 293.714286,139.710722 291.948052,140.333042 C291.688312,140.436761 291.428571,140.540481 291.064935,140.696061 C298.701299,153.349891 306.337662,166.00372 314.077922,178.864989 C313.506494,178.864989 313.194805,178.864989 312.883117,178.864989 C307.376623,178.864989 301.922078,178.864989 296.415584,178.864989 C295.584416,178.864989 295.168831,178.657549 294.753247,177.82779 C293.090909,174.664333 291.324675,171.552735 289.558442,168.441138 C288.415584,166.36674 287.272727,164.292341 286.12987,162.217943 C284.363636,159.002626 282.545455,155.735449 280.779221,152.520131 C279.636364,150.393873 278.493506,148.267615 277.350649,146.141357 C276.727273,145.000438 276.155844,143.859519 275.480519,142.77046 C275.324675,142.51116 274.909091,142.35558 274.649351,142.35558 C271.220779,142.35558 267.844156,142.35558 264.415584,142.35558 C264.415584,142.401376 264.405457,142.437062 264.389674,142.467101 C264.360161,142.50334 264.335925,142.538824 264.311688,142.56302 C264.363636,142.51116 264.415584,142.4593 264.519481,142.35558 C264.464058,142.383244 264.423417,142.425666 264.389674,142.467101 Z M35.9578883,18.5030658 C35.9729494,18.48513 36,18.4477072 36,18.4102845 C36.0519481,18.4621444 36.0519481,18.5140044 36.0519481,18.5658643 C36.1038961,18.5658643 36.1038961,18.6177243 36.0519481,18.6695842 L36.0519481,21.7811816 C34.9090909,21.5218818 33.7662338,21.314442 32.6753247,20.9514223 C30.3376623,20.2772429 28,19.4474836 25.6103896,18.7733042 C24.8831169,18.5658643 24.5714286,18.1509847 24.6753247,17.4768053 C24.7792208,16.3358862 24.8831169,15.1431072 25.038961,13.9503282 C28.3636364,14.8838074 31.6883117,15.8691466 35.0649351,16.8544858 C35.1688312,16.9582057 35.2727273,16.9582057 35.3246753,17.0100656 C35.5324675,17.4768053 35.7922078,17.9435449 36,18.3584245 C36,18.4102845 35.9480519,18.4102845 35.9480519,18.4621444 C35.9480519,18.4757849 35.9516458,18.4894254 35.9578883,18.5030658 Z M370.935065,90.4437637 L370.909091,90.4956236 C371.012987,90.4956236 371.116883,90.4956236 371.220779,90.4956236 C371.168831,90.3919037 371.116883,90.3400438 371.064935,90.1844639 L370.935065,90.4437637 L371.012987,90.4437637 C371.012987,90.4956236 371.116883,90.4956236 371.220779,90.4956236 C373.350649,90.6512035 375.532468,90.5993435 377.61039,91.0660832 C380.779221,91.7921225 383.896104,92.7256018 386.961039,93.8146608 C389.090909,94.5407002 391.272727,95.2667396 393.090909,96.5113786 C396.25974,98.6894967 399.220779,101.126915 402.077922,103.616193 C403.792208,105.120131 405.298701,106.83151 406.597403,108.698468 C408.051948,110.876586 409.194805,113.210284 410.337662,115.595842 C411.636364,118.2407 412.467532,120.989278 413.090909,123.841575 C414.077922,128.249672 414.38961,132.709628 414.337662,137.221444 C414.285714,139.866302 413.974026,142.40744 413.402597,145.000438 C412.987013,146.763676 412.831169,148.630635 412.363636,150.393873 C411.948052,151.897812 411.168831,153.246171 410.597403,154.698249 C410.12987,155.839168 409.714286,157.031947 409.090909,158.069147 C408.25974,159.469365 407.272727,160.765864 406.38961,162.166083 C404.571429,164.966521 402.441558,167.611379 399.844156,169.685777 C396.779221,172.123195 393.298701,174.145733 389.87013,176.116411 C387.636364,177.36105 385.142857,178.398249 382.701299,179.072429 C379.844156,179.850328 376.987013,180.680088 373.974026,180.628228 C373.090909,180.628228 372.207792,180.783807 371.272727,180.887527 C371.116883,180.887527 370.909091,180.887527 370.753247,180.887527 C370.493506,180.887527 370.285714,180.887527 370.025974,180.939387 C368.519481,180.939387 367.012987,180.939387 365.506494,180.939387 C361.714286,180.939387 357.974026,180.265208 354.285714,179.331729 C348.675325,177.87965 343.480519,175.545952 338.909091,172.019475 C337.090909,170.619256 335.272727,169.167177 333.714286,167.507659 C330.649351,164.292341 328,160.714004 326.181818,156.617068 C324.883117,153.66105 323.428571,150.705033 322.649351,147.593435 C321.87013,144.429978 321.922078,141.059081 321.61039,137.791904 C321.61039,136.184245 321.61039,134.628446 321.61039,133.020788 C321.714286,128.871991 322.285714,124.775055 323.532468,120.729978 C324,119.277899 324.207792,117.722101 324.779221,116.321882 C325.246753,115.129103 326.181818,114.091904 326.701299,112.950985 C328.519481,109.061488 331.220779,105.846171 334.181818,102.786433 C335.428571,101.489934 336.935065,100.504595 338.285714,99.4155361 C342.233766,96.2520788 346.701299,94.1776805 351.480519,92.8293217 C354.701299,91.8958425 358.077922,91.3772429 361.402597,90.8067834 C362.753247,90.5474836 364.155844,90.5474836 365.558442,90.4437637 C367.064935,90.4437637 368.571429,90.4437637 370.077922,90.4437637 L370.935065,90.4437637 Z M476.842194,180.985786 C476.763633,181.085714 476.712706,181.213229 476.623377,181.302407 C476.571429,181.198687 476.467532,181.043107 476.363636,180.939387 C476.051948,180.939387 475.74026,180.939387 475.428571,180.939387 C473.506494,180.939387 471.584416,180.939387 469.662338,180.939387 C467.064935,180.731947 464.467532,180.628228 461.922078,180.317068 C460.311688,180.109628 458.753247,179.746608 457.194805,179.331729 C455.948052,178.968709 454.753247,178.398249 453.506494,177.87965 C451.116883,176.842451 448.675325,175.908972 446.38961,174.664333 C443.324675,173.004814 440.623377,170.826696 438.12987,168.389278 C435.168831,165.53698 432.727273,162.425383 430.701299,158.898906 C429.506494,156.772648 428.675325,154.49081 427.792208,152.208972 C427.116883,150.653173 426.12987,149.045514 426.077922,147.385996 C425.974026,145.415317 425.142857,143.652079 425.298701,141.62954 C425.454545,139.295842 424.883117,136.910284 424.883117,134.576586 C424.935065,132.242888 425.298701,129.90919 425.61039,127.575492 C425.818182,125.915974 425.974026,124.308315 426.285714,122.700656 C426.441558,121.974617 426.805195,121.248578 427.064935,120.522538 C427.220779,120.159519 427.480519,119.796499 427.532468,119.433479 C427.896104,116.736761 429.506494,114.662363 430.701299,112.328665 C432.831169,108.076149 436.103896,104.705252 439.532468,101.541794 C441.298701,99.9341357 443.428571,98.6376368 445.454545,97.3411379 C447.220779,96.2002188 449.090909,95.1630197 450.961039,94.1776805 C451.480519,93.9183807 452.155844,93.9702407 452.727273,93.7628009 C454.285714,93.2442013 455.792208,92.5700219 457.350649,92.1551422 C459.012987,91.7402626 460.779221,91.5328228 462.441558,91.221663 C463.376623,91.0660832 464.25974,90.7030635 465.194805,90.6512035 C466.701299,90.5474836 468.207792,90.5993435 469.714286,90.5474836 C471.220779,90.5474836 472.727273,90.5474836 474.233766,90.5474836 C478.753247,90.7549234 483.220779,91.3253829 487.532468,92.5700219 C489.402597,93.0886214 491.376623,93.4516411 493.194805,94.1776805 C495.012987,94.9037199 496.727273,95.8890591 498.441558,96.8743982 C499.844156,97.6522976 501.194805,98.4820569 502.545455,99.3636761 C503.324675,99.8822757 504,100.608315 504.831169,101.282495 C501.298701,105.120131 497.662338,109.009628 494.12987,112.795405 C492.415584,111.447046 490.961039,110.046827 489.246753,109.061488 C486.909091,107.713129 484.519481,106.41663 481.974026,105.690591 C479.220779,104.860832 476.363636,104.497812 473.506494,104.186652 C469.246753,103.771772 465.194805,104.497812 461.246753,105.846171 C456.623377,107.401969 452.623377,110.098687 449.506494,113.936324 C448.155844,115.595842 446.857143,117.359081 445.922078,119.277899 C444.883117,121.456018 444.363636,123.945295 443.428571,126.175274 C441.87013,129.85733 441.922078,133.746827 442.077922,137.636324 C442.181818,140.229322 442.337662,142.822319 443.428571,145.259737 C444.103896,146.815536 444.25974,148.630635 445.038961,150.186433 C446.181818,152.468271 447.428571,154.750109 448.987013,156.772648 C451.480519,159.987965 454.597403,162.684683 458.38961,164.136761 C461.402597,165.32954 464.415584,166.833479 467.792208,166.781619 C470.12987,166.781619 472.467532,167.248359 474.805195,167.196499 C477.194805,167.092779 479.584416,166.677899 481.922078,166.26302 C484.051948,165.9 486.181818,165.32954 488.311688,164.810941 C489.506494,164.499781 490.025974,163.877462 489.974026,162.477243 C489.87013,156.202188 489.922078,149.927133 489.922078,143.703939 C489.922078,143.289059 489.922078,142.874179 489.922078,142.40744 C483.844156,142.40744 477.818182,142.40744 471.792208,142.40744 C471.792208,138.154923 471.792208,133.954267 471.792208,129.753611 C482.805195,129.753611 493.766234,129.753611 504.883117,129.753611 C504.883117,130.22035 504.883117,130.63523 504.883117,131.050109 C504.883117,144.844858 504.883117,158.691466 504.883117,172.486214 C504.883117,173.108534 505.090909,173.990153 504.779221,174.301313 C504.155844,174.923632 503.272727,175.390372 502.441558,175.701532 C500.25974,176.531291 498.025974,177.30919 495.792208,178.03523 C494.181818,178.501969 492.571429,178.864989 490.909091,179.228009 C489.922078,179.435449 488.935065,179.642888 487.948052,179.746608 C484.311688,180.213348 480.675325,180.576368 477.038961,181.043107 C476.965652,181.018712 476.900964,181.000055 476.842194,180.985786 Z M24.2077922,40.6322757 C24.2207792,40.347046 24.2337662,40.0618162 24.2597403,39.7765864 C24.2597403,38.4282276 24.2597403,37.0798687 24.2597403,35.52407 C27.2727273,36.4056893 30.0779221,37.2354486 32.9350649,38.0652079 C34.0779221,38.3763676 35.2207792,38.6875274 36.3116883,38.9986871 C36.4155844,39.102407 36.5194805,39.154267 36.6233766,39.2061269 C36.6753247,39.4135667 36.7272727,39.5691466 36.7272727,39.7765864 C36.7319285,39.9392621 36.736167,40.1019377 36.740063,40.2646133 C36.8302071,45.222851 36.8306791,45.2223709 36.8311555,45.2218951 C36.8311644,45.2391729 36.8311688,45.2564551 36.8311688,45.2737418 C36.830688,45.2569397 36.8302115,45.2401375 36.8297395,45.2233354 C36.7792252,45.2756621 36.7797017,45.3784219 36.8311688,45.4811816 C36.7272727,45.5330416 36.6753247,45.5849015 36.5714286,45.6367615 C33.0909091,44.6514223 29.6623377,43.6660832 26.1818182,42.680744 C25.9220779,42.628884 25.6103896,42.5770241 25.3506494,42.5251641 C25.2467532,42.4214442 25.1948052,42.3695842 25.0909091,42.2658643 C24.7792208,42.0065646 24.4675325,41.7472648 24.1558442,41.487965 C24.1818182,41.2027352 24.1948052,40.9175055 24.2077922,40.6322757 C24.2077922,40.9175055 24.1818182,41.2027352 24.1558442,41.487965 C24.2077922,40.9175055 24.2077922,40.347046 24.2597403,39.7765864 C24.2597403,40.0618162 24.2467532,40.347046 24.2272727,40.6322757 Z M698.206606,180.939387 L699.844156,180.939387 C698.489276,180.987694 697.17947,180.991004 695.830767,180.949317 C695.731515,180.946249 695.632113,180.94294 695.532468,180.939387 C692.415584,180.887527 689.350649,180.420788 686.337662,179.642888 C681.350649,178.346389 676.779221,176.375711 672.675325,173.264114 C670.961039,171.967615 669.454545,170.308096 667.74026,168.700438 C671.480519,165.225821 675.116883,161.854923 678.909091,158.328446 C679.480519,159.002626 679.948052,159.624945 680.519481,160.195405 C683.064935,162.632823 685.818182,164.862801 689.194805,166.10744 C691.844156,167.092779 694.545455,167.922538 697.454545,167.922538 C701.350649,167.922538 705.038961,167.196499 708.25974,164.914661 C710.337662,163.462582 712.103896,161.647484 712.623377,158.950766 C712.883117,157.602407 713.402597,156.357768 713.506494,155.009409 C713.61039,153.97221 713.402597,152.831291 713.038961,151.845952 C711.948052,148.889934 709.922078,146.659956 707.064935,145.415317 C703.428571,143.807659 699.74026,142.25186 696,141.007221 C691.792208,139.607002 687.532468,138.362363 683.584416,136.236105 C680.103896,134.369147 677.298701,131.776149 675.064935,128.508972 C673.298701,125.915974 672.467532,122.959956 671.844156,120.003939 C671.428571,118.03326 671.844156,115.855142 671.948052,113.780744 C672,112.587965 672.051948,111.447046 672.207792,110.254267 C672.25974,109.735667 672.727273,109.320788 672.779221,108.802188 C673.090909,106.67593 674.337662,104.964551 675.064935,103.045733 C675.428571,102.060394 676.311688,101.282495 677.038961,100.452735 C680.675325,96.3557987 685.194805,93.8146608 690.38961,92.2588621 C693.922078,91.1698031 697.506494,90.2363239 701.298701,90.4437637 C704.675325,90.6512035 708.155844,90.3400438 711.428571,91.0660832 C716.935065,92.2070022 722.12987,94.3332604 726.649351,97.8597374 C727.116883,98.2227571 727.532468,98.5857768 728,98.9487965 C728.311688,99.2080963 728.571429,99.4155361 728.831169,99.6229759 C725.402597,103.356893 722.025974,106.98709 718.857143,110.461707 C716.779221,108.905908 714.909091,107.350109 712.883117,106.053611 C710.701299,104.653392 708.207792,103.823632 705.61039,103.408753 C701.714286,102.838293 697.87013,103.305033 694.337662,104.964551 C692.25974,105.949891 690.285714,107.19453 689.194805,109.320788 C687.74026,112.121225 686.961039,115.232823 688.155844,118.2407 C689.038961,120.574398 690.545455,122.648796 693.038961,123.685996 C694.597403,124.360175 696,125.345514 697.558442,125.915974 C699.168831,126.538293 700.935065,126.797593 702.597403,127.368053 C705.714286,128.457112 708.831169,129.649891 711.948052,130.89453 C713.974026,131.672429 716,132.502188 717.87013,133.487527 C720.415584,134.887746 722.545455,136.858425 724.467532,139.036543 C726.285714,141.110941 727.480519,143.496499 728.467532,145.985777 C729.038961,147.437856 728.987013,149.149234 729.142857,150.756893 C729.298701,152.727571 729.454545,154.698249 729.350649,156.720788 C729.298701,158.017287 728.779221,159.261926 728.519481,160.506565 C728.051948,162.943982 727.064935,165.173961 725.974026,167.352079 C724.831169,169.633917 723.012987,171.449015 721.090909,173.056674 C719.532468,174.353173 717.922078,175.545952 716.207792,176.635011 C714.961039,177.41291 713.506494,177.87965 712.103896,178.450109 C711.012987,178.916849 709.922078,179.331729 708.779221,179.642888 C707.480519,180.005908 706.181818,180.265208 704.831169,180.420788 C703.220779,180.628228 701.558442,180.680088 699.896104,180.783807 C699.320675,180.863042 698.760404,180.912012 698.206606,180.939387 Z M659.430783,165.272887 C659.430056,165.257187 659.429319,165.241499 659.428571,165.225821 C659.435084,165.242075 659.441801,165.25833 659.448671,165.274572 C659.459308,165.275587 659.469925,165.276623 659.480519,165.277681 C659.480519,165.301048 659.480543,165.32444 659.48059,165.347854 C659.577597,165.56533 659.688312,165.777016 659.688312,165.95186 C659.688312,169.945077 659.688312,173.938293 659.688312,177.93151 C659.688312,178.013511 659.659449,178.095512 659.632149,178.177513 C659.633516,178.268417 659.63492,178.359283 659.636364,178.450109 C659.168831,178.605689 658.753247,178.864989 658.285714,178.864989 C639.480519,178.864989 620.727273,178.864989 601.922078,178.864989 C601.402597,178.864989 600.935065,178.864989 600.415584,178.864989 C600.311688,178.761269 600.25974,178.709409 600.155844,178.605689 C600.155844,150.030853 600.155844,121.404158 600.155844,92.8293217 C600.25974,92.7256018 600.311688,92.6737418 600.415584,92.5700219 C619.324675,92.5700219 638.233766,92.5700219 657.194805,92.5700219 C657.298701,92.6737418 657.350649,92.7256018 657.454545,92.8293217 C657.454545,97.133698 657.454545,101.438074 657.454545,105.690591 C657.350649,105.794311 657.298701,105.898031 657.246753,106.001751 C643.896104,106.001751 630.545455,106.001751 617.194805,106.001751 C616.727273,106.001751 616.25974,106.001751 615.844156,106.053611 C615.792208,106.10547 615.688312,106.15733 615.636364,106.26105 C615.636364,113.417724 615.636364,120.574398 615.636364,127.886652 C628.831169,127.886652 641.974026,127.886652 655.168831,127.886652 C655.168831,132.242888 655.168831,136.495405 655.168831,140.955361 C642.077922,140.955361 628.987013,140.955361 615.844156,140.955361 C615.792208,141.007221 615.688312,141.059081 615.636364,141.162801 C615.636364,149.097374 615.636364,157.083807 615.636364,165.018381 C615.688312,165.070241 615.792208,165.173961 615.844156,165.225821 C629.87013,165.225821 643.844156,165.225821 657.87013,165.225821 C658.373083,165.225821 658.924731,165.225821 659.430783,165.272887 Z M189.995607,143.326245 C190.144257,143.223168 190.292908,143.081619 190.441558,143.081619 C194.857143,143.081619 199.272727,143.081619 203.688312,143.133479 C203.272727,143.185339 202.805195,143.340919 202.38961,143.340919 C198.233766,143.340919 194.077922,143.340919 189.974026,143.340919 C189.98122,143.336131 189.988413,143.331233 189.995607,143.326245 C189.988407,143.331238 189.981216,143.336134 189.974026,143.340919 C189.974026,154.698249 189.974026,166.05558 189.922078,177.41291 C189.922078,177.87965 189.922078,178.29453 189.922078,178.813129 C184.779221,178.813129 179.688312,178.813129 174.545455,178.813129 C174.545455,150.134573 174.545455,121.404158 174.545455,92.5700219 C174.961039,92.5700219 175.428571,92.5700219 175.844156,92.5700219 C183.792208,92.5700219 191.688312,92.5700219 199.636364,92.5700219 C205.506494,92.5700219 211.376623,92.8293217 217.142857,94.2295405 C223.012987,95.6816193 227.844156,98.5339168 231.428571,103.460613 C232.779221,105.327571 233.61039,107.350109 234.181818,109.476368 C235.74026,114.973523 235.480519,120.522538 233.974026,125.967834 C232.675325,130.79081 229.662338,134.317287 225.714286,137.221444 C222.909091,139.295842 219.688312,140.436761 216.519481,141.473961 C213.922078,142.30372 211.168831,142.4593 208.467532,142.77046 C206.857143,142.977899 205.246753,142.977899 203.688312,143.081619 C199.272727,143.081619 194.857143,143.029759 190.441558,143.029759 C190.292905,143.079227 190.144251,143.223064 189.995597,143.326247 Z M523.429697,178.440007 C523.429322,178.443372 523.428947,178.446739 523.428571,178.450109 C523.428159,178.446408 523.427744,178.442709 523.427326,178.439014 C523.393448,178.424848 523.359242,178.41119 523.324675,178.398249 C523.339356,178.266345 523.354037,178.138583 523.367546,178.012622 C523.320562,177.711273 523.272727,177.41845 523.272727,177.101751 C523.272727,149.512254 523.272727,121.922757 523.272727,94.3332604 C523.272727,93.8665208 523.376623,93.4516411 523.428571,92.9849015 C523.74026,92.8293217 524.103896,92.5700219 524.415584,92.5700219 C534.38961,92.5700219 544.363636,92.5181619 554.337662,92.5700219 C556.779221,92.5700219 559.272727,92.6737418 561.714286,93.0367615 C563.948052,93.3997812 566.077922,94.0739606 568.207792,94.74814 C570.181818,95.4223195 572.207792,96.0964989 574.025974,97.0818381 C575.532468,97.9115974 576.883117,99.1043764 578.181818,100.193435 C582.12987,103.512473 584.051948,107.816849 584.883117,112.847265 C585.194805,114.869803 585.194805,116.892341 585.142857,118.91488 C584.987013,124.723195 582.857143,129.649891 578.753247,133.746827 C575.376623,137.169584 571.168831,139.192123 566.493506,140.281182 C566.181818,140.333042 565.922078,140.488621 565.558442,140.644201 C573.194805,153.349891 580.831169,166.00372 588.571429,178.813129 C588,178.813129 587.636364,178.813129 587.324675,178.813129 C581.818182,178.813129 576.363636,178.813129 570.857143,178.813129 C570.12987,178.813129 569.714286,178.657549 569.298701,177.87965 C567.532468,174.456893 565.558442,171.137856 563.688312,167.766958 C562.025974,164.759081 560.415584,161.751204 558.805195,158.743326 C557.038961,155.528009 555.220779,152.312691 553.454545,149.045514 C552.207792,146.815536 551.064935,144.533698 549.87013,142.30372 C546.181818,142.30372 542.597403,142.30372 538.961039,142.30372 C538.909091,142.35558 538.857143,142.4593 538.753247,142.51116 C538.753247,154.07593 538.753247,165.6407 538.701299,177.20547 C538.701299,177.67221 538.701299,178.19081 538.701299,178.813129 C538.077922,178.813129 537.506494,178.813129 536.935065,178.813129 C532.779221,178.813129 528.623377,178.813129 524.467532,178.813129 C524.134847,178.813129 523.802162,178.596092 523.429697,178.440007 Z M36.5714286,0.41487965 C37.1948052,1.08905908 37.5064935,2.74857768 37.038961,3.47461707 C36.8831169,3.73391685 36.4675325,3.88949672 36.1558442,3.88949672 C32.2597403,3.88949672 28.3636364,3.94135667 24.4675325,3.88949672 C23.3766234,3.88949672 22.8051948,2.12625821 23.5324675,0.985339168 C23.7402597,0.777899344 23.9480519,0.622319475 24.1038961,0.466739606 C24.1038961,0.363019694 24.1038961,0.311159737 24.1038961,0.207439825 C28.2597403,0.207439825 32.4155844,0.207439825 36.5714286,0.207439825 C36.5714286,0.259299781 36.5714286,0.363019694 36.5714286,0.41487965 Z M799.272727,150.549453 C799.272727,150.860613 799.272727,151.223632 799.272727,151.534792 C799.272727,153.194311 799.272727,154.853829 799.272727,156.513348 C798.857143,158.328446 798.545455,160.091685 798.025974,161.854923 C797.506494,163.566302 797.038961,165.3814 796.155844,166.937199 C793.454545,171.552735 789.61039,174.975492 784.831169,177.41291 C781.142857,179.279869 777.246753,180.317068 773.090909,180.680088 C772.363636,180.731947 771.636364,180.835667 770.909091,180.939387 C770.753247,180.939387 770.545455,180.939387 770.38961,180.939387 C770.233766,180.939387 770.077922,180.939387 769.922078,180.939387 C768.519481,180.939387 767.064935,180.939387 765.662338,180.939387 C765.402597,180.939387 765.194805,180.939387 764.935065,180.939387 C764.831169,180.939387 764.727273,180.939387 764.623377,180.939387 C754.233766,180.265208 745.090909,176.738731 737.766234,168.700438 C739.012987,167.611379 740.207792,166.522319 741.350649,165.48512 C742.909091,164.033042 744.415584,162.580963 745.974026,161.128884 C746.909091,160.247265 747.844156,159.365646 748.883117,158.432166 C749.714286,159.210066 750.597403,159.884245 751.220779,160.765864 C752.363636,162.269803 754.025974,163.099562 755.532468,164.084902 C758.597403,166.1593 762.077922,167.403939 765.662338,167.818818 C770.597403,168.389278 775.324675,167.455799 779.324675,164.188621 C780.727273,163.047702 781.558442,161.647484 782.285714,159.987965 C784,156.150328 783.896104,152.520131 781.558442,149.149234 C780.051948,146.971116 777.766234,145.622757 775.428571,144.533698 C772.987013,143.444639 770.441558,142.51116 767.896104,141.62954 C764.207792,140.333042 760.415584,139.192123 756.727273,137.791904 C753.714286,136.650985 750.909091,134.991466 748.571429,132.761488 C747.064935,131.309409 745.766234,129.649891 744.675325,127.834792 C743.636364,126.071554 742.753247,124.152735 742.337662,122.182057 C741.766234,119.226039 741.246753,116.218162 741.922078,113.106565 C742.12987,112.069365 741.974026,110.980306 742.077922,109.891247 C742.077922,109.580088 742.285714,109.320788 742.38961,109.061488 C744,104.653392 746.337662,100.660175 749.974026,97.6004376 C751.012987,96.7188184 752.25974,96.0446389 753.402597,95.3185996 C757.87013,92.5700219 762.805195,91.273523 767.948052,90.8586433 C771.168831,90.5993435 774.38961,90.7549234 777.61039,90.7549234 C780.571429,90.8067834 783.428571,91.6365427 786.181818,92.5700219 C788.519481,93.3997812 790.909091,94.3332604 793.090909,95.5260394 C794.909091,96.5113786 796.415584,97.9634573 798.077922,99.2080963 C798.701299,99.6748359 798.493506,100.089716 798.077922,100.556455 C796.831169,101.801094 795.532468,103.045733 794.337662,104.342232 C793.090909,105.742451 791.896104,107.246389 790.649351,108.646608 C790.077922,109.268928 789.402597,109.839387 788.727273,110.357987 C788.571429,110.461707 788,110.306127 787.792208,110.098687 C785.454545,107.453829 782.441558,105.742451 779.220779,104.549672 C777.506494,103.927352 775.636364,103.823632 773.818182,103.564333 C770.961039,103.201313 768.207792,103.616193 765.506494,104.549672 C761.87013,105.846171 758.961039,108.076149 757.87013,111.913786 C756.363636,117.307221 758.337662,121.974617 763.532468,124.360175 C767.168831,126.071554 771.064935,127.264333 774.857143,128.664551 C777.454545,129.598031 780.155844,130.32407 782.701299,131.464989 C785.402597,132.657768 787.948052,134.161707 790.441558,135.717505 C792.571429,137.065864 794.12987,138.984683 795.636364,141.007221 C797.090909,143.029759 797.87013,145.259737 798.545455,147.593435 C798.649351,147.956455 799.012987,148.267615 799.272727,148.578775 C799.272727,149.252954 799.272727,149.927133 799.272727,150.549453 Z M338.181818,136.028665 C338.285714,137.169584 338.337662,138.880963 338.545455,140.540481 C339.428571,147.593435 342.025974,153.92035 347.168831,158.950766 C353.922078,165.6407 362.233766,168.026258 371.532468,166.989059 C381.714286,165.84814 389.246753,160.662144 393.922078,151.534792 C397.506494,144.533698 398.285714,137.014004 397.038961,129.286871 C395.896104,122.337637 392.987013,116.270022 387.74026,111.447046 C383.012987,107.09081 377.350649,104.705252 370.961039,104.134792 C362.12987,103.356893 354.233766,105.483151 347.74026,111.706346 C340.987013,118.13698 338.337662,126.330853 338.181818,136.028665 Z M538.857143,129.649891 C539.064935,129.701751 539.168831,129.753611 539.272727,129.753611 C544.571429,129.701751 549.922078,129.85733 555.220779,129.494311 C557.922078,129.338731 560.727273,128.560832 563.220779,127.575492 C567.688312,125.812254 569.766234,122.233917 569.87013,117.462801 C569.974026,112.691685 567.74026,109.217068 563.324675,107.505689 C561.038961,106.57221 558.493506,105.898031 556,105.794311 C550.493506,105.483151 544.987013,105.586871 539.480519,105.483151 C539.272727,105.483151 539.064935,105.535011 538.805195,105.535011 C538.857143,113.625164 538.857143,121.611597 538.857143,129.649891 Z M264.311688,105.275711 C264.311688,113.625164 264.311688,121.611597 264.311688,129.649891 C264.467532,129.701751 264.623377,129.753611 264.779221,129.753611 C270.12987,129.701751 275.480519,129.85733 280.831169,129.494311 C283.532468,129.338731 286.337662,128.612691 288.831169,127.523632 C296.987013,124.100875 296.831169,113.314004 291.948052,109.424508 C289.454545,107.453829 286.649351,106.20919 283.532468,106.001751 C277.246753,105.638731 270.857143,105.535011 264.311688,105.275711 Z M190.025974,105.327571 C190.025974,113.832604 190.025974,122.026477 190.025974,130.27221 C193.766234,130.27221 197.402597,130.37593 201.038961,130.22035 C203.844156,130.11663 206.701299,129.90919 209.402597,129.338731 C215.896104,128.042232 219.220779,124.515755 219.688312,118.39628 C220.051948,113.625164 218.285714,109.580088 213.350649,107.557549 C211.584416,106.83151 209.662338,106.20919 207.74026,106.053611 C201.87013,105.638731 196,105.535011 190.025974,105.327571 Z M55.8961039,187.162582 C57.6103896,189.28884 59.1168831,191.466958 60.9350649,193.385777 C66.8571429,199.505252 73.974026,203.446608 82.4415584,204.846827 C92.2077922,206.506346 101.402597,204.950547 109.818182,199.660832 C124.467532,190.429759 124.519481,173.264114 119.012987,163.825602 C116.25974,159.158206 112.207792,155.891028 107.480519,153.55733 C103.272727,151.482932 98.8571429,149.771554 94.5974026,147.956455 C94.961039,147.749015 95.4805195,147.437856 96.0519481,147.178556 C100.415584,145.052298 104.467532,142.4593 107.792208,138.880963 C108.25974,138.414223 108.571429,138.414223 109.194805,138.621663 C110.649351,139.192123 112.207792,139.607002 113.662338,140.177462 C114.337662,140.436761 114.805195,141.059081 115.428571,141.370241 C121.402597,144.429978 126.909091,148.163895 130.909091,153.71291 C134.181818,158.276586 136.25974,163.410722 136.831169,169.011597 C137.194805,172.226915 137.194805,175.442232 137.350649,178.657549 C137.402597,179.694748 137.558442,180.731947 137.454545,181.717287 C137.402597,182.391466 136.935065,183.013786 136.831169,183.687965 C136.519481,185.451204 136.415584,187.214442 136,188.925821 C135.74026,190.01488 135.012987,191.052079 134.545455,192.089278 C134.025974,193.282057 133.558442,194.474836 133.090909,195.615755 C132.987013,195.875055 132.987013,196.186214 132.831169,196.393654 C131.428571,198.468053 129.974026,200.542451 128.519481,202.616849 C128.415584,202.772429 128.207792,202.876149 128.051948,203.031729 C126.181818,204.639387 124.363636,206.350766 122.493506,207.906565 C121.506494,208.736324 120.311688,209.358643 119.272727,210.188403 C117.194805,211.899781 114.649351,212.677681 112.25974,213.76674 C106.857143,216.204158 101.818182,217.241357 97.038961,217.759956 C95.5844156,217.915536 93.974026,217.759956 92.6753247,218.278556 C90.8051948,219.056455 88.9350649,218.071116 87.0649351,218.641575 C86.1298701,218.900875 84.9350649,218.434136 83.8961039,218.278556 C82.2857143,218.019256 80.7272727,217.656236 79.1168831,217.552516 C75.3766234,217.345077 71.9480519,215.996718 68.4675325,214.855799 C66.1298701,214.129759 63.8441558,213.19628 61.7142857,212.107221 C59.3766234,210.914442 57.1948052,209.462363 54.961039,208.114004 C52.1038961,206.402626 49.7662338,204.120788 47.4285714,201.78709 C46.025974,200.386871 44.8311688,198.779212 43.5844156,197.223414 C43.4285714,197.015974 43.5324675,196.289934 43.7922078,196.134354 C47.8441558,193.074617 51.8441558,190.1186 55.8961039,187.162582 C55.8961039,187.162582 55.9480519,187.162582 55.8961039,187.162582 Z M36.4155844,31.2196937 C36.4155844,33.138512 36.4155844,34.9536105 36.4155844,36.9761488 C36,36.9242888 35.4805195,36.9242888 35.012987,36.8205689 C31.7402597,35.8352298 28.5194805,34.7980306 25.2467532,33.8645514 C24.5194805,33.6571116 24.2597403,33.4496718 24.3116883,32.5680525 C24.4675325,31.0641138 24.3636364,29.5083151 24.3636364,27.6932166 C28.4155844,28.8859956 32.3116883,30.0269147 36.4155844,31.2196937 Z M24.7272727,20.5365427 C26.961039,21.2107221 29.0909091,21.8330416 31.2727273,22.4553611 C32.6233766,22.8702407 33.974026,23.2332604 35.2727273,23.64814 C35.5844156,23.75186 36.0519481,24.0630197 36.0519481,24.3741794 C36.2077922,25.8262582 36.2597403,27.3301969 36.3636364,29.1452954 C35.2207792,28.8859956 34.2857143,28.6785558 33.4025974,28.419256 C30.8571429,27.6413567 28.3116883,26.7597374 25.7142857,26.085558 C24.6233766,25.8262582 24.3636364,25.3076586 24.4155844,24.3741794 C24.5194805,23.1814004 24.6233766,21.9367615 24.7272727,20.5365427 Z M25.3506494,8.60875274 C28.8831169,9.69781182 32.3116883,10.7350109 35.7922078,11.7722101 C35.7922078,12.8612691 35.7922078,13.8984683 35.7922078,15.1431072 C35.0649351,14.9356674 34.3376623,14.7800875 33.6623377,14.6245077 C31.2727273,13.9503282 28.8311688,13.2242888 26.4935065,12.4982495 C24.8831169,11.9796499 24.6233766,11.4091904 25.038961,9.80153173 C25.0909091,9.43851204 25.1948052,9.07549234 25.3506494,8.60875274 Z M469.662338,180.991247 C471.584416,180.991247 473.506494,180.991247 475.428571,180.991247 C473.506494,180.991247 471.584416,180.991247 469.662338,180.991247 Z M41.6103896,195.823195 C41.5584416,194.474836 41.5064935,193.178337 41.4545455,191.829978 C41.4545455,193.178337 41.5584416,194.526696 41.6103896,195.823195 Z M321.506494,133.072648 C321.506494,134.680306 321.506494,136.236105 321.506494,137.843764 C321.506494,136.287965 321.506494,134.680306 321.506494,133.072648 Z M365.454545,180.991247 C366.961039,180.991247 368.467532,180.991247 369.974026,180.991247 C368.467532,180.991247 366.961039,180.991247 365.454545,180.991247 Z M474.181818,90.4956236 C472.675325,90.4956236 471.168831,90.4956236 469.662338,90.4956236 C471.168831,90.4956236 472.675325,90.4956236 474.181818,90.4956236 Z M765.61039,180.991247 C767.012987,180.991247 768.467532,180.991247 769.87013,180.991247 C768.467532,180.991247 767.012987,180.991247 765.61039,180.991247 Z M41.9220779,211.018162 C41.9220779,209.877243 41.974026,208.684464 41.974026,207.543545 C42.0779221,208.632604 42.1818182,209.669803 42.2857143,210.758862 C42.2337662,210.862582 42.025974,210.914442 41.9220779,211.018162 Z M90.9090909,108.024289 C90.9090909,109.165208 90.9090909,110.306127 90.9090909,111.447046 C90.9090909,110.306127 90.9090909,109.165208 90.9090909,108.024289 Z M41.2987013,187.473742 C41.2467532,186.436543 41.2467532,185.451204 41.1948052,184.414004 C41.1948052,185.399344 41.2467532,186.436543 41.2987013,187.473742 Z M41.8181818,202.357549 C41.7662338,201.52779 41.7662338,200.698031 41.7142857,199.816411 C41.7142857,200.646171 41.7662338,201.47593 41.8181818,202.357549 Z M770.337662,180.939387 C770.493506,180.939387 770.701299,180.939387 770.857143,180.939387 C770.753247,181.043107 770.701299,181.198687 770.597403,181.302407 C770.545455,181.198687 770.441558,181.043107 770.337662,180.939387 Z M370.649351,180.939387 C370.805195,180.939387 371.012987,180.939387 371.168831,180.939387 C371.064935,181.043107 371.012987,181.198687 370.909091,181.302407 C370.857143,181.198687 370.753247,181.043107 370.649351,180.939387 Z M90.7012987,106.001751 C90.7532468,106.31291 90.8051948,106.62407 90.8571429,106.93523 C90.8051948,106.62407 90.7532468,106.31291 90.7012987,106.001751 Z M90.3376623,115.180963 C90.2857143,115.388403 90.2337662,115.647702 90.1818182,115.855142 C90.2337662,115.647702 90.2857143,115.440263 90.3376623,115.180963 Z M89.7142857,102.475274 C89.7662338,102.734573 89.8181818,102.993873 89.8701299,103.253173 C89.8181818,102.993873 89.7662338,102.734573 89.7142857,102.475274 Z M11.1688312,50.6153173 C10.9090909,50.5634573 10.6493506,50.5115974 10.3896104,50.5115974 C10.6493506,50.5634573 10.9090909,50.5634573 11.1688312,50.6153173 Z M90.1818182,103.823632 C90.2337662,104.031072 90.2857143,104.290372 90.3896104,104.497812 C90.2857143,104.238512 90.2337662,104.031072 90.1818182,103.823632 Z M90.4415584,104.808972 C90.4935065,104.964551 90.4935065,105.068271 90.5454545,105.223851 C90.4935065,105.068271 90.4415584,104.912691 90.4415584,104.808972 Z M764.623377,180.939387 C764.727273,180.939387 764.831169,180.939387 764.883117,180.939387 C764.831169,181.043107 764.779221,181.146827 764.727273,181.250547 C764.727273,181.146827 764.675325,181.043107 764.623377,180.939387 Z M77.7662338,92.1551422 C77.9220779,92.2070022 78.0779221,92.2588621 78.1818182,92.3107221 C78.025974,92.2588621 77.8701299,92.2070022 77.7662338,92.1551422 Z M75.5324675,91.4809628 C75.6363636,91.4809628 75.7922078,91.5328228 75.8961039,91.5328228 C75.7922078,91.5328228 75.6883117,91.5328228 75.5324675,91.4809628 Z M74.2337662,91.273523 C74.4415584,91.273523 74.5974026,91.273523 74.8051948,91.273523 C74.5974026,91.273523 74.3896104,91.273523 74.2337662,91.273523 Z M37.5584416,66.6919037 C37.5584416,66.5363239 37.6103896,66.380744 37.6103896,66.1733042 C37.6103896,66.380744 37.5584416,66.5363239 37.5584416,66.6919037 Z M98.2337662,77.2713348 C98.3896104,77.2713348 98.5454545,77.3231947 98.7012987,77.3231947 C98.5454545,77.3231947 98.3896104,77.3231947 98.2337662,77.2713348 Z M69.2987013,90.2363239 C69.4545455,90.2363239 69.6103896,90.2881838 69.7662338,90.2881838 C69.6103896,90.2881838 69.4545455,90.2881838 69.2987013,90.2363239 Z M70.7532468,90.4437637 C70.9090909,90.4956236 71.0649351,90.4956236 71.2207792,90.5474836 C71.1168831,90.4956236 70.961039,90.4956236 70.7532468,90.4437637 Z M90.4415584,114.454923 C90.4415584,114.610503 90.4415584,114.766083 90.4415584,114.869803 C90.4415584,114.714223 90.4415584,114.610503 90.4415584,114.454923 Z M90.0779221,116.218162 C90.025974,116.373742 89.974026,116.529322 89.9220779,116.684902 C89.974026,116.477462 90.025974,116.321882 90.0779221,116.218162 Z M89.8701299,116.944201 C89.8181818,117.099781 89.7662338,117.255361 89.7142857,117.359081 C89.7142857,117.255361 89.8181818,117.099781 89.8701299,116.944201 Z M62.6493506,98.0153173 C62.7012987,97.8597374 62.7532468,97.7041575 62.7532468,97.5485777 C62.7532468,97.7041575 62.7012987,97.8597374 62.6493506,98.0153173 Z M25.1428571,42.2658643 C25.1948052,42.3177243 25.2987013,42.4214442 25.4025974,42.5251641 C25.2987013,42.4214442 25.2467532,42.3695842 25.1428571,42.2658643 Z M87.8441558,120.678118 C87.7922078,120.781838 87.7402597,120.885558 87.6883117,120.989278 C87.7922078,120.885558 87.8441558,120.781838 87.8441558,120.678118 Z M538.805195,142.56302 C538.857143,142.51116 538.909091,142.40744 539.012987,142.35558 C538.909091,142.4593 538.857143,142.51116 538.805195,142.56302 Z M89.9220779,103.305033 C89.974026,103.356893 90.025974,103.408753 90.0779221,103.512473 C90.025974,103.408753 89.974026,103.356893 89.9220779,103.305033 Z M47.5324675,89.8214442 C47.6363636,89.7177243 47.6883117,89.6658643 47.7922078,89.5621444 C47.7402597,89.6140044 47.6363636,89.7177243 47.5324675,89.8214442 Z M84.7272727,95.8890591 C84.8311688,95.8890591 84.8831169,95.940919 84.8831169,95.992779 C84.7792208,95.992779 84.7272727,95.992779 84.7272727,95.8890591 Z M82.4415584,78.6196937 C82.4935065,78.6196937 82.5974026,78.5678337 82.6493506,78.5678337 C82.6493506,78.5678337 82.5454545,78.6196937 82.5454545,78.6196937 L82.4415584,78.6196937 Z M79.7402597,92.9330416 C79.7922078,92.9849015 79.8961039,92.9849015 79.9480519,93.0367615 C79.8961039,92.9849015 79.8441558,92.9849015 79.7402597,92.9330416 Z M84.4155844,78.1010941 C84.5194805,78.0492341 84.6233766,78.0492341 84.6753247,77.9973742 C84.6233766,77.9973742 84.5194805,78.0492341 84.4155844,78.1010941 Z M600.363636,92.5700219 C600.25974,92.6737418 600.207792,92.7256018 600.103896,92.8293217 C600.207792,92.7256018 600.25974,92.6737418 600.363636,92.5700219 Z M79.2727273,92.7256018 L79.3766234,92.6737418 L79.4285714,92.7774617 C79.3766234,92.8293217 79.3246753,92.7774617 79.2727273,92.7256018 Z M600.103896,178.605689 C600.207792,178.709409 600.25974,178.761269 600.363636,178.864989 C600.25974,178.813129 600.207792,178.709409 600.103896,178.605689 Z M78.4935065,92.414442 C78.5974026,92.466302 78.6493506,92.466302 78.7532468,92.5181619 C78.6493506,92.466302 78.5974026,92.466302 78.4935065,92.414442 Z M77.2987013,91.9995624 C77.3506494,91.9995624 77.4025974,92.0514223 77.4545455,92.0514223 C77.4545455,92.0514223 77.3506494,92.0514223 77.3506494,92.0514223 C77.3506494,92.0514223 77.2987013,91.9995624 77.2987013,91.9995624 Z M76.2597403,91.6884026 C76.3636364,91.7402626 76.4675325,91.7402626 76.5714286,91.7921225 C76.4675325,91.7402626 76.3636364,91.6884026 76.2597403,91.6884026 Z M36.5714286,45.6367615 C36.6753247,45.5849015 36.7272727,45.5330416 36.8311688,45.4811816 C36.7272727,45.5330416 36.6753247,45.5849015 36.5714286,45.6367615 Z" id="Combined-Shape"></path>
        </g>
    </g>
</svg>